<svg id="Warstwa_1" data-name="Warstwa 1" xmlns="http://www.w3.org/2000/svg" xmlns:xlink="http://www.w3.org/1999/xlink" viewBox="0 0 715.25 296.25"><defs><linearGradient id="linear-gradient" x1="1.18" y1="166.36" x2="714" y2="166.36" gradientUnits="userSpaceOnUse"><stop offset="0" stop-color="#94c2ff"/><stop offset="1" stop-color="#6570d7"/></linearGradient><clipPath id="clip-path"><path d="M297,278.41,7,130.18a9.4,9.4,0,0,1,1.68-17.41L392.16,2.8A25.71,25.71,0,0,1,411,4.62L707.39,156.13a9.6,9.6,0,0,1-1.72,17.78L330,281.62A45.29,45.29,0,0,1,297,278.41Z" style="fill:none"/></clipPath><clipPath id="clip-path-2"><polygon points="463.35 170.65 457.01 166.63 464.26 163.99 470.6 168.01 463.35 170.65" style="fill:none"/></clipPath></defs><path d="M712.65,176.41a6.5,6.5,0,0,1-4.19,3.69L328.29,289.64c-8.82,3.29-22.68,1.55-30.9-3L7.53,137.7c-8.34-5.14-6.27-17-5.7-18.14.22-.46.65-2.09,1.15-2.18L383.09,41.45a4.19,4.19,0,0,1,2.35.23l322.8,115.88A6.5,6.5,0,0,1,712,161C713.46,164.23,715.32,170.26,712.65,176.41Z" style="fill:url(#linear-gradient)"/><g style="isolation:isolate"><g style="clip-path:url(#clip-path)"><path d="M18.8,121.61a9.93,9.93,0,0,1-6.27-.74c-1.75-.89-1.78-2-.08-2.5a9.91,9.91,0,0,1,6.27.73c1.76.9,1.79,2,.08,2.51m10.05-2.88a9.91,9.91,0,0,1-6.27-.74c-1.75-.89-1.79-2-.08-2.5a9.87,9.87,0,0,1,6.26.73c1.76.9,1.8,2,.09,2.51m10-2.88a9.91,9.91,0,0,1-6.27-.74c-1.75-.89-1.79-2-.08-2.51a10,10,0,0,1,6.26.74c1.75.9,1.79,2,.09,2.51M401.92,0-14.26,119.34l313,160a40.37,40.37,0,0,0,29.5,2.86L729.05,167.2l-400.86,115a40.37,40.37,0,0,1-29.5-2.86L7.74,130.58l80.16-23,336-96.35L401.92,0" style="fill:#444"/><path d="M373.84,197.73l-11.38-5.81L414,177.14,425.39,183l-51.55,14.78m55.55-15.93L418,176l40.36-11.57,11.38,5.81L429.39,181.8m-70.13,8.48-2.13-1.09,95.92-27.5,2.13,1.09-95.92,27.5m-6.05-3.09-2.13-1.09,51.55-14.78,2.14,1.09-51.56,14.78m55.56-15.93-2.13-1.09L447,158.6l2.13,1.09-40.36,11.57m-61.24,13-2.14-1.1,95.92-27.5,2.14,1.09-95.92,27.51m-14.85,25.25L304,194.85l32-9.16,28.73,14.68-32,9.17m7-29.25-11.38-5.82,51.55-14.78,11.39,5.81L339.7,180.29m55.56-15.93-11.38-5.82L424.24,147l11.38,5.81-40.36,11.58m-70.14,8.48L323,171.75l95.92-27.51,2.13,1.09-95.92,27.51m-6-3.09-2.14-1.1,51.56-14.78,2.13,1.09-51.55,14.79m55.55-15.93-2.13-1.1,40.36-11.57,2.14,1.09-40.37,11.58m-61.25,13-2.12-1.09,95.91-27.51,2.13,1.09-95.92,27.51m-17.23,24-28.73-14.69,32-9.16,28.73,14.68-32,9.17m8-29.06L292.81,156l51.56-14.78L355.74,147l-51.56,14.78m55.56-15.93-11.38-5.81,40.37-11.57,11.37,5.81-40.36,11.57m-70.14,8.48-2.13-1.09,95.92-27.5,2.13,1.09-95.92,27.5m-6-3.09-2.14-1.09L333,135.4l2.14,1.09-51.56,14.78m55.55-15.93L337,134.25l40.36-11.57,2.14,1.09-40.37,11.57m-61.24,13-2.13-1.09,95.91-27.51,2.14,1.09-95.92,27.51m-17,24.46-28.73-14.69,32-9.16,28.73,14.68-32,9.17m33.66-48.73-8.6-4.4,67-19.2,8.6,4.39-67,19.21m-15.67-8L276.61,115l166-47.59,2.23,1.14-166,47.59m-6.32-3.23-2.23-1.14,89.2-25.58,2.23,1.14-89.2,25.58m-5.94-3-2.23-1.14,166-47.59,2.24,1.14-166,47.59m-10-4.66L252.36,103,357,73l4.24,2.17-104.62,30m-37.83,46.33L162.94,123l62.14-17.81,55.83,28.53-62.14,17.82M145.28,114l-.18-.1,286.1-82,.18.09-286.1,82M135,108.69l-2.54-1.29,29.05-8.34,2.54,1.3L135,108.69m72.71-20.85-2.54-1.29,29.06-8.34,2.54,1.3-29.06,8.33m68.89-19.75L274,66.79l29.07-8.33,2.53,1.3-29.06,8.33M423.92,11.25,87.9,107.6,393,263.56l-64.84,18.59a40.37,40.37,0,0,1-29.5-2.86L7.74,130.58l291,148.71a40.37,40.37,0,0,0,29.5,2.86L717.55,170.5a4.72,4.72,0,0,0,.85-8.74L423.92,11.25" style="fill:#f4f4f4"/><path d="M12.45,118.37c-1.7.49-1.67,1.61.08,2.5a9.93,9.93,0,0,0,6.27.74c1.71-.49,1.68-1.61-.08-2.51a9.91,9.91,0,0,0-6.27-.73" style="fill:#ed4e38"/><path d="M22.5,115.49c-1.71.49-1.67,1.61.08,2.5a9.91,9.91,0,0,0,6.27.74c1.71-.49,1.67-1.61-.09-2.51a9.87,9.87,0,0,0-6.26-.73" style="fill:#5b5b5b"/><path d="M32.55,112.6c-1.71.5-1.67,1.62.08,2.51a9.91,9.91,0,0,0,6.27.74c1.7-.49,1.66-1.61-.09-2.51a10,10,0,0,0-6.26-.74" style="fill:#64c880"/><path d="M101,165.09c-.56.17-.55.54,0,.84a3.3,3.3,0,0,0,2.08.24c.58-.16.56-.53,0-.83a3.33,3.33,0,0,0-2.09-.25m-14.6-7-1.6-.81c-.11-.06-.11-.13,0-.16a.65.65,0,0,1,.41,0l1.19.61.62-.17a.69.69,0,0,1,.4,0c.1.06.11.13,0,.16l-1,.29m-2.18-1.27c-1.17.34-1.13,1.11.06,1.72a6.76,6.76,0,0,0,4.28.5c1.17-.33,1.14-1.1,0-1.71a6.86,6.86,0,0,0-4.29-.51m-17.46-8.57a.93.93,0,0,0-.64.42c-.23.49.64,1.09,1.93,1.35a4.94,4.94,0,0,0,2.15,0,1,1,0,0,0,.64-.41c.23-.49-.63-1.1-1.93-1.35a5,5,0,0,0-2.15,0m-.06-18.77-.47.13c-.73.21-.88.43-.44.65a1.64,1.64,0,0,0,.64.18,2,2,0,0,0,.65-.05.64.64,0,0,0,.38-.24.22.22,0,0,0,0-.3l-.73-.37m1.59-1.58c-.39.12-.49.29-.29.53l1.56.8a2.82,2.82,0,0,0,1.43.05c.28-.09.39-.21.32-.37s-.33-.37-.79-.6a4.41,4.41,0,0,0-1.21-.43,2.31,2.31,0,0,0-1,0m-12.44,3.55c-.24.07-.36.18-.34.32s.17.3.46.48l1.75-.51-.05,0a3,3,0,0,0-1-.3,2,2,0,0,0-.86,0M41.68,134.8l1.46,1.39,1.61-.46-3.07-.93m158.26,84.81,55.79-16-55.79,16m-11.85-6.06-9.89-5.05,55.8-16,9.88,5.05-55.79,16M171,204.8l-9.88-5.05,55.79-16,9.88,5.05L171,204.8m-17.13-8.75L144,191l55.79-16,9.88,5.05-55.8,16m-17.12-8.75-9.87-5.05,55.79-16,9.87,5.05-55.79,16m-21.64-11.06-.18-.1,55.79-16,.18.09-55.79,16M114.8,163l-2.13-1.08,24.35-7,2.13,1.08-24.35,7M99.45,165a.59.59,0,0,1,.18-.17l-.45-.35s0-.08,0-.1l.59-.17a.47.47,0,0,1,.26,0l.73.26.45,0,.17-.27.2,0,.83.1.21.09.19.31.46.13.72-.09a.46.46,0,0,1,.26,0l.61.31c.07,0,.09.09,0,.11l-.42.24a1.75,1.75,0,0,1,.19.2l.69.15.17.1v.34l-.16.06h-.7a1.33,1.33,0,0,1-.17.16l.43.35c.06,0,0,.08,0,.1l-.58.17a.63.63,0,0,1-.27,0l-.73-.26-.45,0-.16.25-.21,0-.84-.09-.21-.09-.18-.3-.45-.13-.74.09a.42.42,0,0,1-.25-.05l-.6-.3c-.07,0-.09-.08,0-.11l.43-.24a.94.94,0,0,1-.17-.18l-.79-.17-.16-.1v-.34l.16-.06.75,0m-.14-10.38-2.13-1.08,24.34-7,2.13,1.09-24.34,7M89,159.24a8,8,0,0,1-5.08-.6c-1.42-.72-1.46-1.64-.08-2a8.1,8.1,0,0,1,5.09.59c1.42.73,1.45,1.64.07,2M83.3,146.46l-2.13-1.09,24.34-7,2.13,1.09-24.34,7m-12.52,3.82a6.41,6.41,0,0,1-2.84,0,5.49,5.49,0,0,1-2-.77c-.48-.34-.67-.7-.51-1a1.25,1.25,0,0,1,.84-.55,6.43,6.43,0,0,1,2.85,0c1.57.31,2.67,1,2.6,1.62l3.2.62c.23,0,.39.16.35.25l-.11.07-.07,0a1.15,1.15,0,0,1-.32,0l-3.2-.63a1.62,1.62,0,0,1-.74.4M47.89,141.9l-.18-.09,55.8-16,.17.09-55.79,16m1.93-6.15a3.74,3.74,0,0,1-1.62.08,5.64,5.64,0,0,1-1.77-.57l-.1,0a2.3,2.3,0,0,1-.75-.53.4.4,0,0,1-.1-.48,1,1,0,0,1,.61-.35,3.41,3.41,0,0,1,1.34-.1,4.06,4.06,0,0,1,1.36.36l-.57.16a2.66,2.66,0,0,0-.83-.21,2.05,2.05,0,0,0-.8.05c-.3.08-.43.21-.37.37s.3.35.73.57l.11.06a4.6,4.6,0,0,0,1.21.42,2.34,2.34,0,0,0,1.06,0c.21-.06.32-.15.35-.27s0-.22-.23-.33l.57-.16a.92.92,0,0,1,.39.36.35.35,0,0,1-.08.38.94.94,0,0,1-.51.27m1.55-2.95a.32.32,0,0,1,0-.35.89.89,0,0,1,.5-.27,3.31,3.31,0,0,1,2.43.3l2.41,1.24-.59.17-2.38-1.22a2.33,2.33,0,0,0-.75-.24,1.88,1.88,0,0,0-.77.07c-.22.06-.34.15-.35.26s.09.23.29.36l2.39,1.22-.6.17-2.36-1.2a2,2,0,0,0-1.53-.19c-.39.11-.49.28-.3.49L52.42,135l-.59.17-3.61-1.84.57-.17.42.2c-.06-.23.14-.41.57-.53a3,3,0,0,1,1.59,0m7.8.27a4,4,0,0,1-1.64.09,5.06,5.06,0,0,1-1.73-.53l-.12-.06a2.19,2.19,0,0,1-.75-.54.45.45,0,0,1-.11-.5.83.83,0,0,1,.54-.34,3.52,3.52,0,0,1,1.53-.07,5.64,5.64,0,0,1,1.71.57l.25.13-2.37.68a3.41,3.41,0,0,0,1.16.35,2.61,2.61,0,0,0,1.06,0,.76.76,0,0,0,.41-.22.33.33,0,0,0,0-.29l.65,0c.17.32,0,.57-.63.73m4.59-3.44a.67.67,0,0,1-.34-.32.33.33,0,0,1,.11-.35,1.45,1.45,0,0,1,.56-.28,3.52,3.52,0,0,1,1.26-.11,3.63,3.63,0,0,1,1.22.34l1.65.84a4.21,4.21,0,0,0,.92.37l0,0-.64.18a3.09,3.09,0,0,1-.45-.17c0,.23-.17.4-.56.51a3.11,3.11,0,0,1-1.16.1,3,3,0,0,1-1.09-.3c-.37-.19-.52-.38-.46-.57s.36-.35.87-.49l.58-.17L66,129.1a2,2,0,0,0-.69-.21,1.88,1.88,0,0,0-.75.06c-.21.06-.34.14-.37.24s0,.19.19.27l-.61.17m10.83-1.37c.23-.07.36-.15.4-.23s0-.18-.17-.26a1.49,1.49,0,0,0-.57-.14,5.2,5.2,0,0,0-.88.06,7.27,7.27,0,0,1-1,.08,3.26,3.26,0,0,1-.73,0,2.28,2.28,0,0,1-.59-.2c-.29-.15-.42-.31-.38-.49s.24-.31.62-.42a3.39,3.39,0,0,1,1.28-.12,3.2,3.2,0,0,1,1.19.31l-.61.17a1.76,1.76,0,0,0-.64-.16,2,2,0,0,0-.71.06c-.22.06-.34.13-.37.22s0,.17.2.25a1.37,1.37,0,0,0,.51.12,6.36,6.36,0,0,0,.83-.07,7.55,7.55,0,0,1,1-.08,3.61,3.61,0,0,1,.76.06,2.16,2.16,0,0,1,.62.21c.32.16.46.33.4.5s-.29.32-.69.43a3.68,3.68,0,0,1-.9.14,4.09,4.09,0,0,1-.92-.08,2.56,2.56,0,0,1-.78-.25l.6-.17a2.12,2.12,0,0,0,.73.19,2.87,2.87,0,0,0,.78-.08m-30.93,9.21-3-3,.55-.15,6.65,2-.64.18-1.71-.52-2,.57.82.78-.64.18M62.91,132l-4.85-2.48.63-.18L63,131.5l2.24-.64.52.27-2.86.82m7.09-2-5.11-2.62.6-.17,1.9,1c-.06-.22.12-.4.55-.52a3.38,3.38,0,0,1,1.5,0,6.06,6.06,0,0,1,1.72.59l0,0c.56.29.87.55,1,.79s-.08.42-.5.54a3.54,3.54,0,0,1-1.5,0l.38.22-.55.16M87.9,107.6l-80.16,23,291,148.71a40.37,40.37,0,0,0,29.5,2.86L393,263.56,87.9,107.6" style="fill:#fff"/><polyline points="103.5 125.81 47.71 141.81 47.89 141.9 103.68 125.9 103.5 125.81" style="fill:#bfbebe"/><polyline points="431.2 31.85 145.1 113.88 145.28 113.98 431.38 31.94 431.2 31.85" style="fill:#bfbebe"/><polyline points="170.68 160.15 114.89 176.15 115.07 176.24 170.86 160.24 170.68 160.15" style="fill:#bfbebe"/><polyline points="255.73 203.61 199.94 219.61 255.73 203.61"/><path d="M70.22,150a4.94,4.94,0,0,1-2.15,0c-1.29-.26-2.16-.86-1.93-1.35a.93.93,0,0,1,.64-.42,5,5,0,0,1,2.15,0c1.3.25,2.16.86,1.93,1.35a1,1,0,0,1-.64.41m-4-2a1.25,1.25,0,0,0-.84.55c-.16.31,0,.67.51,1a5.49,5.49,0,0,0,2,.77,6.41,6.41,0,0,0,2.84,0,1.62,1.62,0,0,0,.74-.4l3.2.63a1.15,1.15,0,0,0,.32,0l.07,0,.11-.07c0-.09-.12-.2-.35-.25l-3.2-.62c.07-.62-1-1.31-2.6-1.62a6.43,6.43,0,0,0-2.85,0" style="fill:#fec4d3"/><polyline points="105.51 138.39 81.17 145.37 83.3 146.46 107.64 139.48 105.51 138.39" style="fill:#dedede"/><polyline points="121.52 146.57 97.18 153.56 99.31 154.64 123.65 147.66 121.52 146.57" style="fill:#dedede"/><path d="M88.58,159a6.76,6.76,0,0,1-4.28-.5c-1.19-.61-1.23-1.38-.06-1.72a6.86,6.86,0,0,1,4.29.51c1.19.61,1.22,1.38,0,1.71m-4.75-2.42c-1.38.39-1.34,1.31.08,2a8,8,0,0,0,5.08.6c1.38-.4,1.35-1.31-.07-2a8.1,8.1,0,0,0-5.09-.59" style="fill:#fec4d3"/><path d="M84.81,157.11c-.1,0-.1.1,0,.16l1.6.81,1-.29c.11,0,.1-.1,0-.16a.69.69,0,0,0-.4,0l-.62.17-1.19-.61a.65.65,0,0,0-.41,0" style="fill:#fec4d3"/><polyline points="137.02 154.91 112.67 161.89 114.8 162.97 139.15 155.99 137.02 154.91" style="fill:#dedede"/><path d="M103.13,166.17a3.3,3.3,0,0,1-2.08-.24c-.58-.3-.59-.67,0-.84a3.33,3.33,0,0,1,2.09.25c.58.3.6.67,0,.83m-3.32-1.94-.59.17c-.07,0-.08.06,0,.1l.45.35a.59.59,0,0,0-.18.17l-.75,0-.16.06v.34l.16.1.79.17a.94.94,0,0,0,.17.18l-.43.24s0,.07,0,.11l.6.3a.42.42,0,0,0,.25.05l.74-.09.45.13.18.3.21.09.84.09.21,0,.16-.25.45,0,.73.26a.63.63,0,0,0,.27,0l.58-.17c.07,0,.08-.06,0-.1l-.43-.35a1.33,1.33,0,0,0,.17-.16h.7l.16-.06v-.34l-.17-.1-.69-.15a1.75,1.75,0,0,0-.19-.2l.42-.24c.06,0,0-.07,0-.11l-.61-.31a.46.46,0,0,0-.26,0l-.72.09-.46-.13-.19-.31-.21-.09-.83-.1-.2,0-.17.27-.45,0-.73-.26a.47.47,0,0,0-.26,0" style="fill:#fec4d3"/><path d="M136.53,183.75l-.86-.44L171.81,173l.87.44-36.15,10.36m46.1-17.5-55.79,16,9.87,5.05,55.79-16-9.87-5.05" style="fill:#fc527e"/><path d="M153.65,192.51l-.86-.45,24-6.86.86.44-23.95,6.87M199.75,175,144,191l9.87,5.05,55.8-16L199.75,175" style="fill:#ffe3ec"/><path d="M170.5,201.24l-.75-.38L202,191.62l.75.38-32.23,9.24m46.37-17.49-55.79,16L171,204.8l55.79-16-9.88-5.05" style="fill:#ffe3ec"/><path d="M187.84,210l-.86-.44,14.35-4.12.86.44L187.84,210M234,192.51l-55.8,16,9.89,5.05,55.79-16L234,192.51" style="fill:#ffe3ec"/><polyline points="161.47 99.06 132.41 107.4 134.95 108.69 164 100.36 161.47 99.06" style="fill:#697e8f"/><polyline points="234.18 78.21 205.12 86.55 207.66 87.84 236.72 79.51 234.18 78.21" style="fill:#dedede"/><polyline points="303.07 58.46 274.01 66.79 276.55 68.09 305.61 59.76 303.07 58.46" style="fill:#dedede"/><polyline points="171.81 172.95 135.67 183.31 136.53 183.75 172.68 173.39 171.81 172.95" style="fill:#fff"/><polyline points="176.74 185.2 152.79 192.06 153.65 192.5 177.6 185.64 176.74 185.2" style="fill:#fff"/><polyline points="201.98 191.62 169.75 200.86 170.5 201.24 202.73 192 201.98 191.62" style="fill:#fff"/><polyline points="201.33 205.47 186.98 209.59 187.84 210.03 202.19 205.91 201.33 205.47" style="fill:#fff"/><path d="M46.09,133.85a1,1,0,0,0-.61.35.4.4,0,0,0,.1.48,2.3,2.3,0,0,0,.75.53l.1,0a5.64,5.64,0,0,0,1.77.57,3.74,3.74,0,0,0,1.62-.08.94.94,0,0,0,.51-.27.35.35,0,0,0,.08-.38.92.92,0,0,0-.39-.36l-.57.16c.19.11.27.22.23.33s-.14.21-.35.27a2.34,2.34,0,0,1-1.06,0,4.6,4.6,0,0,1-1.21-.42l-.11-.06c-.43-.22-.67-.41-.73-.57s.07-.29.37-.37a2.05,2.05,0,0,1,.8-.05,2.66,2.66,0,0,1,.83.21l.57-.16a4.06,4.06,0,0,0-1.36-.36,3.41,3.41,0,0,0-1.34.1m5.81-1.67a.89.89,0,0,0-.5.27.32.32,0,0,0,0,.35,3,3,0,0,0-1.59,0c-.43.12-.63.3-.57.53l-.42-.2-.57.17,3.61,1.84.59-.17-2.63-1.35c-.19-.21-.09-.38.3-.49a2,2,0,0,1,1.53.19l2.36,1.2.6-.17-2.39-1.22c-.2-.13-.3-.25-.29-.36s.13-.2.35-.26a1.88,1.88,0,0,1,.77-.07,2.33,2.33,0,0,1,.75.24l2.38,1.22.59-.17-2.41-1.24a3.31,3.31,0,0,0-2.43-.3m4.09.06c-.29-.18-.44-.34-.46-.48s.1-.25.34-.32a2,2,0,0,1,.86,0,3,3,0,0,1,1,.3l.05,0-1.75.51m-.63-1.05a.83.83,0,0,0-.54.34.45.45,0,0,0,.11.5,2.19,2.19,0,0,0,.75.54l.12.06a5.06,5.06,0,0,0,1.73.53,4,4,0,0,0,1.64-.09c.59-.16.8-.41.63-.73l-.65,0a.33.33,0,0,1,0,.29.76.76,0,0,1-.41.22,2.61,2.61,0,0,1-1.06,0,3.41,3.41,0,0,1-1.16-.35l2.37-.68-.25-.13a5.64,5.64,0,0,0-1.71-.57,3.52,3.52,0,0,0-1.53.07m11.74-.81a2,2,0,0,1-.65.05,1.64,1.64,0,0,1-.64-.18c-.44-.22-.29-.44.44-.65l.47-.13.73.37a.22.22,0,0,1,0,.3.64.64,0,0,1-.38.24m-3-1.7a1.45,1.45,0,0,0-.56.28.33.33,0,0,0-.11.35.67.67,0,0,0,.34.32l.61-.17c-.16-.08-.23-.17-.19-.27s.16-.18.37-.24a1.88,1.88,0,0,1,.75-.06,2,2,0,0,1,.69.21l.29.14-.58.17c-.51.14-.79.31-.87.49s.09.38.46.57a3,3,0,0,0,1.09.3,3.11,3.11,0,0,0,1.16-.1c.39-.11.57-.28.56-.51a3.09,3.09,0,0,0,.45.17l.64-.18,0,0a4.21,4.21,0,0,1-.92-.37l-1.65-.84a3.63,3.63,0,0,0-1.22-.34,3.52,3.52,0,0,0-1.26.11m7.24-2.07c-.38.11-.59.25-.62.42s.09.34.38.49a2.28,2.28,0,0,0,.59.2,3.26,3.26,0,0,0,.73,0,7.27,7.27,0,0,0,1-.08,5.2,5.2,0,0,1,.88-.06,1.49,1.49,0,0,1,.57.14c.15.08.21.17.17.26s-.17.16-.4.23a2.87,2.87,0,0,1-.78.08,2.12,2.12,0,0,1-.73-.19l-.6.17a2.56,2.56,0,0,0,.78.25,4.09,4.09,0,0,0,.92.08,3.68,3.68,0,0,0,.9-.14c.4-.11.64-.26.69-.43s-.08-.34-.4-.5a2.16,2.16,0,0,0-.62-.21,3.61,3.61,0,0,0-.76-.06,7.55,7.55,0,0,0-1,.08,6.36,6.36,0,0,1-.83.07,1.37,1.37,0,0,1-.51-.12c-.16-.08-.22-.17-.2-.25s.15-.16.37-.22a2,2,0,0,1,.71-.06,1.76,1.76,0,0,1,.64.16l.61-.17a3.2,3.2,0,0,0-1.19-.31,3.39,3.39,0,0,0-1.28.12m-28.19,9.58-1.46-1.39,3.07.93-1.61.46m-2-1.87-.55.15,3,3,.64-.18-.82-.78,2-.57,1.71.52.64-.18-6.65-2m17.53-5-.63.18L62.91,132l2.86-.82-.52-.27L63,131.5l-4.32-2.21m12.32,0a2.82,2.82,0,0,1-1.43-.05l-1.56-.8c-.2-.24-.1-.41.29-.53a2.31,2.31,0,0,1,1,0,4.41,4.41,0,0,1,1.21.43c.46.23.73.43.79.6s0,.28-.32.37m-5.52-2.14-.6.17L70,129.92l.55-.16-.38-.22a3.54,3.54,0,0,0,1.5,0c.42-.12.58-.3.5-.54s-.4-.5-1-.79l0,0a6.06,6.06,0,0,0-1.72-.59,3.38,3.38,0,0,0-1.5,0c-.43.12-.61.3-.55.52l-1.9-1" style="fill:#717171"/><polyline points="371.65 119.77 275.74 147.28 277.87 148.37 373.79 120.86 371.65 119.77" style="fill:#eaeaea"/><polyline points="383.39 125.77 287.47 153.27 289.6 154.36 385.52 126.86 383.39 125.77" style="fill:#eaeaea"/><polyline points="332.98 135.4 281.42 150.18 283.56 151.27 335.12 136.49 332.98 135.4" style="fill:#eaeaea"/><polyline points="344.37 141.22 292.81 156 304.18 161.81 355.74 147.03 344.37 141.22" style="fill:#eaeaea"/><polyline points="388.73 128.5 348.36 140.07 359.74 145.88 400.1 134.31 388.73 128.5" style="fill:#eaeaea"/><polyline points="377.34 122.68 336.98 134.25 339.11 135.34 379.48 123.77 377.34 122.68" style="fill:#eaeaea"/><polyline points="407.18 138.24 311.26 165.75 313.38 166.84 409.3 139.33 407.18 138.24" style="fill:#eaeaea"/><polyline points="418.91 144.24 322.99 171.75 325.13 172.84 421.04 145.33 418.91 144.24" style="fill:#eaeaea"/><polyline points="368.5 153.87 316.94 168.66 319.08 169.75 370.63 154.96 368.5 153.87" style="fill:#eaeaea"/><polyline points="379.87 159.69 328.32 174.47 339.7 180.29 391.26 165.5 379.87 159.69" style="fill:#eaeaea"/><polyline points="424.24 146.97 383.88 158.54 395.26 164.36 435.62 152.78 424.24 146.97" style="fill:#eaeaea"/><polyline points="412.86 141.15 372.5 152.72 374.63 153.82 415 142.24 412.86 141.15" style="fill:#eaeaea"/><polyline points="441.31 155.69 345.39 183.19 347.53 184.29 443.45 156.78 441.31 155.69" style="fill:#eaeaea"/><polyline points="453.05 161.69 357.13 189.19 359.26 190.28 455.18 162.78 453.05 161.69" style="fill:#eaeaea"/><polyline points="402.63 171.32 351.08 186.1 353.21 187.19 404.77 172.41 402.63 171.32" style="fill:#eaeaea"/><polyline points="414.02 177.14 362.46 191.92 373.84 197.73 425.39 182.95 414.02 177.14" style="fill:#eaeaea"/><polyline points="458.38 164.41 418.02 175.99 429.39 181.8 469.76 170.23 458.38 164.41" style="fill:#eaeaea"/><polyline points="447 158.6 406.63 170.17 408.77 171.26 449.13 159.69 447 158.6" style="fill:#eaeaea"/><path d="M249.59,159.84l-1.35-.69c-.27-.14-.27-.31,0-.39a1.67,1.67,0,0,1,1,.11l.85.44,5.92-1.69a1.49,1.49,0,0,1,1,.11l1.15.59,5.6-1.61a1.44,1.44,0,0,1,.62,0,1,1,0,0,1,.51.22l1.9,1.93L271,160.1a.74.74,0,0,1,.41.25c0,.09,0,.18-.19.23l-7.68,2.2a.73.73,0,0,1-.22,0h-.3l-.19,0h-.05l-.07,0h0l0,0h0l-.05,0-1.15-.58-3.84,1.1,7.43,3.79c.28.14.27.32,0,.39a1.5,1.5,0,0,1-1-.11l-7.92-4.05-6.58-3.36M264.09,149l-32,9.16,28.73,14.69,32-9.17L264.09,149" style="fill:#fafafa"/><path d="M285.3,178.09,284,177.4c-.27-.14-.27-.31,0-.39a1.57,1.57,0,0,1,1,.12l.86.43,5.92-1.69a1.49,1.49,0,0,1,1,.11l1.15.59,5.6-1.61a1.61,1.61,0,0,1,.62,0,1.1,1.1,0,0,1,.51.22l1.9,1.93,4.3,1.24a.67.67,0,0,1,.41.25c.05.09,0,.18-.18.23l-7.68,2.2a.73.73,0,0,1-.22,0h-.3l-.19,0h-.05l-.07,0h0l0,0h0l-.05,0-1.15-.58-3.84,1.1,7.43,3.79c.27.14.27.32,0,.39a1.53,1.53,0,0,1-1-.11l-7.91-4.05-6.58-3.36M299.39,167l-32,9.16,28.73,14.69,32-9.17L299.39,167" style="fill:#fafafa"/><path d="M321,196.34l-1.35-.69c-.27-.13-.28-.31,0-.39a1.57,1.57,0,0,1,1,.12l.86.43,5.92-1.69a1.5,1.5,0,0,1,1,.11l1.15.59,5.6-1.61a1.61,1.61,0,0,1,.62,0,1.1,1.1,0,0,1,.51.22l1.89,1.93,4.31,1.24a.7.7,0,0,1,.41.25c.05.1,0,.18-.18.23l-7.68,2.2a.73.73,0,0,1-.22,0h-.3l-.19,0h-.06l-.06,0h-.05l0,0h0l-.05,0-1.15-.59-3.84,1.1,7.43,3.79c.27.14.27.32,0,.39a1.53,1.53,0,0,1-1-.11l-7.92-4.05L321,196.34m14.91-10.65-32,9.16,28.73,14.69,32-9.17-28.73-14.68" style="fill:#fafafa"/><path d="M263.29,162.81h0m-.07,0h0m-.1,0h0m-.05,0h0m-.2,0,.19,0-.19,0m0,0h0m-.08,0,.07,0-.07,0m0,0h0m0,0h0m1-6-5.6,1.61,5.41,2.76c.14.07.22.15.23.23l0,1.3c0,.07-.06.13-.19.17l-.22,0a.73.73,0,0,0,.22,0l7.68-2.2c.17-.05.23-.14.19-.23a.74.74,0,0,0-.41-.25l-4.31-1.24-1.9-1.93a1,1,0,0,0-.51-.22,1.44,1.44,0,0,0-.62,0" style="fill:#fb99a3"/><path d="M263.51,161.08h0c.27.14.28.31,0,.39l-2.08.6,1.15.58.05,0h0l0,0h0l.07,0h.05l.19,0h.3l.22,0c.13,0,.2-.1.19-.17l0-1.3c0-.08-.09-.16-.23-.23" style="fill:#e386a1"/><path d="M256,157.62l-5.92,1.69,7.56,3.87,3.84-1.1,2.08-.6c.27-.08.26-.25,0-.39h0l-5.41-2.76-1.15-.59a1.49,1.49,0,0,0-1-.11" style="fill:#fcabb8"/><path d="M248.23,158.76c-.26.08-.26.25,0,.39l1.35.69,6.58,3.36,7.92,4.05a1.5,1.5,0,0,0,1,.11c.26-.07.27-.25,0-.39l-7.43-3.79-7.56-3.87-.85-.44a1.67,1.67,0,0,0-1-.11" style="fill:#cbd1d9"/><path d="M299,181.06h0m-.06,0h0m-.1,0h0m-.05,0h0m-.2,0,.19,0-.19,0m-.05,0h0m-.07,0,.07,0-.07,0m0,0h0m-.05,0h0m1-6-5.6,1.61,5.41,2.76c.14.07.22.15.23.23l0,1.3c0,.07-.06.13-.19.17l-.22,0a.73.73,0,0,0,.22,0l7.68-2.2c.16-.05.23-.14.18-.23a.67.67,0,0,0-.41-.25l-4.3-1.24-1.9-1.93A1.1,1.1,0,0,0,300,175a1.61,1.61,0,0,0-.62,0" style="fill:#fb99a3"/><path d="M299.22,179.33h0c.27.14.28.31,0,.39l-2.08.6,1.15.58.05,0h0l0,0h0l.07,0h.05l.19,0h.3l.22,0c.13,0,.2-.1.19-.17l0-1.3c0-.08-.09-.16-.23-.23" style="fill:#e386a1"/><path d="M291.69,175.87l-5.92,1.69,7.56,3.87,3.84-1.1,2.08-.6c.27-.08.26-.25,0-.39h0l-5.41-2.76-1.15-.59a1.49,1.49,0,0,0-1-.11" style="fill:#fcabb8"/><path d="M283.94,177c-.26.08-.26.25,0,.39l1.35.69,6.58,3.36,7.91,4.05a1.53,1.53,0,0,0,1,.11c.26-.07.26-.25,0-.39l-7.43-3.79-7.56-3.87-.86-.43a1.57,1.57,0,0,0-1-.12" style="fill:#cbd1d9"/><path d="M334.7,199.31h0m-.06,0h0m-.11,0h0m0,0h0m-.19,0,.19,0-.19,0m-.05,0h0m-.07,0,.06,0-.06,0m-.05,0h0m0,0h0m1-6-5.6,1.61,5.41,2.76c.14.07.22.15.22.23l0,1.3c0,.07-.06.13-.19.17l-.22,0a.73.73,0,0,0,.22,0l7.68-2.2c.16-.05.23-.13.18-.23a.7.7,0,0,0-.41-.25l-4.31-1.24-1.89-1.93a1.1,1.1,0,0,0-.51-.22,1.61,1.61,0,0,0-.62,0" style="fill:#fb99a3"/><path d="M334.93,197.58h0c.26.14.28.31,0,.39l-2.08.6,1.15.59.05,0h0l0,0h.05l.06,0h.06l.19,0h.3l.22,0c.13,0,.2-.1.19-.17l0-1.3c0-.08-.08-.16-.22-.23" style="fill:#e386a1"/><path d="M327.4,194.12l-5.92,1.69,7.56,3.87,3.84-1.1L335,198c.27-.08.25-.25,0-.39h0l-5.41-2.76-1.15-.59a1.5,1.5,0,0,0-1-.11" style="fill:#fcabb8"/><path d="M319.65,195.26c-.27.08-.26.26,0,.39l1.35.69,6.57,3.36,7.92,4.05a1.53,1.53,0,0,0,1,.11c.26-.07.26-.25,0-.39L329,199.68l-7.56-3.87-.86-.43a1.57,1.57,0,0,0-1-.12" style="fill:#cbd1d9"/><polyline points="356.98 72.99 252.36 102.99 256.6 105.16 361.22 75.16 356.98 72.99" style="fill:#c1c1c1"/><polyline points="430.3 61.09 264.35 108.68 266.58 109.82 432.54 62.23 430.3 61.09" style="fill:#dedede"/><polyline points="442.57 67.36 276.61 114.95 278.84 116.09 444.8 68.5 442.57 67.36" style="fill:#dedede"/><polyline points="359.49 86.14 270.29 111.72 272.52 112.86 361.72 87.28 359.49 86.14" style="fill:#dedede"/><path d="M298,119.89l-.86-.45,51.62-14.8.87.44L298,119.89m54.85-19.39-67,19.2,8.6,4.4,67-19.21-8.6-4.39" style="fill:#697e8f"/><polyline points="348.8 104.64 297.18 119.44 298.04 119.89 349.67 105.08 348.8 104.64" style="fill:#fff"/><path d="M196.9,126.25l-2.62-1.34c-.53-.27-.54-.61,0-.76a3.08,3.08,0,0,1,1.9.23l1.66.85,11.5-3.3a3,3,0,0,1,1.9.22l2.23,1.14,10.88-3.12a2.68,2.68,0,0,1,1.2,0,2,2,0,0,1,1,.42l3.68,3.76,8.39,2.41a1.27,1.27,0,0,1,.79.48c.1.19,0,.35-.35.44L224.08,132a1.63,1.63,0,0,1-.42.06h-.59l-.08,0h0a2.87,2.87,0,0,1-.7-.2h0l-.07,0L220,130.6l-7.46,2.14,14.43,7.37c.53.27.54.61,0,.76a3,3,0,0,1-1.89-.22l-15.4-7.87-12.77-6.53m28.18-21.11L162.94,123l55.83,28.54,62.14-17.82-55.83-28.53" style="fill:#fff"/><path d="M223.33,132h0m-.13,0h0m-.11,0h0m-.1,0,.08,0-.08,0m-.71-.2a2.87,2.87,0,0,0,.7.2,2.74,2.74,0,0,1-.7-.2M220,130.6l2.23,1.14.07,0-.07,0L220,130.6m4.36-10.43-10.88,3.12L224,128.68c.28.14.42.31.41.45l.07,2.5c0,.14-.13.26-.38.33L239,127.68c.31-.09.45-.25.35-.44a1.27,1.27,0,0,0-.79-.48l-8.39-2.41-3.68-3.76a2,2,0,0,0-1-.42,2.68,2.68,0,0,0-1.2,0" style="fill:#fc495c"/><path d="M224.39,129.13c0,.13-.14.24-.38.31l-4,1.16,2.23,1.14.07,0h0a2.74,2.74,0,0,0,.7.2h0l.08,0h.59a1.63,1.63,0,0,0,.42-.06c.25-.07.39-.19.38-.33l-.07-2.5" style="fill:#d12657"/><path d="M209.31,121.93l-11.5,3.3,14.69,7.51L220,130.6l4-1.16c.24-.07.37-.18.38-.31s-.13-.31-.41-.45l-10.54-5.39-2.23-1.14a3,3,0,0,0-1.9-.22" style="fill:#fd6b82"/><path d="M194.25,124.15c-.51.15-.5.49,0,.76l2.62,1.34,12.77,6.53,15.4,7.87a3,3,0,0,0,1.89.22c.51-.15.5-.49,0-.76l-14.43-7.37-14.69-7.51-1.66-.85a3.08,3.08,0,0,0-1.9-.23" style="fill:#a4b0be"/></g></g><g style="isolation:isolate"><g style="clip-path:url(#clip-path-2)"><path d="M462.16,166.28c-1,.38-1.14,1.15-.23,1.72a4.47,4.47,0,0,0,3.51.36c1-.38,1.14-1.15.24-1.72a4.58,4.58,0,0,0-3.52-.36" style="fill:#7381ff"/><path d="M466.39,169a7.14,7.14,0,0,1-5.55-.56c-1.43-.91-1.26-2.13.37-2.72a7.14,7.14,0,0,1,5.55.56c1.43.91,1.26,2.13-.37,2.72m-5.76-3.65c-2,.73-2.2,2.22-.45,3.33a8.71,8.71,0,0,0,6.79.69c2-.73,2.21-2.22.46-3.33a8.74,8.74,0,0,0-6.8-.69" style="fill:#7381ff"/></g></g></svg>