<svg xmlns="http://www.w3.org/2000/svg" viewBox="0 0 516 214" width="516" height="214">
	<defs>
		<linearGradient id="grd1" gradientUnits="userSpaceOnUse"  x1="0.85" y1="119.869" x2="514.559" y2="119.869">
			<stop offset="0" stop-color="#94c2ff"  />
			<stop offset="1" stop-color="#6570d7"  />
		</linearGradient>
	</defs>
	<style>
		tspan { white-space:pre }
		.shp0 { fill: url(#grd1) } 
		.shp1 { fill: #444444 } 
		.shp2 { fill: #f4f4f4 } 
		.shp3 { fill: #ed4e38 } 
		.shp4 { fill: #5b5b5b } 
		.shp5 { fill: #64c880 } 
		.shp6 { fill: #ffffff } 
		.shp7 { fill: #bfbebe } 
		.shp8 { fill: #000000 } 
		.shp9 { fill: #fec4d3 } 
		.shp10 { fill: #dedede } 
		.shp11 { fill: #fc527e } 
		.shp12 { fill: #ffe3ec } 
		.shp13 { fill: #697e8f } 
		.shp14 { fill: #717171 } 
		.shp15 { fill: #eaeaea } 
		.shp16 { fill: #fafafa } 
		.shp17 { fill: #fb99a3 } 
		.shp18 { fill: #e386a1 } 
		.shp19 { fill: #fcabb8 } 
		.shp20 { fill: #cbd1d9 } 
		.shp21 { fill: #c1c1c1 } 
		.shp22 { fill: #fc495c } 
		.shp23 { fill: #d12657 } 
		.shp24 { fill: #fd6b82 } 
		.shp25 { fill: #a4b0be } 
		.shp26 { fill: #7381ff } 
	</style>
	<path id="Layer" class="shp0" d="M513.59 127.11C513.45 127.43 513.28 127.73 513.07 128.01C512.87 128.29 512.64 128.55 512.38 128.78C512.12 129.01 511.83 129.21 511.53 129.38C511.22 129.54 510.9 129.67 510.57 129.77L236.59 208.7C230.23 211.07 220.24 209.81 214.32 206.54L5.43 99.22C-0.58 95.51 0.91 86.97 1.32 86.15C1.48 85.82 1.79 84.64 2.15 84.58L276.08 29.87C276.22 29.84 276.37 29.82 276.51 29.82C276.65 29.81 276.8 29.81 276.94 29.83C277.08 29.84 277.23 29.87 277.37 29.9C277.5 29.93 277.64 29.98 277.78 30.03L510.41 113.53C510.7 113.63 510.99 113.77 511.26 113.93C511.53 114.09 511.78 114.28 512.02 114.49C512.25 114.7 512.46 114.94 512.64 115.19C512.83 115.45 512.99 115.72 513.12 116.01C514.17 118.33 515.51 122.68 513.59 127.11Z" />
	<g id="Layer">
		<g id="Layer">
			<path id="Layer" fill-rule="evenodd" class="shp1" d="M305.49 8.09L63.35 77.52L5.58 94.09L45.48 114.48L-10.28 85.99L289.65 0L305.49 8.09ZM215.29 201.28C216.92 202.11 218.62 202.78 220.37 203.29C222.12 203.8 223.91 204.15 225.73 204.33C226.65 204.42 227.59 204.46 228.52 204.46C227.57 204.46 226.63 204.42 225.69 204.33C223.88 204.15 222.08 203.8 220.33 203.29C218.58 202.78 216.88 202.11 215.26 201.28L45.48 114.48L215.29 201.28ZM228.52 204.46C229.4 204.46 230.27 204.42 231.15 204.34C232.97 204.18 234.76 203.84 236.52 203.34L525.4 120.47L236.55 203.34C234.8 203.84 233 204.18 231.19 204.34C230.3 204.42 229.41 204.46 228.52 204.46ZM20.79 85.55C22.02 85.18 21.99 84.39 20.73 83.74C20.38 83.58 20.02 83.44 19.65 83.33C19.28 83.23 18.9 83.15 18.51 83.11C18.13 83.06 17.75 83.05 17.36 83.07C16.98 83.09 16.59 83.14 16.22 83.22C14.98 83.58 15.01 84.38 16.27 85.02C16.62 85.18 16.98 85.32 17.35 85.42C17.73 85.53 18.1 85.61 18.49 85.65C18.87 85.7 19.26 85.71 19.64 85.69C20.03 85.68 20.41 85.63 20.79 85.55ZM28 83.47C29.22 83.11 29.19 82.31 27.93 81.67C27.58 81.5 27.22 81.37 26.85 81.26C26.48 81.16 26.1 81.08 25.72 81.03C25.34 80.99 24.95 80.97 24.57 80.99C24.18 81.01 23.8 81.05 23.42 81.13C22.19 81.5 22.22 82.3 23.48 82.94C23.83 83.11 24.19 83.24 24.56 83.35C24.93 83.46 25.31 83.53 25.7 83.58C26.08 83.62 26.47 83.64 26.85 83.62C27.24 83.6 27.62 83.55 28 83.47ZM13.55 87.62C14.78 87.26 14.76 86.46 13.49 85.82C13.14 85.65 12.78 85.52 12.41 85.41C12.04 85.3 11.66 85.23 11.27 85.18C10.89 85.14 10.5 85.13 10.12 85.14C9.73 85.16 9.35 85.21 8.97 85.29C7.75 85.65 7.77 86.45 9.03 87.09C9.38 87.26 9.74 87.39 10.11 87.5C10.48 87.61 10.86 87.68 11.25 87.73C11.63 87.77 12.02 87.79 12.4 87.77C12.79 87.75 13.17 87.7 13.55 87.62Z" />
			<path id="Layer" fill-rule="evenodd" class="shp2" d="M517.73 116.55C518.34 116.87 518.84 117.35 519.17 117.95C519.49 118.55 519.63 119.23 519.57 119.91C519.5 120.59 519.23 121.23 518.79 121.76C518.36 122.28 517.77 122.66 517.12 122.85L236.55 203.3C234.8 203.8 233 204.14 231.19 204.31C230.29 204.39 229.4 204.43 228.51 204.43C229.38 204.43 230.26 204.39 231.13 204.31C232.95 204.14 234.74 203.8 236.5 203.3L283.22 189.91L63.35 77.53L305.51 8.11L517.73 116.55ZM225.67 204.29C223.85 204.11 222.06 203.77 220.31 203.26C218.56 202.74 216.86 202.07 215.24 201.24L5.58 94.09L215.29 201.24C216.92 202.07 218.62 202.74 220.37 203.26C222.12 203.77 223.91 204.11 225.73 204.29C226.65 204.38 227.58 204.43 228.51 204.43C227.56 204.43 226.61 204.38 225.67 204.29ZM309.45 130.99L338.53 122.66L330.33 118.48L301.24 126.81L309.45 131.03M328.03 117.29L326.5 116.5L257.37 136.32L258.91 137.1L328.03 117.29ZM291.71 124.23L290.16 123.44L253.01 134.09L254.55 134.88L291.71 124.23ZM323.67 115.06L322.14 114.28L293.05 122.61L294.59 123.4L323.67 115.06ZM319.58 112.94L318.04 112.16L248.91 131.97L250.45 132.77L319.58 112.94ZM239.79 150.98L262.85 144.37L242.15 133.8L219.08 140.4L239.75 150.96M244.83 129.91L244.83 129.9L244.81 129.91M244.83 129.9L281.99 119.25L273.78 115.06L236.63 125.71L244.83 129.9ZM284.85 118.45L313.94 110.11L305.74 105.92L276.65 114.23L284.85 118.43M234.31 124.54L303.44 104.72L301.9 103.93L232.78 123.75L234.3 124.56M267.14 111.65L265.6 110.87L228.45 121.52L229.99 122.31L267.14 111.65ZM270.02 110.83L299.11 102.49L297.57 101.7L268.49 110.04C268.49 110.04 270.02 110.83 270.02 110.83ZM295.01 100.38L293.47 99.59L224.35 119.41L225.88 120.2L295.01 100.38ZM236.52 130.89L215.82 120.31L192.76 126.91L213.46 137.49L236.52 130.89ZM219.21 116.57L256.37 105.92L248.18 101.75L211.02 112.4L219.23 116.55M288.34 96.75L280.15 92.57L251.05 100.9L259.25 105.09L288.34 96.75ZM277.83 91.39L276.3 90.6L207.17 110.42L208.71 111.2L277.83 91.39ZM204.37 109L241.53 98.35L239.98 97.56L202.84 108.19L204.38 108.97M273.49 89.18L271.95 88.4L242.87 96.73L244.4 97.52L273.49 89.18ZM200.27 106.88L269.39 87.06L267.85 86.28L198.73 106.1C198.73 106.1 200.27 106.88 200.27 106.88ZM188.02 124.51L211.08 117.9L190.37 107.32L167.31 113.92C167.31 113.92 188.02 124.51 188.02 124.51ZM260.56 75.56L254.36 72.39L206.08 86.23L212.27 89.4L260.56 75.56ZM200.95 83.68L320.58 49.39L318.98 48.57L199.34 82.86L200.98 83.63M104.7 82.13L310.88 23.05L310.75 22.99L104.57 82.07L104.7 82.14M192.12 79.19L311.75 44.9L310.14 44.08L190.51 78.37L192.12 79.19M184.94 75.78L260.33 54.16L257.28 52.6L181.87 74.22L184.92 75.84M157.66 109.19L202.44 96.35L162.21 75.79L117.43 88.63L157.68 109.16M260.68 62.92L259.07 62.1L194.79 80.53L196.4 81.36L260.68 62.92ZM118.23 72.31L116.4 71.38L95.46 77.39L97.29 78.32L118.23 72.31ZM149.69 63.29L170.63 57.29L168.8 56.35L147.86 62.36C147.86 62.36 149.69 63.29 149.69 63.29ZM199.34 49.06L199.32 49.05L199.29 49.06M199.32 49.05L220.24 43.06L218.41 42.12L197.46 48.12L199.32 49.05ZM269.42 142.51L306.57 131.86L298.36 127.64L261.21 138.29L269.42 142.47" />
			<path id="Layer" class="shp3" d="M8.97 85.29C7.75 85.64 7.77 86.45 9.03 87.09C9.38 87.26 9.74 87.39 10.11 87.5C10.48 87.61 10.86 87.68 11.25 87.73C11.63 87.77 12.02 87.79 12.4 87.77C12.79 87.75 13.17 87.7 13.55 87.62C14.78 87.27 14.76 86.46 13.49 85.82C13.14 85.65 12.78 85.52 12.41 85.41C12.04 85.3 11.66 85.23 11.27 85.18C10.89 85.14 10.5 85.13 10.12 85.14C9.73 85.16 9.35 85.21 8.97 85.29" />
			<path id="Layer" class="shp4" d="M16.22 83.22C14.98 83.57 15.01 84.38 16.27 85.02C16.62 85.18 16.98 85.32 17.35 85.42C17.73 85.53 18.1 85.61 18.49 85.65C18.87 85.7 19.26 85.71 19.64 85.69C20.03 85.68 20.41 85.63 20.79 85.55C22.02 85.2 21.99 84.39 20.73 83.74C20.38 83.58 20.02 83.44 19.65 83.33C19.28 83.23 18.9 83.15 18.51 83.11C18.13 83.06 17.75 83.05 17.36 83.07C16.98 83.09 16.59 83.14 16.22 83.22" />
			<path id="Layer" class="shp5" d="M23.46 81.13C22.23 81.49 22.25 82.3 23.52 82.94C23.86 83.11 24.23 83.24 24.6 83.35C24.97 83.46 25.35 83.53 25.73 83.58C26.11 83.62 26.5 83.64 26.89 83.62C27.27 83.6 27.66 83.55 28.03 83.47C29.26 83.12 29.23 82.31 27.97 81.67C27.62 81.5 27.26 81.37 26.89 81.26C26.52 81.16 26.14 81.08 25.76 81.03C25.37 80.99 24.99 80.97 24.6 80.99C24.22 81.01 23.84 81.05 23.46 81.13Z" />
			<path id="Layer" fill-rule="evenodd" class="shp6" d="M283.22 189.91L236.55 203.31C234.8 203.82 233 204.15 231.19 204.32C229.37 204.49 227.54 204.48 225.73 204.31C223.91 204.13 222.12 203.78 220.37 203.27C218.62 202.76 216.92 202.08 215.29 201.25L5.58 94.1L63.35 77.53L283.22 189.91ZM64.14 114.73C65.13 114.47 65.11 113.82 64.09 113.29C63.81 113.16 63.51 113.05 63.21 112.96C62.91 112.88 62.6 112.82 62.29 112.78C61.98 112.74 61.66 112.73 61.35 112.75C61.04 112.76 60.73 112.8 60.42 112.87C59.43 113.12 59.46 113.79 60.48 114.31C60.76 114.44 61.05 114.55 61.36 114.64C61.66 114.72 61.96 114.79 62.27 114.82C62.58 114.86 62.9 114.87 63.21 114.86C63.52 114.84 63.83 114.8 64.14 114.74M60.74 112.94C61 112.88 61.26 112.85 61.52 112.84C61.79 112.83 62.05 112.84 62.31 112.87C62.58 112.9 62.84 112.95 63.09 113.03C63.34 113.1 63.59 113.19 63.83 113.3C64.65 113.74 64.67 114.3 63.83 114.54C63.57 114.59 63.31 114.62 63.05 114.64C62.78 114.65 62.52 114.64 62.26 114.61C62 114.58 61.74 114.53 61.48 114.45C61.23 114.38 60.98 114.29 60.75 114.18C59.89 113.74 59.86 113.18 60.7 112.94M51.05 108.29C51.09 108.28 51.14 108.26 51.19 108.24C51.24 108.23 51.29 108.21 51.33 108.18C51.38 108.16 51.42 108.13 51.46 108.1C51.5 108.07 51.54 108.04 51.58 108L53.88 108.46C53.9 108.46 53.92 108.46 53.94 108.46C53.96 108.46 53.98 108.46 54 108.46C54.02 108.46 54.04 108.46 54.06 108.46C54.08 108.46 54.1 108.46 54.12 108.46L54.17 108.46L54.24 108.41C54.27 108.34 54.16 108.22 53.99 108.22L51.69 107.78C51.74 107.33 50.94 106.83 49.81 106.61C49.64 106.57 49.47 106.54 49.3 106.52C49.13 106.51 48.96 106.5 48.79 106.5C48.61 106.5 48.44 106.51 48.27 106.52C48.1 106.54 47.93 106.57 47.76 106.61C47.7 106.62 47.64 106.64 47.58 106.66C47.52 106.68 47.47 106.71 47.41 106.75C47.36 106.78 47.31 106.82 47.27 106.86C47.23 106.91 47.19 106.96 47.15 107.01C47.04 107.22 47.18 107.48 47.52 107.73C47.63 107.8 47.74 107.86 47.86 107.92C47.97 107.98 48.09 108.03 48.21 108.08C48.34 108.12 48.46 108.16 48.58 108.2C48.71 108.23 48.83 108.26 48.96 108.28C49.13 108.32 49.3 108.35 49.47 108.37C49.64 108.39 49.81 108.4 49.99 108.4C50.16 108.4 50.33 108.39 50.5 108.37C50.67 108.35 50.84 108.32 51.01 108.28M34.51 102.24L74.72 90.72L74.6 90.65L34.38 102.18C34.38 102.18 34.51 102.24 34.51 102.24ZM50.43 93.63L50.83 93.51L50.56 93.35C50.64 93.37 50.73 93.39 50.82 93.4C50.91 93.41 51 93.41 51.1 93.41C51.19 93.41 51.28 93.41 51.37 93.4C51.46 93.39 51.55 93.37 51.64 93.35C51.94 93.27 52.09 93.14 52 92.96C51.9 92.79 51.68 92.6 51.28 92.39C51.18 92.34 51.08 92.3 50.98 92.25C50.88 92.21 50.78 92.17 50.67 92.14C50.57 92.1 50.46 92.07 50.36 92.04C50.25 92.01 50.14 91.99 50.04 91.97C49.95 91.95 49.86 91.93 49.77 91.92C49.68 91.91 49.59 91.91 49.5 91.91C49.4 91.91 49.31 91.91 49.22 91.92C49.13 91.93 49.04 91.95 48.96 91.97C48.65 92.06 48.52 92.19 48.56 92.34L47.19 91.62L46.76 91.75L50.44 93.63M42.61 95.9C43.07 95.79 43.19 95.61 43.07 95.38L42.6 95.38C42.61 95.39 42.61 95.41 42.62 95.43C42.62 95.45 42.62 95.46 42.62 95.48C42.62 95.5 42.62 95.52 42.62 95.54C42.61 95.55 42.61 95.57 42.6 95.59C42.58 95.61 42.56 95.63 42.54 95.64C42.51 95.66 42.49 95.68 42.46 95.69C42.44 95.7 42.41 95.71 42.39 95.72C42.36 95.73 42.33 95.74 42.3 95.75C42.24 95.76 42.18 95.77 42.11 95.77C42.05 95.78 41.99 95.78 41.92 95.78C41.86 95.78 41.79 95.78 41.73 95.77C41.67 95.77 41.6 95.76 41.54 95.75C41.47 95.74 41.39 95.73 41.32 95.71C41.25 95.7 41.18 95.68 41.11 95.66C41.04 95.64 40.97 95.61 40.9 95.58C40.84 95.56 40.77 95.53 40.7 95.49L42.41 95L42.23 94.91C42.13 94.86 42.04 94.81 41.94 94.77C41.84 94.73 41.73 94.69 41.63 94.65C41.53 94.62 41.42 94.59 41.32 94.56C41.21 94.54 41.11 94.52 41 94.5C40.91 94.48 40.82 94.47 40.72 94.47C40.63 94.46 40.54 94.46 40.44 94.46C40.35 94.47 40.26 94.48 40.17 94.49C40.08 94.51 39.99 94.52 39.9 94.55C39.86 94.56 39.82 94.57 39.78 94.58C39.75 94.59 39.71 94.61 39.68 94.63C39.64 94.65 39.61 94.68 39.58 94.7C39.56 94.73 39.53 94.76 39.51 94.79C39.49 94.82 39.49 94.86 39.48 94.89C39.48 94.92 39.48 94.95 39.49 94.99C39.5 95.02 39.51 95.05 39.53 95.08C39.54 95.11 39.56 95.13 39.59 95.15C39.62 95.2 39.66 95.24 39.71 95.27C39.75 95.31 39.79 95.35 39.84 95.38C39.88 95.41 39.93 95.44 39.98 95.47C40.03 95.5 40.08 95.52 40.13 95.54L40.21 95.59C40.31 95.64 40.41 95.68 40.51 95.72C40.61 95.77 40.72 95.8 40.82 95.83C40.92 95.87 41.03 95.89 41.14 95.92C41.24 95.94 41.35 95.96 41.46 95.97C41.56 95.98 41.66 95.99 41.76 96C41.86 96 41.96 96 42.05 96C42.15 95.99 42.25 95.98 42.35 95.97C42.45 95.95 42.55 95.93 42.64 95.9M31.48 99.12L31.94 98.99L31.35 98.43L32.79 98.01L34.02 98.39L34.48 98.26L29.69 96.82L29.3 96.93L31.46 99.09M175.76 142.34L168.64 138.7L128.42 150.23L135.55 153.87L175.76 142.34ZM163.44 136.04L156.32 132.4L116.11 143.93L123.23 147.57L163.44 136.04ZM151.1 129.73L143.98 126.09L103.78 137.62L110.89 141.26L151.1 129.73ZM138.76 123.43L131.64 119.79L91.44 131.32L98.55 134.96L138.76 123.43ZM82.96 126.98L123.16 115.45L123.03 115.39L82.83 126.92L82.96 126.99M82.73 117.45L100.28 112.4L98.75 111.63L81.2 116.67C81.2 116.67 82.73 117.45 82.73 117.45ZM71.66 118.85L71.12 118.85L71.01 118.9L71.01 119.14L71.12 119.21L71.69 119.34C71.7 119.35 71.71 119.36 71.72 119.37C71.73 119.38 71.74 119.39 71.75 119.4C71.76 119.42 71.77 119.43 71.78 119.44C71.79 119.45 71.8 119.46 71.81 119.47L71.5 119.64C71.44 119.66 71.45 119.72 71.5 119.72L71.94 119.93C71.95 119.94 71.97 119.95 71.98 119.95C71.99 119.96 72.01 119.96 72.02 119.97C72.04 119.97 72.06 119.97 72.07 119.97C72.09 119.97 72.1 119.97 72.12 119.97L72.65 119.9L72.98 120L73.1 120.21L73.26 120.28L73.86 120.34L74.01 120.34L74.13 120.16L74.45 120.16L74.98 120.35C74.99 120.36 75.01 120.36 75.03 120.36C75.04 120.36 75.06 120.36 75.08 120.36C75.09 120.36 75.11 120.36 75.12 120.36C75.14 120.36 75.16 120.36 75.17 120.35L75.59 120.23C75.59 120.21 75.63 120.16 75.59 120.16L75.28 119.9C75.29 119.9 75.3 119.89 75.31 119.88C75.32 119.87 75.33 119.86 75.35 119.85C75.36 119.84 75.37 119.83 75.38 119.82C75.38 119.81 75.39 119.8 75.4 119.79L75.91 119.79L76.02 119.75L76.02 119.5L75.9 119.43L75.4 119.32C75.39 119.31 75.38 119.3 75.37 119.28C75.36 119.27 75.35 119.26 75.34 119.25C75.33 119.23 75.32 119.22 75.3 119.21C75.29 119.2 75.28 119.19 75.27 119.18L75.57 119C75.63 118.99 75.62 118.92 75.57 118.92L75.13 118.7C75.11 118.7 75.1 118.69 75.08 118.69C75.07 118.69 75.05 118.69 75.04 118.69C75.02 118.69 75 118.69 74.99 118.69C74.97 118.69 74.96 118.7 74.94 118.7L74.42 118.77L74.09 118.67L73.96 118.45L73.8 118.38L73.21 118.31L73.06 118.31L72.94 118.51L72.61 118.51L72.09 118.32C72.07 118.32 72.06 118.31 72.04 118.31C72.03 118.31 72.01 118.31 71.99 118.31C71.98 118.31 71.96 118.31 71.95 118.31C71.93 118.31 71.92 118.32 71.9 118.32L71.48 118.44C71.48 118.46 71.48 118.51 71.48 118.51L71.8 118.77C71.79 118.77 71.78 118.78 71.76 118.79C71.75 118.8 71.74 118.81 71.73 118.82C71.72 118.83 71.71 118.84 71.7 118.85C71.69 118.86 71.68 118.88 71.67 118.89M71.56 111.38L89.1 106.34L87.57 105.55L70.03 110.6L71.56 111.37M62.27 113.85L62.99 113.64C63.07 113.62 63.07 113.57 62.99 113.53C62.97 113.52 62.95 113.52 62.92 113.51C62.9 113.51 62.87 113.51 62.85 113.51C62.83 113.51 62.8 113.51 62.78 113.51C62.75 113.52 62.73 113.52 62.71 113.53L62.26 113.65L61.4 113.21C61.38 113.2 61.35 113.2 61.33 113.19C61.3 113.19 61.28 113.19 61.25 113.19C61.23 113.19 61.2 113.19 61.18 113.19C61.15 113.2 61.13 113.2 61.11 113.21C61.03 113.23 61.03 113.28 61.11 113.33L62.26 113.91M77.57 100.49L76.04 99.7L58.5 104.74L60.03 105.53L77.57 100.49ZM48.16 106.77C48.28 106.74 48.41 106.72 48.54 106.71C48.67 106.69 48.8 106.69 48.93 106.69C49.06 106.69 49.19 106.69 49.32 106.71C49.45 106.72 49.58 106.74 49.7 106.77C50.64 106.95 51.26 107.39 51.1 107.74C51.07 107.78 51.04 107.82 51 107.85C50.97 107.88 50.93 107.91 50.89 107.94C50.85 107.96 50.81 107.98 50.77 108C50.73 108.02 50.68 108.03 50.63 108.04C50.51 108.07 50.38 108.09 50.25 108.1C50.12 108.12 49.99 108.12 49.86 108.12C49.73 108.12 49.6 108.12 49.47 108.1C49.34 108.09 49.21 108.07 49.08 108.04C48.16 107.85 47.53 107.42 47.69 107.06C47.72 107.02 47.75 106.99 47.78 106.95C47.82 106.92 47.85 106.89 47.89 106.86C47.93 106.84 47.97 106.82 48.02 106.8C48.06 106.78 48.11 106.77 48.16 106.76M45.96 93.4L46.4 93.28C46.26 93.22 46.24 93.16 46.26 93.09C46.28 93.01 46.38 92.96 46.53 92.91C46.57 92.9 46.61 92.89 46.66 92.88C46.7 92.87 46.75 92.87 46.79 92.86C46.84 92.86 46.89 92.86 46.93 92.86C46.98 92.86 47.02 92.86 47.07 92.87C47.11 92.88 47.15 92.88 47.2 92.89C47.24 92.9 47.28 92.91 47.32 92.92C47.36 92.94 47.41 92.95 47.45 92.97C47.49 92.98 47.53 93 47.56 93.02L47.7 93.12L47.28 93.24C46.92 93.35 46.7 93.46 46.66 93.6C46.61 93.73 46.72 93.87 46.99 94.01C47.05 94.04 47.11 94.07 47.18 94.09C47.24 94.11 47.3 94.14 47.37 94.15C47.44 94.17 47.5 94.19 47.57 94.2C47.64 94.21 47.71 94.22 47.77 94.22C47.84 94.23 47.91 94.24 47.98 94.24C48.05 94.24 48.12 94.23 48.19 94.23C48.26 94.22 48.33 94.21 48.4 94.2C48.47 94.19 48.54 94.17 48.61 94.15C48.89 94.07 49.01 93.95 49.01 93.79C49.04 93.8 49.07 93.81 49.09 93.82C49.12 93.83 49.15 93.84 49.17 93.85C49.2 93.86 49.23 93.87 49.25 93.88C49.28 93.89 49.31 93.9 49.34 93.91L49.8 93.78C49.74 93.76 49.68 93.75 49.63 93.73C49.57 93.71 49.51 93.69 49.46 93.66C49.4 93.64 49.35 93.62 49.29 93.59C49.24 93.57 49.19 93.54 49.14 93.51L47.95 92.91C47.88 92.87 47.81 92.84 47.74 92.82C47.66 92.79 47.59 92.77 47.52 92.75C47.44 92.72 47.37 92.71 47.29 92.69C47.22 92.68 47.14 92.67 47.07 92.66C46.99 92.65 46.91 92.65 46.84 92.65C46.76 92.65 46.69 92.65 46.61 92.66C46.53 92.67 46.46 92.68 46.38 92.69C46.31 92.7 46.23 92.72 46.16 92.74C46.12 92.75 46.09 92.76 46.05 92.77C46.01 92.79 45.98 92.8 45.95 92.82C45.91 92.84 45.88 92.86 45.85 92.88C45.82 92.9 45.78 92.92 45.76 92.94C45.74 92.96 45.72 92.97 45.71 92.99C45.69 93.01 45.68 93.03 45.68 93.06C45.67 93.08 45.67 93.1 45.67 93.13C45.67 93.15 45.67 93.17 45.68 93.19C45.69 93.22 45.7 93.24 45.72 93.27C45.74 93.29 45.76 93.31 45.78 93.33C45.8 93.35 45.82 93.37 45.85 93.38C45.87 93.4 45.89 93.41 45.92 93.43M35.9 97.87C35.94 97.86 35.97 97.86 36.01 97.84C36.04 97.83 36.07 97.82 36.1 97.8C36.13 97.79 36.16 97.77 36.19 97.75C36.22 97.72 36.25 97.7 36.27 97.68C36.29 97.66 36.3 97.64 36.32 97.62C36.33 97.6 36.34 97.57 36.34 97.55C36.35 97.52 36.35 97.5 36.35 97.47C36.34 97.45 36.34 97.43 36.33 97.4C36.31 97.37 36.29 97.35 36.27 97.32C36.25 97.3 36.23 97.27 36.21 97.25C36.18 97.23 36.16 97.21 36.13 97.19C36.11 97.17 36.08 97.16 36.05 97.14L35.64 97.26C35.8 97.34 35.82 97.41 35.8 97.5C35.78 97.58 35.7 97.65 35.55 97.69C35.49 97.71 35.42 97.72 35.36 97.72C35.3 97.73 35.23 97.73 35.17 97.73C35.1 97.73 35.04 97.73 34.98 97.72C34.91 97.72 34.85 97.71 34.79 97.69C34.71 97.68 34.64 97.66 34.56 97.64C34.49 97.62 34.41 97.6 34.34 97.57C34.27 97.54 34.2 97.52 34.12 97.49C34.05 97.46 33.98 97.42 33.91 97.39L33.84 97.34C33.53 97.19 33.35 97.05 33.31 96.93C33.27 96.82 33.36 96.73 33.58 96.67C33.62 96.66 33.67 96.64 33.72 96.64C33.77 96.63 33.81 96.62 33.86 96.62C33.91 96.62 33.96 96.62 34.01 96.62C34.06 96.62 34.1 96.62 34.15 96.63C34.2 96.64 34.26 96.64 34.31 96.65C34.36 96.66 34.41 96.67 34.46 96.68C34.51 96.7 34.56 96.71 34.61 96.73C34.66 96.74 34.7 96.76 34.75 96.78L35.16 96.67C35.08 96.63 35.01 96.6 34.93 96.57C34.85 96.54 34.76 96.52 34.68 96.5C34.6 96.47 34.52 96.46 34.43 96.44C34.35 96.43 34.27 96.42 34.18 96.41C34.1 96.4 34.02 96.39 33.94 96.39C33.86 96.39 33.78 96.39 33.69 96.4C33.61 96.4 33.53 96.41 33.45 96.43C33.37 96.44 33.29 96.46 33.22 96.48C33.17 96.49 33.13 96.5 33.09 96.51C33.05 96.53 33.01 96.54 32.97 96.57C32.94 96.59 32.9 96.61 32.87 96.64C32.83 96.67 32.8 96.7 32.78 96.73C32.76 96.76 32.75 96.79 32.75 96.82C32.75 96.85 32.75 96.89 32.75 96.92C32.76 96.95 32.77 96.98 32.79 97.01C32.8 97.03 32.82 97.06 32.85 97.08C32.89 97.12 32.93 97.16 32.97 97.19C33.01 97.23 33.05 97.26 33.1 97.3C33.14 97.33 33.19 97.36 33.24 97.39C33.29 97.41 33.34 97.44 33.39 97.46L33.46 97.46C33.56 97.51 33.66 97.56 33.77 97.6C33.87 97.65 33.97 97.68 34.08 97.72C34.19 97.75 34.3 97.78 34.41 97.81C34.52 97.83 34.63 97.85 34.74 97.87C34.83 97.89 34.93 97.9 35.03 97.9C35.13 97.91 35.23 97.91 35.32 97.91C35.42 97.9 35.52 97.89 35.62 97.88C35.71 97.86 35.81 97.84 35.9 97.81M37.02 95.75C37.01 95.73 37 95.72 37 95.7C37.01 95.71 37.01 95.71 37.02 95.71M37 95.7C36.91 95.68 36.83 95.66 36.74 95.65C36.64 95.64 36.54 95.63 36.45 95.63C36.35 95.63 36.25 95.64 36.16 95.65C36.06 95.66 35.97 95.68 35.87 95.71C35.57 95.8 35.42 95.93 35.46 96.09L35.16 95.95L34.75 96.07L37.35 97.4L37.78 97.27L35.86 96.33C35.72 96.18 35.8 96.06 36.08 95.98C36.17 95.95 36.26 95.93 36.36 95.93C36.45 95.92 36.55 95.92 36.64 95.93C36.74 95.95 36.83 95.97 36.92 96C37.01 96.03 37.1 96.07 37.18 96.11L38.88 96.98L39.31 96.85L37.59 95.98C37.45 95.88 37.37 95.8 37.38 95.72C37.39 95.64 37.47 95.57 37.63 95.53C37.68 95.52 37.72 95.5 37.77 95.49C37.82 95.49 37.86 95.48 37.91 95.47C37.95 95.47 38 95.47 38.05 95.47C38.1 95.47 38.14 95.47 38.19 95.48C38.24 95.49 38.28 95.49 38.33 95.5C38.37 95.52 38.42 95.53 38.47 95.54C38.51 95.56 38.56 95.57 38.6 95.59C38.64 95.61 38.69 95.63 38.73 95.65L40.44 96.53L40.87 96.41L39.13 95.51C39 95.44 38.86 95.38 38.72 95.34C38.57 95.29 38.43 95.26 38.28 95.24C38.13 95.22 37.98 95.22 37.83 95.23C37.68 95.24 37.53 95.26 37.38 95.3C37.35 95.3 37.31 95.31 37.28 95.32C37.25 95.34 37.22 95.35 37.19 95.37C37.15 95.38 37.13 95.4 37.1 95.42C37.07 95.44 37.04 95.47 37.02 95.49C37.01 95.51 37 95.53 36.99 95.55C36.99 95.57 36.98 95.6 36.98 95.62C36.98 95.64 36.99 95.66 36.99 95.68C36.99 95.69 37 95.7 37 95.7ZM40.3 94.64C40.35 94.63 40.4 94.62 40.45 94.62C40.51 94.61 40.56 94.61 40.61 94.61C40.66 94.61 40.71 94.61 40.77 94.62C40.82 94.62 40.87 94.63 40.92 94.64C40.98 94.65 41.04 94.66 41.11 94.67C41.17 94.69 41.23 94.7 41.29 94.72C41.35 94.74 41.41 94.76 41.47 94.78C41.53 94.8 41.58 94.83 41.64 94.86L41.68 94.86L40.42 95.23C40.21 95.1 40.1 94.98 40.08 94.88C40.07 94.78 40.16 94.7 40.33 94.65M48.13 93.24L48.66 93.51C48.67 93.53 48.68 93.54 48.69 93.56C48.7 93.58 48.7 93.6 48.7 93.62C48.7 93.64 48.7 93.66 48.69 93.68C48.68 93.7 48.67 93.71 48.66 93.73C48.64 93.75 48.62 93.77 48.6 93.79C48.58 93.81 48.56 93.82 48.54 93.84C48.52 93.85 48.49 93.87 48.46 93.88C48.44 93.89 48.41 93.9 48.39 93.9C48.35 93.91 48.31 93.92 48.27 93.92C48.23 93.93 48.19 93.93 48.15 93.94C48.11 93.94 48.07 93.94 48.04 93.94C48 93.94 47.96 93.94 47.92 93.94C47.88 93.93 47.84 93.93 47.8 93.92C47.76 93.92 47.72 93.91 47.68 93.9C47.64 93.88 47.6 93.87 47.57 93.86C47.53 93.84 47.49 93.83 47.46 93.81C47.14 93.65 47.25 93.49 47.77 93.34L48.11 93.24M53.75 92.45C53.7 92.46 53.66 92.47 53.61 92.48C53.56 92.49 53.52 92.5 53.47 92.5C53.42 92.51 53.37 92.51 53.33 92.51C53.28 92.51 53.23 92.51 53.19 92.51C53.14 92.51 53.09 92.5 53.05 92.49C53 92.49 52.96 92.48 52.92 92.47C52.87 92.45 52.83 92.44 52.79 92.42C52.74 92.41 52.7 92.39 52.66 92.37L52.23 92.5C52.27 92.52 52.32 92.54 52.36 92.56C52.41 92.58 52.45 92.59 52.5 92.61C52.55 92.62 52.6 92.64 52.64 92.65C52.69 92.66 52.74 92.67 52.79 92.68C52.84 92.69 52.9 92.7 52.95 92.7C53.01 92.71 53.06 92.72 53.12 92.72C53.17 92.73 53.23 92.73 53.29 92.73C53.34 92.73 53.4 92.73 53.45 92.73C53.51 92.73 53.56 92.73 53.62 92.72C53.67 92.72 53.73 92.71 53.78 92.7C53.83 92.69 53.89 92.68 53.94 92.67C53.99 92.66 54.05 92.65 54.1 92.63C54.39 92.55 54.55 92.45 54.6 92.32C54.64 92.2 54.54 92.08 54.31 91.96C54.27 91.94 54.24 91.93 54.2 91.91C54.17 91.9 54.13 91.88 54.09 91.87C54.05 91.86 54.02 91.85 53.98 91.84C53.94 91.83 53.9 91.82 53.86 91.81C53.82 91.8 53.77 91.8 53.73 91.79C53.68 91.78 53.64 91.78 53.59 91.77C53.54 91.77 53.5 91.77 53.45 91.77C53.41 91.77 53.36 91.77 53.32 91.77C53.25 91.77 53.19 91.77 53.13 91.77C53.07 91.78 53.01 91.78 52.95 91.78C52.89 91.79 52.83 91.8 52.77 91.8C52.71 91.81 52.65 91.82 52.59 91.83C52.55 91.83 52.5 91.84 52.45 91.85C52.4 91.85 52.35 91.86 52.3 91.86C52.25 91.86 52.2 91.87 52.15 91.87C52.1 91.87 52.05 91.87 52 91.88C51.96 91.87 51.93 91.87 51.9 91.87C51.87 91.86 51.84 91.86 51.81 91.85C51.78 91.84 51.75 91.83 51.72 91.82C51.69 91.81 51.66 91.8 51.63 91.79C51.48 91.73 51.46 91.67 51.48 91.61C51.51 91.54 51.59 91.49 51.75 91.45C51.79 91.44 51.83 91.43 51.88 91.42C51.92 91.42 51.96 91.41 52.01 91.41C52.05 91.4 52.09 91.4 52.13 91.4C52.18 91.4 52.22 91.4 52.26 91.41C52.3 91.41 52.34 91.41 52.38 91.42C52.42 91.43 52.46 91.43 52.5 91.44C52.54 91.45 52.58 91.46 52.61 91.48C52.65 91.49 52.69 91.51 52.72 91.52L53.16 91.4C53.1 91.37 53.03 91.34 52.96 91.31C52.89 91.29 52.82 91.27 52.75 91.25C52.67 91.23 52.6 91.21 52.53 91.2C52.45 91.19 52.38 91.18 52.31 91.18C52.23 91.17 52.15 91.17 52.07 91.17C52 91.17 51.92 91.17 51.84 91.18C51.76 91.18 51.69 91.19 51.61 91.21C51.53 91.22 51.46 91.24 51.38 91.26C51.11 91.34 50.97 91.44 50.94 91.57C50.91 91.7 51 91.81 51.21 91.92C51.24 91.94 51.28 91.95 51.31 91.97C51.35 91.98 51.38 91.99 51.42 92.01C51.45 92.02 51.49 92.03 51.53 92.04C51.56 92.05 51.6 92.06 51.64 92.06C51.68 92.07 51.72 92.07 51.77 92.07C51.81 92.08 51.86 92.08 51.9 92.08C51.94 92.08 51.99 92.08 52.03 92.07C52.07 92.07 52.12 92.07 52.16 92.06C52.22 92.06 52.28 92.06 52.34 92.06C52.4 92.06 52.46 92.05 52.52 92.05C52.58 92.04 52.64 92.04 52.7 92.03C52.76 92.02 52.82 92.01 52.88 92.01C52.94 92 52.99 91.99 53.04 91.98C53.09 91.98 53.15 91.97 53.2 91.97C53.25 91.97 53.3 91.96 53.36 91.96C53.41 91.96 53.46 91.96 53.52 91.96C53.55 91.96 53.59 91.97 53.62 91.97C53.66 91.98 53.69 91.98 53.73 91.99C53.76 92 53.8 92.01 53.83 92.02C53.86 92.03 53.9 92.05 53.93 92.06C54.05 92.12 54.08 92.19 54.05 92.25C54.02 92.31 53.93 92.37 53.76 92.42M30.04 97.13L32.25 97.8L31.09 98.13C31.09 98.13 30.04 97.13 30.04 97.13ZM45.33 95.08L47.39 94.48L47.02 94.29L45.4 94.75L42.3 93.19L41.84 93.32L45.34 95.11M49.29 92.09C49.35 92.08 49.41 92.07 49.47 92.06C49.53 92.06 49.59 92.05 49.65 92.05C49.71 92.05 49.78 92.06 49.84 92.06C49.9 92.07 49.96 92.08 50.01 92.09C50.09 92.11 50.17 92.12 50.24 92.15C50.32 92.17 50.39 92.19 50.46 92.22C50.53 92.24 50.61 92.27 50.68 92.3C50.75 92.33 50.82 92.37 50.89 92.4C51.22 92.57 51.41 92.72 51.46 92.83C51.51 92.95 51.43 93.04 51.23 93.1C51.14 93.12 51.05 93.13 50.97 93.14C50.88 93.15 50.79 93.15 50.71 93.15C50.62 93.15 50.53 93.14 50.45 93.12C50.36 93.11 50.28 93.09 50.19 93.06L49.07 92.49C48.93 92.32 49 92.19 49.28 92.11M72.78 118.95C72.91 118.93 73.03 118.91 73.16 118.91C73.29 118.9 73.42 118.91 73.55 118.92C73.68 118.94 73.8 118.96 73.93 119C74.05 119.03 74.17 119.08 74.29 119.13C74.69 119.35 74.7 119.62 74.29 119.73C74.16 119.76 74.03 119.77 73.91 119.78C73.78 119.79 73.65 119.78 73.52 119.77C73.4 119.75 73.27 119.73 73.15 119.69C73.02 119.66 72.9 119.61 72.79 119.56C72.39 119.34 72.38 119.08 72.79 118.95M144.09 158.24L184.3 146.71L144.09 158.24Z" />
			<path id="Layer" class="shp7" d="M74.59 90.65L34.38 102.18L34.51 102.24L74.72 90.72L74.59 90.65" />
			<path id="Layer" class="shp7" d="M310.75 22.95L104.57 82.05L104.7 82.13L310.88 23.01L310.75 22.95" />
			<path id="Layer" class="shp7" d="M123 115.39L82.8 126.92L82.93 126.99L123.13 115.46L123 115.39" />
			<path id="Layer" class="shp8" d="M184.3 146.71L144.09 158.24L184.3 146.71" />
			<path id="Layer" fill-rule="evenodd" class="shp9" d="M47.69 106.63C47.86 106.59 48.03 106.56 48.2 106.54C48.37 106.52 48.54 106.51 48.71 106.51C48.89 106.51 49.06 106.52 49.23 106.54C49.4 106.56 49.57 106.59 49.74 106.63C50.89 106.85 51.66 107.35 51.61 107.79L53.92 108.24C54.09 108.28 54.17 108.35 54.17 108.42L54.09 108.47L54.04 108.47C54.02 108.47 54 108.47 53.99 108.48C53.97 108.48 53.95 108.48 53.93 108.48C53.91 108.48 53.89 108.48 53.87 108.48C53.85 108.47 53.83 108.47 53.81 108.47L51.51 108.02C51.47 108.05 51.43 108.08 51.39 108.11C51.35 108.14 51.3 108.17 51.26 108.2C51.21 108.22 51.17 108.24 51.12 108.26C51.07 108.28 51.02 108.29 50.97 108.3C50.81 108.34 50.64 108.37 50.46 108.39C50.29 108.41 50.12 108.42 49.95 108.42C49.78 108.42 49.61 108.41 49.43 108.39C49.26 108.37 49.09 108.34 48.93 108.3C48.8 108.28 48.67 108.25 48.55 108.22C48.42 108.18 48.3 108.14 48.18 108.1C48.06 108.05 47.94 108 47.82 107.94C47.71 107.88 47.59 107.82 47.48 107.75C47.12 107.51 47 107.25 47.12 107.03C47.15 106.98 47.19 106.93 47.23 106.88C47.28 106.84 47.33 106.8 47.38 106.77C47.43 106.73 47.49 106.7 47.54 106.68C47.6 106.66 47.66 106.64 47.72 106.63M50.61 108.07C50.65 108.07 50.7 108.05 50.74 108.04C50.78 108.02 50.83 108 50.87 107.97C50.9 107.95 50.94 107.92 50.98 107.88C51.01 107.85 51.04 107.82 51.07 107.78C51.23 107.43 50.61 106.99 49.68 106.81C49.55 106.78 49.42 106.76 49.29 106.74C49.16 106.73 49.03 106.72 48.9 106.72C48.77 106.72 48.64 106.73 48.51 106.74C48.38 106.76 48.25 106.78 48.13 106.81C48.08 106.81 48.03 106.83 47.99 106.84C47.95 106.86 47.9 106.88 47.86 106.91C47.82 106.93 47.79 106.96 47.75 107C47.72 107.03 47.69 107.07 47.67 107.11C47.5 107.46 48.13 107.89 49.06 108.08C49.18 108.11 49.31 108.13 49.44 108.14C49.57 108.16 49.7 108.17 49.83 108.17C49.96 108.17 50.09 108.16 50.22 108.14C50.35 108.13 50.48 108.11 50.61 108.08" />
			<path id="Layer" class="shp10" d="M76.04 99.72L58.5 104.74L60.03 105.53L77.57 100.5L76.04 99.72" />
			<path id="Layer" class="shp10" d="M87.58 105.61L70.03 110.65L71.57 111.42L89.11 106.39L87.58 105.61" />
			<path id="Layer" fill-rule="evenodd" class="shp9" d="M60.38 112.83C60.68 112.76 61 112.73 61.31 112.71C61.62 112.7 61.94 112.71 62.25 112.74C62.56 112.78 62.87 112.84 63.17 112.93C63.47 113.01 63.76 113.12 64.05 113.25C65.07 113.75 65.09 114.41 64.1 114.7C63.79 114.76 63.48 114.8 63.17 114.81C62.85 114.83 62.54 114.82 62.23 114.78C61.92 114.74 61.61 114.68 61.31 114.59C61.01 114.51 60.72 114.4 60.44 114.26C59.41 113.77 59.38 113.1 60.38 112.82M63.8 114.57C64.68 114.33 64.66 113.77 63.8 113.33C63.56 113.22 63.31 113.13 63.06 113.06C62.81 112.98 62.55 112.93 62.28 112.9C62.02 112.87 61.76 112.86 61.49 112.87C61.23 112.88 60.97 112.91 60.71 112.97C59.87 113.21 59.89 113.77 60.75 114.21C60.99 114.32 61.24 114.41 61.49 114.48C61.74 114.56 62 114.61 62.27 114.64C62.53 114.67 62.79 114.68 63.05 114.67C63.32 114.65 63.58 114.62 63.84 114.57" />
			<path id="Layer" class="shp9" d="M61.12 113.2C61.05 113.2 61.05 113.28 61.12 113.32L62.27 113.9L62.99 113.69C63.07 113.69 63.07 113.62 62.99 113.58C62.97 113.57 62.95 113.57 62.92 113.56C62.9 113.56 62.87 113.56 62.85 113.56C62.83 113.56 62.8 113.56 62.78 113.56C62.75 113.57 62.73 113.57 62.71 113.58L62.26 113.7L61.4 113.26C61.38 113.25 61.35 113.25 61.33 113.24C61.3 113.24 61.28 113.24 61.25 113.24C61.23 113.24 61.2 113.24 61.18 113.24C61.15 113.25 61.13 113.25 61.11 113.26" />
			<path id="Layer" class="shp10" d="M98.75 111.62L81.2 116.65L82.73 117.43L100.28 112.4L98.75 111.62" />
			<path id="Layer" fill-rule="evenodd" class="shp9" d="M71.94 118.37C71.96 118.37 71.98 118.36 71.99 118.36C72.01 118.36 72.02 118.36 72.04 118.36C72.05 118.36 72.07 118.36 72.09 118.36C72.1 118.36 72.12 118.37 72.13 118.37L72.66 118.56L72.98 118.56L73.1 118.36L73.25 118.36L73.85 118.43L74 118.5L74.14 118.72L74.47 118.82L74.99 118.75C75 118.75 75.02 118.74 75.03 118.74C75.05 118.74 75.06 118.74 75.08 118.74C75.1 118.74 75.11 118.74 75.13 118.74C75.14 118.74 75.16 118.75 75.17 118.75L75.61 118.98C75.61 119 75.66 119.05 75.61 119.05L75.31 119.23C75.32 119.24 75.33 119.25 75.35 119.26C75.36 119.27 75.37 119.28 75.38 119.3C75.39 119.31 75.4 119.32 75.41 119.33C75.43 119.35 75.44 119.36 75.45 119.37L75.94 119.48L76.07 119.55L76.07 119.8L75.95 119.84L75.45 119.84C75.44 119.85 75.43 119.86 75.42 119.87C75.41 119.88 75.4 119.89 75.39 119.9C75.38 119.91 75.37 119.92 75.36 119.93C75.35 119.94 75.34 119.95 75.32 119.96L75.63 120.21C75.69 120.24 75.68 120.28 75.63 120.28L75.22 120.4C75.2 120.41 75.18 120.41 75.17 120.41C75.15 120.41 75.14 120.41 75.12 120.41C75.1 120.41 75.09 120.41 75.07 120.41C75.05 120.41 75.04 120.41 75.02 120.4L74.5 120.21L74.17 120.21L74.06 120.39L73.9 120.39L73.3 120.33L73.15 120.27L73.02 120.05L72.69 119.96L72.16 120.02C72.15 120.02 72.13 120.02 72.11 120.02C72.1 120.02 72.08 120.02 72.07 120.02C72.05 120.01 72.04 120.01 72.02 120C72.01 120 71.99 119.99 71.98 119.98L71.55 119.77C71.55 119.74 71.55 119.69 71.55 119.69L71.86 119.52C71.85 119.51 71.84 119.5 71.82 119.49C71.81 119.48 71.8 119.47 71.79 119.45C71.78 119.44 71.77 119.43 71.76 119.42C71.75 119.41 71.74 119.4 71.74 119.39L71.17 119.26L71.05 119.19L71.05 118.95L71.17 118.9L71.71 118.9C71.72 118.89 71.72 118.88 71.73 118.87C71.74 118.86 71.75 118.85 71.77 118.84C71.78 118.82 71.79 118.82 71.8 118.81C71.81 118.8 71.82 118.79 71.84 118.78L71.51 118.53C71.45 118.5 71.46 118.46 71.51 118.46L71.94 118.33M74.33 119.73C74.76 119.62 74.75 119.35 74.33 119.13C74.21 119.08 74.09 119.03 73.97 119C73.85 118.96 73.72 118.94 73.59 118.92C73.46 118.91 73.33 118.9 73.21 118.91C73.08 118.91 72.95 118.93 72.82 118.95C72.4 119.08 72.41 119.34 72.82 119.56C72.94 119.61 73.06 119.66 73.18 119.69C73.31 119.73 73.43 119.75 73.56 119.77C73.69 119.78 73.81 119.79 73.94 119.78C74.07 119.77 74.2 119.76 74.32 119.73" />
			<path id="Layer" fill-rule="evenodd" class="shp11" d="M138.73 123.46L98.52 134.99L91.41 131.35L131.62 119.83L138.73 123.46ZM98.39 132.44L124.45 124.97L123.82 124.65L97.77 132.08L98.39 132.4" />
			<path id="Layer" fill-rule="evenodd" class="shp12" d="M151.1 129.73L110.89 141.26L103.78 137.62L143.95 126.09L151.1 129.73ZM110.77 138.71L128.03 133.76L127.41 133.44L110.11 138.39L110.73 138.71" />
			<path id="Layer" fill-rule="evenodd" class="shp12" d="M156.32 132.4L163.44 136.04L123.23 147.57L116.1 143.93L156.31 132.4M122.89 145L146.12 138.34L145.58 138.07L122.33 144.73L122.87 145" />
			<path id="Layer" fill-rule="evenodd" class="shp12" d="M175.76 142.35L135.55 153.88L128.42 150.24L168.64 138.71L175.76 142.35ZM145.71 148.34L145.09 148.03L134.75 151L135.37 151.31L145.71 148.34Z" />
			<path id="Layer" class="shp13" d="M116.37 71.38L95.42 77.39L97.25 78.32L118.19 72.31L116.37 71.38" />
			<path id="Layer" class="shp10" d="M168.77 56.35L147.82 62.36L149.65 63.29L170.6 57.29L168.77 56.35" />
			<path id="Layer" class="shp10" d="M218.41 42.12L197.47 48.12L199.3 49.06L220.24 43.06L218.41 42.12" />
			<path id="Layer" class="shp6" d="M123.82 124.62L97.77 132.08L98.39 132.4L124.45 124.93L123.82 124.62" />
			<path id="Layer" class="shp6" d="M127.37 133.44L110.11 138.39L110.73 138.7L127.99 133.76L127.37 133.44" />
			<path id="Layer" class="shp6" d="M145.56 138.07L122.33 144.73L122.87 145L146.1 138.34L145.56 138.07" />
			<path id="Layer" class="shp6" d="M145.09 148.05L134.75 151.02L135.37 151.33L145.71 148.37L145.09 148.05" />
			<path id="Layer" fill-rule="evenodd" class="shp14" d="M33.22 96.39C33.29 96.36 33.37 96.35 33.45 96.33C33.53 96.32 33.61 96.31 33.69 96.3C33.78 96.3 33.86 96.29 33.94 96.3C34.02 96.3 34.1 96.3 34.18 96.31C34.27 96.32 34.35 96.33 34.43 96.35C34.52 96.36 34.6 96.38 34.68 96.4C34.76 96.42 34.85 96.45 34.93 96.48C35.01 96.51 35.08 96.54 35.16 96.57L34.75 96.69C34.7 96.67 34.66 96.65 34.61 96.63C34.56 96.62 34.51 96.6 34.46 96.59C34.41 96.58 34.36 96.57 34.31 96.56C34.26 96.55 34.2 96.54 34.15 96.54C34.1 96.53 34.06 96.53 34.01 96.53C33.96 96.52 33.91 96.52 33.86 96.53C33.81 96.53 33.77 96.54 33.72 96.54C33.67 96.55 33.62 96.56 33.58 96.57C33.36 96.63 33.27 96.73 33.31 96.84C33.35 96.96 33.53 97.09 33.84 97.25L33.91 97.29C33.98 97.33 34.05 97.36 34.12 97.39C34.2 97.42 34.27 97.45 34.34 97.48C34.41 97.5 34.49 97.52 34.56 97.54C34.64 97.56 34.71 97.58 34.79 97.6C34.85 97.61 34.91 97.62 34.98 97.63C35.04 97.64 35.1 97.64 35.17 97.64C35.23 97.64 35.3 97.64 35.36 97.63C35.42 97.62 35.49 97.61 35.55 97.6C35.7 97.55 35.77 97.48 35.8 97.4C35.83 97.32 35.77 97.24 35.64 97.16L36.05 97.05C36.08 97.06 36.11 97.08 36.13 97.1C36.16 97.12 36.18 97.14 36.21 97.16C36.23 97.18 36.25 97.2 36.27 97.23C36.29 97.25 36.31 97.28 36.33 97.31C36.34 97.33 36.34 97.36 36.35 97.38C36.35 97.41 36.35 97.43 36.34 97.45C36.34 97.48 36.33 97.5 36.32 97.52C36.3 97.55 36.29 97.57 36.27 97.58C36.25 97.61 36.22 97.63 36.19 97.65C36.16 97.67 36.13 97.69 36.1 97.71C36.07 97.73 36.04 97.74 36.01 97.75C35.97 97.76 35.94 97.77 35.9 97.78C35.81 97.8 35.71 97.82 35.62 97.84C35.52 97.85 35.42 97.87 35.32 97.87C35.23 97.87 35.13 97.87 35.03 97.87C34.93 97.86 34.83 97.85 34.74 97.83C34.63 97.82 34.52 97.8 34.41 97.77C34.3 97.75 34.19 97.72 34.08 97.68C33.97 97.65 33.87 97.61 33.77 97.57C33.66 97.52 33.56 97.48 33.46 97.42L33.39 97.42C33.34 97.4 33.29 97.38 33.24 97.35C33.19 97.32 33.14 97.29 33.1 97.26C33.05 97.23 33.01 97.19 32.97 97.16C32.93 97.12 32.89 97.08 32.85 97.04C32.82 97.02 32.8 97 32.79 96.97C32.77 96.94 32.76 96.91 32.75 96.88C32.75 96.85 32.75 96.82 32.75 96.79C32.75 96.76 32.76 96.72 32.78 96.7C32.8 96.66 32.83 96.63 32.87 96.6C32.9 96.58 32.94 96.55 32.97 96.53C33.01 96.51 33.05 96.49 33.09 96.48C33.13 96.46 33.17 96.45 33.22 96.44M37.42 95.19C37.57 95.15 37.72 95.13 37.87 95.12C38.02 95.11 38.17 95.11 38.32 95.13C38.47 95.15 38.62 95.18 38.76 95.23C38.9 95.27 39.04 95.33 39.18 95.41L40.91 96.3L40.49 96.42L38.77 95.54C38.73 95.52 38.69 95.5 38.64 95.48C38.6 95.46 38.55 95.45 38.51 95.43C38.46 95.42 38.42 95.41 38.37 95.4C38.33 95.39 38.28 95.38 38.23 95.37C38.19 95.37 38.14 95.36 38.09 95.36C38.04 95.36 38 95.36 37.95 95.37C37.9 95.37 37.86 95.38 37.81 95.39C37.77 95.4 37.72 95.41 37.68 95.42C37.52 95.46 37.43 95.53 37.42 95.61C37.42 95.69 37.49 95.77 37.63 95.87L39.36 96.75L38.92 96.87L37.22 96C37.14 95.96 37.05 95.92 36.96 95.89C36.87 95.86 36.78 95.84 36.69 95.83C36.59 95.81 36.5 95.81 36.4 95.82C36.31 95.83 36.21 95.84 36.12 95.87C35.84 95.95 35.77 96.07 35.9 96.22L37.8 97.19L37.37 97.32L34.77 95.99L35.18 95.87L35.49 96.01C35.44 95.85 35.59 95.72 35.9 95.63C35.99 95.6 36.08 95.58 36.18 95.57C36.28 95.56 36.37 95.55 36.47 95.55C36.57 95.55 36.66 95.56 36.76 95.57C36.85 95.58 36.95 95.6 37.04 95.63C37.03 95.61 37.02 95.59 37.01 95.57C37.01 95.55 37 95.53 37 95.5C37 95.48 37.01 95.46 37.01 95.44C37.02 95.42 37.03 95.4 37.04 95.38C37.07 95.35 37.09 95.33 37.12 95.31C37.15 95.29 37.18 95.27 37.21 95.25C37.24 95.23 37.27 95.22 37.3 95.21C37.33 95.2 37.37 95.19 37.4 95.18M39.98 94.48C40.07 94.46 40.16 94.44 40.25 94.43C40.34 94.41 40.43 94.4 40.52 94.4C40.62 94.39 40.71 94.39 40.8 94.4C40.89 94.41 40.99 94.42 41.08 94.43C41.19 94.45 41.29 94.47 41.4 94.5C41.5 94.53 41.61 94.56 41.71 94.59C41.81 94.62 41.92 94.66 42.02 94.71C42.12 94.75 42.21 94.79 42.31 94.84L42.49 94.94L40.78 95.43C40.85 95.46 40.91 95.49 40.98 95.52C41.05 95.55 41.12 95.57 41.19 95.59C41.26 95.61 41.33 95.63 41.4 95.65C41.47 95.66 41.55 95.67 41.62 95.68C41.68 95.69 41.74 95.7 41.81 95.71C41.87 95.72 41.94 95.72 42 95.72C42.06 95.72 42.13 95.72 42.19 95.71C42.26 95.7 42.32 95.69 42.38 95.68C42.41 95.68 42.44 95.67 42.46 95.66C42.49 95.65 42.52 95.64 42.54 95.62C42.57 95.61 42.59 95.6 42.61 95.58C42.64 95.56 42.66 95.54 42.68 95.52C42.69 95.51 42.69 95.49 42.7 95.47C42.7 95.45 42.7 95.44 42.7 95.42C42.7 95.4 42.7 95.38 42.7 95.36C42.69 95.35 42.69 95.33 42.68 95.31L43.15 95.31C43.27 95.54 43.12 95.72 42.69 95.84C42.6 95.86 42.5 95.89 42.4 95.9C42.3 95.92 42.2 95.93 42.1 95.93C42.01 95.94 41.91 95.94 41.81 95.93C41.71 95.93 41.61 95.92 41.51 95.9C41.4 95.89 41.29 95.87 41.19 95.85C41.08 95.83 40.97 95.8 40.87 95.77C40.77 95.74 40.66 95.7 40.56 95.66C40.46 95.62 40.36 95.57 40.26 95.52L40.18 95.48C40.13 95.46 40.08 95.43 40.03 95.4C39.98 95.38 39.93 95.35 39.89 95.31C39.84 95.28 39.8 95.25 39.76 95.21C39.71 95.17 39.67 95.13 39.64 95.09C39.61 95.07 39.59 95.04 39.58 95.01C39.56 94.98 39.55 94.95 39.54 94.92C39.53 94.89 39.53 94.86 39.53 94.82C39.54 94.79 39.55 94.76 39.56 94.73C39.58 94.7 39.61 94.67 39.63 94.64C39.66 94.61 39.69 94.59 39.73 94.57C39.76 94.55 39.8 94.53 39.83 94.52C39.87 94.5 39.91 94.49 39.95 94.48M40.4 95.24L41.66 94.87L41.63 94.87C41.57 94.84 41.51 94.82 41.45 94.8C41.39 94.77 41.34 94.75 41.28 94.73C41.21 94.72 41.15 94.7 41.09 94.69C41.03 94.67 40.97 94.66 40.91 94.66C40.85 94.65 40.8 94.64 40.75 94.63C40.7 94.63 40.65 94.62 40.6 94.62C40.54 94.62 40.49 94.63 40.44 94.63C40.39 94.64 40.34 94.65 40.29 94.66C40.11 94.71 40.03 94.79 40.04 94.89C40.05 94.99 40.16 95.1 40.37 95.23M46.29 92.7C46.36 92.68 46.44 92.66 46.51 92.65C46.59 92.63 46.66 92.62 46.74 92.62C46.82 92.61 46.89 92.61 46.97 92.61C47.04 92.61 47.12 92.61 47.2 92.62C47.27 92.63 47.35 92.64 47.42 92.65C47.5 92.66 47.57 92.68 47.65 92.7C47.72 92.72 47.79 92.75 47.87 92.77C47.94 92.8 48.01 92.83 48.08 92.86L49.27 93.47C49.32 93.5 49.37 93.52 49.42 93.55C49.48 93.57 49.53 93.6 49.59 93.62C49.64 93.64 49.7 93.66 49.76 93.68C49.81 93.7 49.87 93.72 49.93 93.73L49.47 93.86C49.44 93.86 49.41 93.85 49.38 93.84C49.36 93.83 49.33 93.82 49.3 93.81C49.28 93.8 49.25 93.79 49.22 93.78C49.2 93.77 49.17 93.75 49.14 93.74C49.15 93.91 49.02 94.03 48.74 94.11C48.67 94.13 48.6 94.14 48.53 94.16C48.46 94.17 48.39 94.18 48.32 94.19C48.25 94.19 48.18 94.19 48.11 94.19C48.04 94.19 47.97 94.19 47.9 94.18C47.83 94.18 47.77 94.17 47.7 94.16C47.63 94.14 47.57 94.13 47.5 94.11C47.43 94.09 47.37 94.07 47.31 94.05C47.24 94.02 47.18 94 47.12 93.97C46.85 93.83 46.73 93.68 46.79 93.55C46.84 93.43 47.05 93.3 47.41 93.2L47.83 93.08L47.62 92.98C47.58 92.96 47.54 92.94 47.5 92.92C47.46 92.91 47.42 92.89 47.38 92.88C47.34 92.87 47.3 92.86 47.25 92.85C47.21 92.84 47.17 92.83 47.12 92.83C47.08 92.82 47.03 92.82 46.99 92.82C46.94 92.82 46.9 92.82 46.85 92.82C46.81 92.82 46.76 92.83 46.72 92.84C46.67 92.85 46.63 92.86 46.58 92.87C46.43 92.91 46.35 92.97 46.32 93.04C46.29 93.12 46.34 93.18 46.45 93.24L46.01 93.36C45.99 93.35 45.96 93.34 45.94 93.32C45.92 93.3 45.89 93.29 45.87 93.27C45.85 93.25 45.83 93.23 45.81 93.2C45.8 93.18 45.78 93.16 45.77 93.13C45.76 93.11 45.76 93.08 45.76 93.06C45.76 93.04 45.76 93.01 45.77 92.99C45.78 92.97 45.79 92.95 45.8 92.93C45.81 92.91 45.83 92.89 45.85 92.88C45.88 92.85 45.91 92.83 45.94 92.81C45.97 92.79 46.01 92.77 46.04 92.75C46.07 92.74 46.11 92.72 46.14 92.71C46.18 92.7 46.22 92.68 46.25 92.68M48.41 93.9C48.44 93.9 48.47 93.89 48.49 93.88C48.52 93.87 48.54 93.85 48.57 93.84C48.59 93.82 48.61 93.81 48.63 93.79C48.65 93.77 48.67 93.75 48.69 93.73C48.7 93.71 48.71 93.7 48.72 93.68C48.73 93.66 48.73 93.64 48.73 93.62C48.73 93.6 48.73 93.58 48.72 93.56C48.71 93.54 48.7 93.53 48.69 93.51L48.16 93.24L47.82 93.34C47.3 93.49 47.19 93.65 47.51 93.81C47.54 93.83 47.58 93.84 47.62 93.86C47.65 93.87 47.69 93.88 47.73 93.9C47.77 93.91 47.81 93.92 47.85 93.92C47.89 93.93 47.93 93.93 47.97 93.94C48.01 93.94 48.05 93.94 48.09 93.94C48.12 93.94 48.16 93.94 48.2 93.94C48.24 93.93 48.28 93.93 48.32 93.92C48.36 93.92 48.4 93.91 48.44 93.9M51.52 91.17C51.6 91.15 51.67 91.13 51.75 91.12C51.82 91.1 51.9 91.09 51.98 91.08C52.06 91.08 52.13 91.07 52.21 91.07C52.29 91.07 52.37 91.08 52.44 91.08C52.52 91.09 52.59 91.1 52.66 91.11C52.74 91.12 52.81 91.13 52.88 91.15C52.95 91.17 53.03 91.19 53.1 91.22C53.17 91.25 53.23 91.27 53.3 91.31L52.86 91.43C52.82 91.41 52.79 91.4 52.75 91.38C52.71 91.37 52.67 91.36 52.64 91.35C52.6 91.34 52.56 91.33 52.52 91.33C52.48 91.32 52.44 91.32 52.4 91.31C52.36 91.31 52.31 91.31 52.27 91.31C52.23 91.31 52.19 91.31 52.14 91.31C52.1 91.32 52.06 91.32 52.01 91.33C51.97 91.34 51.93 91.35 51.89 91.36C51.73 91.4 51.64 91.46 51.62 91.52C51.61 91.57 51.65 91.64 51.77 91.7C51.79 91.71 51.82 91.72 51.85 91.73C51.88 91.74 51.91 91.75 51.95 91.76C51.98 91.76 52.01 91.77 52.04 91.77C52.07 91.78 52.1 91.78 52.13 91.78C52.18 91.78 52.23 91.78 52.28 91.78C52.33 91.77 52.38 91.77 52.43 91.77C52.48 91.76 52.53 91.76 52.58 91.75C52.63 91.75 52.68 91.74 52.73 91.73C52.79 91.72 52.85 91.72 52.91 91.71C52.97 91.7 53.03 91.7 53.09 91.69C53.15 91.69 53.21 91.68 53.27 91.68C53.33 91.68 53.39 91.67 53.45 91.67C53.5 91.67 53.54 91.67 53.59 91.67C53.64 91.68 53.68 91.68 53.73 91.68C53.77 91.68 53.82 91.69 53.86 91.7C53.91 91.7 53.95 91.71 54 91.72C54.04 91.72 54.08 91.73 54.12 91.74C54.15 91.75 54.19 91.76 54.23 91.78C54.27 91.79 54.3 91.8 54.34 91.82C54.38 91.83 54.41 91.85 54.45 91.87C54.68 91.98 54.77 92.11 54.73 92.23C54.7 92.35 54.53 92.46 54.24 92.54C54.18 92.55 54.13 92.57 54.08 92.58C54.02 92.59 53.97 92.6 53.92 92.61C53.86 92.62 53.81 92.62 53.75 92.63C53.7 92.63 53.64 92.64 53.59 92.64C53.53 92.64 53.48 92.64 53.42 92.64C53.37 92.64 53.31 92.63 53.26 92.63C53.2 92.62 53.15 92.62 53.09 92.61C53.04 92.6 52.98 92.59 52.93 92.58C52.88 92.57 52.83 92.57 52.78 92.55C52.73 92.54 52.68 92.53 52.64 92.51C52.59 92.5 52.54 92.48 52.5 92.46C52.45 92.44 52.41 92.42 52.36 92.4L52.8 92.28C52.84 92.3 52.88 92.32 52.92 92.33C52.97 92.35 53.01 92.36 53.05 92.37C53.1 92.38 53.14 92.39 53.19 92.4C53.23 92.41 53.28 92.41 53.32 92.42C53.37 92.42 53.42 92.42 53.46 92.42C53.51 92.41 53.56 92.41 53.61 92.41C53.65 92.4 53.7 92.4 53.75 92.39C53.79 92.38 53.84 92.37 53.88 92.36C54.05 92.31 54.14 92.26 54.17 92.19C54.2 92.13 54.16 92.06 54.05 92.01C54.02 91.99 53.99 91.98 53.95 91.97C53.92 91.95 53.88 91.94 53.85 91.93C53.82 91.93 53.78 91.92 53.75 91.91C53.71 91.91 53.67 91.91 53.64 91.9C53.59 91.9 53.53 91.9 53.48 91.91C53.43 91.91 53.37 91.91 53.32 91.91C53.27 91.92 53.22 91.92 53.16 91.93C53.11 91.93 53.06 91.94 53.01 91.95C52.95 91.96 52.89 91.96 52.83 91.97C52.77 91.98 52.71 91.98 52.65 91.99C52.59 91.99 52.53 92 52.47 92C52.41 92 52.34 92 52.28 92.01C52.24 92.01 52.2 92.01 52.15 92.02C52.11 92.02 52.07 92.02 52.02 92.02C51.98 92.02 51.93 92.02 51.89 92.02C51.85 92.01 51.8 92.01 51.76 92.01C51.72 92 51.69 91.99 51.65 91.98C51.61 91.97 51.58 91.96 51.54 91.95C51.51 91.94 51.47 91.92 51.44 91.91C51.4 91.89 51.37 91.88 51.33 91.86C51.12 91.75 51.04 91.63 51.06 91.51C51.08 91.39 51.23 91.29 51.51 91.21M29.74 96.7L34.53 98.14L34.07 98.27L32.84 97.89L31.4 98.3L31.99 98.87L31.53 98.99L29.37 96.83L29.76 96.73M31.21 98.07L32.37 97.74L30.15 97.07C30.15 97.07 31.21 98.07 31.21 98.07ZM42.29 93.16L45.4 94.75L47.02 94.33L47.4 94.52L45.34 95.11L41.92 93.22L42.38 93.09M47.2 91.61L48.57 92.33C48.53 92.17 48.66 92.04 48.97 91.96C49.06 91.93 49.15 91.92 49.24 91.91C49.33 91.9 49.42 91.89 49.51 91.89C49.6 91.89 49.69 91.9 49.78 91.91C49.87 91.92 49.96 91.93 50.05 91.96C50.16 91.97 50.27 92 50.37 92.03C50.48 92.05 50.58 92.09 50.69 92.12C50.79 92.16 50.89 92.2 50.99 92.24C51.09 92.28 51.19 92.33 51.29 92.38C51.72 92.59 51.95 92.78 52.01 92.95C52.07 93.12 51.95 93.25 51.65 93.34C51.56 93.36 51.47 93.37 51.38 93.38C51.29 93.39 51.2 93.4 51.11 93.4C51.02 93.4 50.93 93.39 50.84 93.38C50.75 93.37 50.66 93.36 50.57 93.34L50.84 93.5L50.45 93.61L46.74 91.75L47.18 91.63M51.15 93.17C51.38 93.11 51.43 93.03 51.38 92.91C51.34 92.78 51.15 92.64 50.81 92.47C50.75 92.44 50.68 92.4 50.61 92.37C50.53 92.34 50.46 92.31 50.39 92.29C50.32 92.26 50.24 92.24 50.17 92.22C50.09 92.2 50.02 92.18 49.94 92.16C49.88 92.15 49.82 92.14 49.76 92.13C49.7 92.13 49.64 92.12 49.58 92.12C49.52 92.12 49.46 92.13 49.4 92.13C49.34 92.14 49.28 92.15 49.22 92.16C48.94 92.25 48.87 92.37 49.01 92.55L50.14 93.12C50.22 93.15 50.31 93.17 50.39 93.18C50.48 93.2 50.56 93.2 50.65 93.21C50.74 93.21 50.82 93.21 50.91 93.2C51 93.19 51.08 93.18 51.17 93.16" />
			<path id="Layer" class="shp15" d="M267.84 86.3L198.72 106.12L200.25 106.91L269.38 87.08L267.84 86.3" />
			<path id="Layer" class="shp15" d="M276.3 90.62L207.17 110.44L208.71 111.22L277.83 91.41L276.3 90.62" />
			<path id="Layer" class="shp15" d="M239.97 97.56L202.81 108.21L204.35 109L241.51 98.35L239.97 97.56" />
			<path id="Layer" class="shp15" d="M248.18 101.75L211.02 112.4L219.21 116.59L256.37 105.94L248.18 101.75" />
			<path id="Layer" class="shp15" d="M280.15 92.59L251.05 100.93L259.25 105.11L288.34 96.78L280.15 92.59" />
			<path id="Layer" class="shp15" d="M271.94 88.4L242.85 96.73L244.39 97.52L273.48 89.18L271.94 88.4" />
			<path id="Layer" class="shp15" d="M293.44 99.61L224.32 119.43L225.84 120.21L294.97 100.39L293.44 99.61" />
			<path id="Layer" class="shp15" d="M301.9 103.93L232.77 123.75L234.31 124.54L303.43 104.72L301.9 103.93" />
			<path id="Layer" class="shp15" d="M265.57 110.87L228.41 121.53L229.95 122.31L267.1 111.65L265.57 110.87" />
			<path id="Layer" class="shp15" d="M273.76 115.06L236.61 125.71L244.81 129.91L281.97 119.25L273.76 115.06" />
			<path id="Layer" class="shp15" d="M305.74 105.9L276.65 114.23L284.85 118.43L313.94 110.08L305.74 105.9" />
			<path id="Layer" class="shp15" d="M297.54 101.7L268.45 110.04L269.98 110.83L299.08 102.49L297.54 101.7" />
			<path id="Layer" class="shp15" d="M318.04 112.18L248.91 132L250.45 132.79L319.58 112.97L318.04 112.18" />
			<path id="Layer" class="shp15" d="M326.5 116.5L257.37 136.32L258.91 137.1L328.03 117.29L326.5 116.5" />
			<path id="Layer" class="shp15" d="M290.16 123.44L253.01 134.09L254.55 134.88L291.71 124.23L290.16 123.44" />
			<path id="Layer" class="shp15" d="M298.37 127.64L261.21 138.29L269.42 142.47L306.57 131.82L298.37 127.64" />
			<path id="Layer" class="shp15" d="M330.34 118.46L301.25 126.81L309.45 130.99L338.54 122.66L330.34 118.46" />
			<path id="Layer" class="shp15" d="M322.14 114.28L293.05 122.61L294.59 123.4L323.67 115.06L322.14 114.28" />
			<path id="Layer" fill-rule="evenodd" class="shp16" d="M211.03 117.94L187.97 124.55L167.26 113.96L190.32 107.36L211.03 117.94ZM179.88 115.26L184.62 117.68L190.33 120.6C190.38 120.62 190.44 120.65 190.5 120.66C190.56 120.68 190.62 120.69 190.68 120.7C190.74 120.71 190.81 120.71 190.87 120.7C190.93 120.7 190.99 120.69 191.05 120.68C191.24 120.63 191.25 120.5 191.05 120.39L185.7 117.66L188.46 116.87L189.29 117.29L189.77 117.29C189.78 117.29 189.79 117.29 189.81 117.29C189.82 117.29 189.83 117.3 189.85 117.3C189.86 117.3 189.87 117.29 189.89 117.29C189.9 117.29 189.91 117.29 189.93 117.29L195.46 115.7C195.6 115.67 195.6 115.6 195.6 115.54C195.58 115.52 195.56 115.49 195.54 115.48C195.51 115.46 195.49 115.44 195.46 115.42C195.44 115.41 195.41 115.4 195.39 115.38C195.36 115.37 195.33 115.36 195.3 115.36L192.27 114.46L190.9 113.07C190.87 113.05 190.84 113.03 190.82 113.02C190.79 113 190.76 112.98 190.73 112.97C190.69 112.96 190.66 112.94 190.63 112.94C190.6 112.93 190.56 112.92 190.53 112.92C190.49 112.91 190.46 112.9 190.42 112.9C190.38 112.89 190.34 112.89 190.31 112.89C190.27 112.89 190.23 112.89 190.2 112.9C190.16 112.9 190.12 112.91 190.08 112.92L186.05 114.08L185.22 113.65C185.16 113.62 185.11 113.6 185.05 113.58C184.99 113.57 184.93 113.56 184.87 113.55C184.8 113.54 184.74 113.54 184.68 113.54C184.62 113.55 184.56 113.56 184.5 113.57L180.23 114.79L179.62 114.47C179.56 114.45 179.51 114.43 179.45 114.41C179.39 114.39 179.33 114.38 179.27 114.38C179.2 114.37 179.14 114.37 179.08 114.37C179.02 114.37 178.96 114.38 178.9 114.39C178.7 114.45 178.7 114.57 178.9 114.67L179.87 115.17" />
			<path id="Layer" fill-rule="evenodd" class="shp16" d="M236.47 130.91L213.4 137.51L192.7 126.93L215.76 120.33L236.47 130.91ZM205.74 128.41L210.48 130.83L216.18 133.75C216.24 133.77 216.29 133.79 216.35 133.81C216.41 133.83 216.47 133.84 216.53 133.85C216.59 133.85 216.66 133.86 216.72 133.85C216.78 133.85 216.84 133.84 216.9 133.83C217.09 133.78 217.09 133.65 216.9 133.54L211.55 130.81L214.31 130.02L215.14 130.44L215.62 130.44C215.63 130.44 215.64 130.44 215.66 130.44C215.67 130.44 215.68 130.45 215.7 130.45C215.71 130.45 215.72 130.44 215.74 130.44C215.75 130.44 215.76 130.44 215.78 130.44L221.31 128.85C221.44 128.82 221.48 128.75 221.44 128.69C221.42 128.66 221.4 128.64 221.38 128.62C221.36 128.6 221.33 128.59 221.31 128.57C221.28 128.56 221.26 128.54 221.23 128.53C221.2 128.52 221.17 128.51 221.14 128.51L218.05 127.61L216.68 126.22C216.65 126.2 216.62 126.18 216.59 126.17C216.56 126.15 216.53 126.13 216.5 126.12C216.47 126.11 216.44 126.1 216.41 126.09C216.38 126.08 216.34 126.07 216.31 126.07C216.27 126.06 216.24 126.05 216.2 126.05C216.16 126.05 216.12 126.04 216.09 126.04C216.05 126.04 216.01 126.05 215.97 126.05C215.94 126.05 215.9 126.06 215.86 126.07L211.83 127.23L211 126.8C210.94 126.77 210.88 126.75 210.83 126.73C210.77 126.72 210.71 126.7 210.64 126.7C210.58 126.69 210.52 126.69 210.46 126.69C210.4 126.7 210.34 126.71 210.28 126.72L206.01 127.94L205.39 127.63C205.34 127.6 205.28 127.58 205.22 127.56C205.16 127.55 205.1 127.53 205.04 127.53C204.98 127.52 204.92 127.52 204.85 127.52C204.79 127.52 204.73 127.53 204.67 127.54C204.48 127.6 204.48 127.72 204.67 127.82L205.61 128.32" />
			<path id="Layer" fill-rule="evenodd" class="shp16" d="M262.79 144.37L239.72 150.98L219.02 140.4L242.08 133.8L262.79 144.37ZM236.13 143.97L241.84 146.89C241.89 146.92 241.95 146.94 242.01 146.95C242.07 146.97 242.13 146.98 242.19 146.99C242.25 147 242.31 147 242.37 146.99C242.43 146.99 242.5 146.98 242.56 146.97C242.75 146.92 242.75 146.79 242.56 146.69L237.2 143.96L239.97 143.16L240.8 143.59L241.31 143.59C241.32 143.59 241.34 143.59 241.35 143.59C241.36 143.59 241.38 143.59 241.39 143.59C241.4 143.59 241.42 143.59 241.43 143.59C241.44 143.59 241.45 143.59 241.47 143.59L247 142C247.13 141.97 247.17 141.91 247.13 141.84C247.11 141.82 247.09 141.79 247.07 141.77C247.05 141.75 247.03 141.74 247 141.72C246.98 141.71 246.95 141.69 246.92 141.68C246.89 141.67 246.87 141.66 246.84 141.66L243.73 140.76L242.37 139.37C242.34 139.35 242.31 139.33 242.29 139.32C242.26 139.3 242.23 139.28 242.2 139.27C242.16 139.26 242.13 139.25 242.1 139.24C242.07 139.23 242.03 139.22 242 139.22C241.96 139.21 241.93 139.2 241.89 139.2C241.85 139.2 241.82 139.19 241.78 139.19C241.74 139.19 241.7 139.2 241.67 139.2C241.63 139.2 241.59 139.21 241.55 139.22L237.52 140.38L236.69 139.95C236.63 139.92 236.58 139.9 236.52 139.88C236.46 139.87 236.4 139.86 236.34 139.85C236.28 139.84 236.21 139.84 236.15 139.84C236.09 139.85 236.03 139.86 235.97 139.87L231.7 141.09L231.08 140.78C231.03 140.75 230.97 140.73 230.91 140.71C230.85 140.7 230.79 140.68 230.73 140.68C230.67 140.67 230.61 140.67 230.55 140.67C230.48 140.67 230.42 140.68 230.36 140.69C230.16 140.75 230.17 140.88 230.36 140.97L231.34 141.47L236.13 143.97Z" />
			<path id="Layer" fill-rule="evenodd" class="shp17" d="M190.11 112.99L186.07 114.15L189.97 116.14C190.07 116.19 190.13 116.24 190.13 116.3L190.13 117.24C190.13 117.29 190.09 117.33 190 117.36L189.84 117.36C189.85 117.36 189.87 117.36 189.88 117.37C189.89 117.37 189.91 117.37 189.92 117.37C189.93 117.37 189.94 117.37 189.96 117.37C189.97 117.36 189.98 117.36 190 117.36L195.53 115.78C195.65 115.74 195.7 115.68 195.67 115.61C195.65 115.59 195.63 115.57 195.61 115.55C195.59 115.53 195.56 115.51 195.54 115.5C195.51 115.48 195.49 115.47 195.46 115.46C195.43 115.45 195.4 115.44 195.37 115.43L192.27 114.54L190.9 113.15C190.87 113.12 190.84 113.11 190.82 113.09C190.79 113.07 190.76 113.05 190.73 113.04C190.69 113.03 190.66 113.02 190.63 113.01C190.6 113 190.56 112.99 190.53 112.99C190.49 112.98 190.46 112.97 190.42 112.97C190.38 112.97 190.34 112.96 190.31 112.96C190.27 112.96 190.23 112.97 190.2 112.97C190.16 112.97 190.12 112.98 190.08 112.99M189.44 117.31L189.58 117.31L189.44 117.31ZM189.38 117.31L189.44 117.31L189.38 117.31Z" />
			<path id="Layer" class="shp18" d="M189.9 116.06L189.9 116.06C190.1 116.17 190.11 116.29 189.9 116.35L188.4 116.78L189.23 117.2L189.27 117.2L189.27 117.2L189.27 117.2L189.27 117.2L189.32 117.2L189.36 117.2L189.49 117.2L189.71 117.2L189.87 117.2C189.96 117.2 190.01 117.12 190 117.07L190 116.14C190 116.08 189.94 116.02 189.84 115.97" />
			<path id="Layer" class="shp19" d="M184.49 113.57L180.23 114.79L185.67 117.58L188.44 116.78L189.94 116.35C190.13 116.29 190.13 116.17 189.94 116.07L189.94 116.07L186.04 114.08L185.21 113.66C185.16 113.63 185.1 113.61 185.04 113.59C184.98 113.57 184.92 113.56 184.86 113.56C184.8 113.55 184.74 113.55 184.67 113.55C184.61 113.56 184.55 113.56 184.49 113.58" />
			<path id="Layer" class="shp20" d="M178.89 114.39C178.7 114.45 178.7 114.57 178.89 114.67L179.86 115.17L184.61 117.59L190.31 120.51C190.37 120.54 190.43 120.56 190.49 120.58C190.55 120.59 190.61 120.61 190.67 120.61C190.73 120.62 190.79 120.62 190.85 120.62C190.91 120.61 190.98 120.6 191.04 120.59C191.22 120.54 191.23 120.41 191.04 120.31L185.68 117.58L180.23 114.79L179.62 114.47C179.56 114.45 179.51 114.43 179.45 114.41C179.39 114.39 179.33 114.38 179.27 114.38C179.2 114.37 179.14 114.37 179.08 114.37C179.02 114.37 178.96 114.38 178.9 114.39" />
			<path id="Layer" fill-rule="evenodd" class="shp17" d="M215.78 126.14L211.75 127.3L215.65 129.29C215.75 129.34 215.8 129.39 215.81 129.45L215.81 130.39C215.81 130.44 215.77 130.48 215.68 130.51L215.52 130.51C215.53 130.51 215.54 130.51 215.56 130.52C215.57 130.52 215.58 130.52 215.6 130.52C215.61 130.52 215.62 130.52 215.64 130.52C215.65 130.51 215.66 130.51 215.68 130.51L221.21 128.93C221.33 128.89 221.38 128.83 221.34 128.76C221.32 128.74 221.3 128.72 221.28 128.7C221.26 128.68 221.23 128.66 221.21 128.64C221.18 128.63 221.16 128.61 221.13 128.6C221.1 128.59 221.07 128.59 221.04 128.58L217.95 127.69L216.58 126.3C216.55 126.27 216.52 126.25 216.49 126.23C216.46 126.21 216.43 126.19 216.4 126.17C216.37 126.15 216.34 126.14 216.3 126.13C216.27 126.11 216.24 126.1 216.2 126.09C216.16 126.09 216.13 126.08 216.09 126.08C216.05 126.07 216.02 126.07 215.98 126.07C215.94 126.07 215.9 126.07 215.87 126.08C215.83 126.08 215.79 126.09 215.75 126.09M215.18 130.46L215.32 130.46L215.18 130.46ZM215.1 130.46L215.15 130.46L215.1 130.46Z" />
			<path id="Layer" class="shp18" d="M215.64 129.21L215.64 129.21C215.83 129.32 215.84 129.44 215.64 129.5L214.14 129.93L214.97 130.35L215 130.35L215 130.35L215 130.35L215 130.35L215.06 130.35L215.09 130.35L215.23 130.35L215.44 130.35L215.6 130.35C215.7 130.35 215.75 130.27 215.74 130.22L215.74 129.29C215.74 129.23 215.68 129.17 215.57 129.12" />
			<path id="Layer" class="shp19" d="M210.21 126.72L205.95 127.94L211.39 130.73L214.16 129.93L215.66 129.5C215.86 129.44 215.85 129.32 215.66 129.22L215.66 129.22L211.76 127.23L210.93 126.81C210.88 126.78 210.82 126.76 210.76 126.74C210.7 126.72 210.64 126.71 210.58 126.71C210.52 126.7 210.46 126.7 210.39 126.7C210.33 126.7 210.27 126.71 210.21 126.73" />
			<path id="Layer" class="shp20" d="M204.63 127.54C204.44 127.59 204.44 127.72 204.63 127.82L205.6 128.31L210.34 130.73L216.04 133.65C216.1 133.68 216.16 133.7 216.22 133.72C216.27 133.73 216.33 133.75 216.4 133.75C216.46 133.76 216.52 133.76 216.58 133.76C216.64 133.75 216.7 133.75 216.76 133.73C216.95 133.68 216.95 133.55 216.76 133.45L211.41 130.72L205.96 127.93L205.34 127.62C205.29 127.6 205.23 127.57 205.17 127.56C205.11 127.54 205.05 127.53 204.99 127.52C204.93 127.51 204.86 127.51 204.8 127.51C204.74 127.51 204.68 127.52 204.62 127.54" />
			<path id="Layer" fill-rule="evenodd" class="shp17" d="M241.55 139.29L237.51 140.45L241.41 142.44C241.51 142.49 241.57 142.54 241.57 142.6L241.57 143.54C241.57 143.59 241.53 143.63 241.43 143.66L241.27 143.66C241.29 143.66 241.3 143.66 241.31 143.67C241.33 143.67 241.34 143.67 241.35 143.67C241.37 143.67 241.38 143.67 241.39 143.67C241.41 143.66 241.42 143.66 241.43 143.66L246.97 142.08C247.08 142.04 247.13 141.98 247.1 141.91C247.08 141.89 247.06 141.87 247.04 141.85C247.01 141.83 246.99 141.81 246.96 141.79C246.94 141.78 246.91 141.77 246.89 141.75C246.86 141.74 246.83 141.74 246.8 141.73L243.69 140.84L242.33 139.45C242.31 139.43 242.28 139.41 242.25 139.39C242.22 139.37 242.19 139.36 242.16 139.34C242.13 139.33 242.1 139.32 242.06 139.31C242.03 139.3 242 139.29 241.97 139.29C241.93 139.28 241.89 139.27 241.85 139.27C241.82 139.27 241.78 139.27 241.74 139.27C241.7 139.27 241.67 139.27 241.63 139.27C241.59 139.27 241.56 139.28 241.52 139.29M240.95 143.61L241.09 143.61L240.95 143.61ZM240.86 143.61L240.91 143.61L240.86 143.61Z" />
			<path id="Layer" class="shp18" d="M241.37 142.36L241.37 142.36C241.56 142.46 241.58 142.59 241.37 142.65L239.88 143.08L240.7 143.5L240.74 143.5L240.74 143.5L240.74 143.5L240.78 143.5L240.82 143.5L240.86 143.5L241 143.5L241.22 143.5L241.37 143.5C241.47 143.5 241.52 143.43 241.51 143.38L241.51 142.44C241.51 142.39 241.45 142.33 241.35 142.28" />
			<path id="Layer" class="shp19" d="M235.95 139.87L231.68 141.09L237.13 143.88L239.9 143.08L241.42 142.67C241.62 142.61 241.6 142.49 241.42 142.39L241.42 142.39L237.53 140.4L236.7 139.97C236.64 139.94 236.58 139.92 236.52 139.91C236.47 139.89 236.4 139.88 236.34 139.87C236.28 139.86 236.22 139.86 236.16 139.87C236.1 139.87 236.04 139.88 235.98 139.89" />
			<path id="Layer" class="shp20" d="M230.36 140.69C230.17 140.75 230.17 140.88 230.36 140.97L231.34 141.47L236.07 143.89L241.78 146.81C241.83 146.84 241.89 146.86 241.95 146.87C242.01 146.89 242.07 146.9 242.13 146.91C242.19 146.92 242.25 146.92 242.32 146.92C242.38 146.91 242.44 146.9 242.5 146.89C242.69 146.84 242.69 146.71 242.5 146.61L237.1 143.88L231.65 141.09L231.03 140.78C230.98 140.75 230.92 140.73 230.86 140.71C230.8 140.7 230.74 140.68 230.68 140.68C230.62 140.67 230.56 140.67 230.49 140.67C230.43 140.67 230.37 140.68 230.31 140.69" />
			<path id="Layer" class="shp21" d="M257.26 52.59L181.87 74.21L184.92 75.77L260.32 54.16L257.26 52.59" />
			<path id="Layer" class="shp10" d="M310.1 44.02L190.51 78.31L192.12 79.13L311.72 44.84L310.1 44.02" />
			<path id="Layer" class="shp10" d="M318.95 48.54L199.34 82.83L200.95 83.65L320.55 49.36L318.95 48.54" />
			<path id="Layer" class="shp10" d="M259.07 62.07L194.79 80.5L196.4 81.32L260.68 62.89L259.07 62.07" />
			<path id="Layer" fill-rule="evenodd" class="shp13" d="M254.29 72.41L260.49 75.58L212.2 89.42L206 86.25L254.29 72.41ZM251.97 75.71L251.34 75.4L214.14 86.06L214.76 86.39L251.97 75.71Z" />
			<path id="Layer" class="shp6" d="M251.37 75.4L214.17 86.06L214.79 86.39L252 75.71L251.37 75.4" />
			<path id="Layer" fill-rule="evenodd" class="shp6" d="M162.21 75.79L202.44 96.35L157.66 109.19L117.43 88.63L162.22 75.76M141.91 90.97L151.11 95.67L162.21 101.34C162.31 101.39 162.42 101.43 162.53 101.47C162.65 101.5 162.76 101.52 162.88 101.53C162.99 101.55 163.11 101.55 163.22 101.55C163.34 101.54 163.46 101.53 163.57 101.5C163.96 101.39 163.95 101.15 163.57 100.95L153.17 95.64L158.55 94.1L160.15 95.01L160.2 95.01C160.24 95.03 160.28 95.04 160.32 95.06C160.36 95.07 160.4 95.09 160.45 95.1C160.49 95.11 160.53 95.12 160.57 95.13C160.62 95.14 160.66 95.15 160.7 95.15L161.19 95.15C161.21 95.15 161.24 95.15 161.26 95.15C161.29 95.15 161.31 95.15 161.34 95.14C161.36 95.14 161.39 95.13 161.41 95.13C161.44 95.12 161.46 95.12 161.49 95.11L172.28 92C172.54 91.93 172.61 91.82 172.54 91.68C172.5 91.64 172.46 91.59 172.42 91.56C172.38 91.52 172.33 91.48 172.28 91.45C172.24 91.43 172.18 91.4 172.13 91.38C172.08 91.36 172.02 91.35 171.97 91.34L165.92 89.6L163.27 86.89C163.22 86.85 163.16 86.81 163.11 86.78C163.05 86.74 162.99 86.71 162.93 86.69C162.87 86.66 162.81 86.64 162.74 86.62C162.68 86.61 162.61 86.6 162.55 86.59C162.48 86.57 162.4 86.56 162.33 86.55C162.26 86.54 162.19 86.54 162.11 86.54C162.04 86.54 161.97 86.54 161.9 86.55C161.82 86.56 161.75 86.57 161.68 86.59L153.84 88.84L152.23 88.01C152.13 87.96 152.02 87.92 151.91 87.89C151.79 87.86 151.68 87.84 151.56 87.82C151.45 87.81 151.33 87.81 151.21 87.81C151.1 87.82 150.98 87.83 150.87 87.86L142.58 90.23L141.38 89.62C141.28 89.57 141.17 89.53 141.05 89.5C140.94 89.47 140.83 89.44 140.71 89.43C140.59 89.41 140.48 89.41 140.36 89.41C140.24 89.42 140.13 89.43 140.01 89.45C139.62 89.56 139.63 89.81 140.01 90L141.9 90.97" />
			<path id="Layer" fill-rule="evenodd" class="shp22" d="M160.31 95.02C160.35 95.03 160.4 95.04 160.44 95.06C160.48 95.07 160.52 95.08 160.57 95.09C160.61 95.1 160.65 95.1 160.7 95.11C160.65 95.1 160.61 95.1 160.57 95.09C160.52 95.08 160.48 95.07 160.44 95.06C160.4 95.04 160.35 95.03 160.31 95.01C160.27 95 160.23 94.98 160.19 94.97C160.23 94.98 160.27 95 160.31 95.02ZM161.69 86.59L153.85 88.84L161.43 92.72C161.63 92.82 161.73 92.94 161.73 93.04L161.78 94.84C161.78 94.94 161.69 95.03 161.51 95.08L172.24 92C172.46 91.93 172.56 91.82 172.49 91.68C172.46 91.64 172.42 91.59 172.38 91.56C172.33 91.52 172.29 91.48 172.24 91.45C172.19 91.43 172.14 91.4 172.09 91.38C172.03 91.36 171.98 91.35 171.92 91.34L165.88 89.6L163.22 86.89C163.17 86.85 163.12 86.81 163.06 86.78C163.01 86.74 162.95 86.71 162.89 86.69C162.82 86.66 162.76 86.64 162.7 86.62C162.63 86.61 162.57 86.6 162.5 86.59C162.43 86.57 162.36 86.56 162.29 86.55C162.22 86.54 162.14 86.54 162.07 86.54C162 86.54 161.93 86.54 161.85 86.55C161.78 86.56 161.71 86.57 161.64 86.59M161.51 95.08L161.5 95.08C161.51 95.08 161.51 95.08 161.51 95.08ZM160.7 95.11L160.76 95.11L160.7 95.11ZM158.55 94.1L160.15 94.92L160.21 94.92L160.15 94.92L158.55 94.1Z" />
			<path id="Layer" class="shp23" d="M161.71 93.04C161.71 93.14 161.61 93.22 161.44 93.27L158.55 94.1L160.16 94.92L160.21 94.92L160.21 94.92C160.25 94.94 160.29 94.96 160.33 94.97C160.38 94.99 160.42 95 160.46 95.01C160.5 95.02 160.54 95.04 160.59 95.04C160.63 95.05 160.67 95.06 160.72 95.07L160.72 95.07L160.77 95.07L161.2 95.07C161.23 95.07 161.25 95.07 161.28 95.06C161.3 95.06 161.33 95.06 161.35 95.06C161.38 95.05 161.4 95.05 161.43 95.04C161.45 95.04 161.48 95.03 161.5 95.02C161.68 94.97 161.78 94.89 161.78 94.79L161.73 92.99" />
			<path id="Layer" class="shp24" d="M150.84 87.86L142.56 90.23L153.14 95.64L158.55 94.1L161.43 93.27C161.6 93.22 161.7 93.14 161.7 93.04C161.71 92.95 161.61 92.82 161.41 92.72L153.81 88.84L152.21 88.01C152.1 87.96 151.99 87.92 151.88 87.89C151.77 87.86 151.65 87.84 151.53 87.82C151.42 87.81 151.3 87.81 151.18 87.81C151.07 87.82 150.95 87.83 150.84 87.86" />
			<path id="Layer" class="shp25" d="M139.99 89.45C139.62 89.56 139.63 89.81 139.99 90L141.88 90.97L151.08 95.67L162.18 101.34C162.28 101.39 162.39 101.43 162.51 101.47C162.62 101.5 162.73 101.52 162.85 101.53C162.96 101.55 163.08 101.55 163.2 101.55C163.31 101.54 163.43 101.53 163.54 101.5C163.91 101.39 163.9 101.15 163.54 100.95L153.14 95.64L142.56 90.23L141.36 89.62C141.25 89.57 141.14 89.53 141.03 89.5C140.92 89.47 140.8 89.44 140.69 89.43C140.57 89.41 140.45 89.41 140.34 89.41C140.22 89.42 140.1 89.43 139.99 89.45" />
		</g>
	</g>
	<g id="Layer">
		<g id="Layer">
			<path id="Layer" class="shp26" d="M333.07 119.81C332.34 120.08 332.24 120.64 332.9 121.05C333.09 121.16 333.29 121.24 333.5 121.31C333.71 121.37 333.92 121.42 334.14 121.44C334.35 121.46 334.57 121.46 334.79 121.44C335.01 121.42 335.22 121.38 335.43 121.31C336.15 121.04 336.25 120.48 335.6 120.07C335.41 119.97 335.21 119.88 335 119.82C334.79 119.75 334.58 119.71 334.36 119.69C334.14 119.66 333.92 119.66 333.71 119.68C333.49 119.71 333.27 119.75 333.07 119.81Z" />
			<path id="Layer" fill-rule="evenodd" class="shp26" d="M331.96 119.14C332.37 119.02 332.78 118.93 333.2 118.89C333.62 118.85 334.04 118.85 334.46 118.89C334.88 118.93 335.3 119.02 335.7 119.14C336.1 119.27 336.49 119.43 336.86 119.64C338.12 120.44 337.97 121.51 336.53 122.04C336.13 122.16 335.71 122.25 335.3 122.29C334.88 122.33 334.45 122.33 334.03 122.29C333.61 122.25 333.2 122.16 332.8 122.04C332.4 121.91 332.01 121.74 331.64 121.54C330.38 120.74 330.52 119.67 331.96 119.14ZM336.38 119.81C336.08 119.65 335.76 119.51 335.43 119.41C335.1 119.31 334.76 119.24 334.42 119.2C334.08 119.17 333.73 119.17 333.39 119.2C333.05 119.24 332.71 119.31 332.38 119.41C331.21 119.83 331.08 120.71 332.11 121.37C332.42 121.53 332.73 121.67 333.06 121.77C333.39 121.87 333.73 121.94 334.07 121.98C334.42 122.01 334.76 122.01 335.1 121.98C335.45 121.94 335.78 121.87 336.11 121.77C337.29 121.35 337.41 120.47 336.38 119.81Z" />
		</g>
	</g>
</svg>