<svg id="Warstwa_1" data-name="Warstwa 1" xmlns="http://www.w3.org/2000/svg" xmlns:xlink="http://www.w3.org/1999/xlink" viewBox="0 0 250.55 104.23"><defs><clipPath id="clip-path"><path d="M137.22,101.09,6.51,34.28a3.3,3.3,0,0,1,.6-6.11l94.13-27a13.89,13.89,0,0,1,10.16,1L243.3,69.57a3.63,3.63,0,0,1-.66,6.72l-91.26,26.17A19.33,19.33,0,0,1,137.22,101.09Z" style="fill:none"/></clipPath></defs><g style="isolation:isolate"><g style="clip-path:url(#clip-path)"><path d="M119.72,61.34c-.33.1-.42.24-.29.42l1.62.83a2.2,2.2,0,0,0,1.14,0c.25-.07.35-.18.28-.33s-.31-.33-.74-.55a3.78,3.78,0,0,0-1.08-.38,2.07,2.07,0,0,0-.93,0M93.84,68.75c-.26.08-.36.19-.3.35s.29.33.72.55a4.28,4.28,0,0,0,1.12.39,2.09,2.09,0,0,0,.94,0c.27-.08.37-.19.31-.35a1.65,1.65,0,0,0-.72-.55,4,4,0,0,0-1.12-.38,2.15,2.15,0,0,0-1,0m29.72-8.52c-.26.08-.36.19-.3.34s.3.34.72.56a4.28,4.28,0,0,0,1.12.39,2.3,2.3,0,0,0,1,0c.27-.08.37-.2.3-.35a1.58,1.58,0,0,0-.72-.55,3.75,3.75,0,0,0-1.11-.38,2.05,2.05,0,0,0-1,0m-20.92.58-.43.12q-.43.14-.51.27c0,.1,0,.2.23.3a1.55,1.55,0,0,0,.53.15,1.42,1.42,0,0,0,.55,0,.58.58,0,0,0,.33-.19.19.19,0,0,0,0-.25l-.69-.35M133,52.1l-.43.13q-.44.12-.51.27c0,.1,0,.19.23.29a1.49,1.49,0,0,0,.53.15,1.38,1.38,0,0,0,.54,0,.56.56,0,0,0,.33-.19.18.18,0,0,0,0-.25L133,52.1m22.05-6.32-.42.12c-.3.09-.47.18-.52.27s0,.2.23.3a1.55,1.55,0,0,0,.53.15,1.42,1.42,0,0,0,.55,0,.53.53,0,0,0,.33-.19.19.19,0,0,0,0-.25l-.69-.35M94.58,62.06c-.27.07-.36.18-.3.34a1.7,1.7,0,0,0,.73.54,3.74,3.74,0,0,0,1.09.38,2,2,0,0,0,.92,0c.32-.09.42-.23.29-.42l-1.61-.83a2.23,2.23,0,0,0-1.12,0m68.28-19.58c-.26.07-.35.18-.28.33a1.76,1.76,0,0,0,.74.55,4.11,4.11,0,0,0,1.08.38,1.93,1.93,0,0,0,.9,0c.33-.1.43-.24.27-.44L164,42.5a2.15,2.15,0,0,0-1.15,0m-76,21.78c-.27.07-.37.18-.3.34s.3.33.72.55a4.21,4.21,0,0,0,1.11.39,2.14,2.14,0,0,0,.95,0c.27-.08.37-.19.31-.35a1.71,1.71,0,0,0-.73-.55,4.43,4.43,0,0,0-1.11-.38,2.13,2.13,0,0,0-.95,0m31-8.9c-.26.07-.36.19-.3.34s.3.34.72.55a4.28,4.28,0,0,0,1.12.39,2.14,2.14,0,0,0,1,0c.26-.08.37-.19.3-.34s-.31-.34-.73-.56a4.23,4.23,0,0,0-1.1-.38,2.18,2.18,0,0,0-1,0m20.22-5.8c-.22.06-.31.15-.3.27s.16.26.41.41l1.52-.43-.06,0a2.85,2.85,0,0,0-.84-.25,1.76,1.76,0,0,0-.73,0m11.37-3.26c-.22.06-.31.15-.3.27s.16.26.41.41l1.52-.43-.06,0a2.61,2.61,0,0,0-.84-.26,1.6,1.6,0,0,0-.73,0m9.69-2.78c-.22.06-.32.15-.29.27s.15.26.4.42l1.52-.44-.06,0a2.61,2.61,0,0,0-.84-.26,1.76,1.76,0,0,0-.73,0M144.64,98.87a2.52,2.52,0,0,1-1.61-.19l-15.47-7.91c-.45-.23-.46-.51,0-.64l92.78-26.61a2.59,2.59,0,0,1,1.61.19l15.47,7.91c.45.23.46.52,0,.64L144.64,98.87M110.86,82.24l-4.07-2.08,38.06-10.92,4.08,2.08L110.86,82.24m-6.92-3.54-4.07-2.08,94.37-27.06,4.07,2.08L103.94,78.7M91.28,69l2.79,2.56c.4.37.34.64-.18.79a3.59,3.59,0,0,1-.45.07l-.63-.32.16,0c.2-.06.31-.12.34-.19s0-.15-.14-.26l-.19-.2-4.9-1.5.87-.24,3.23,1-1.76-1.48.86-.24m8.76-.08c.39-.11.51-.26.36-.44l-2.63-1.35.81-.23,3.65,1.87-.75.22-.38-.18c.05.22-.14.38-.58.51a2.91,2.91,0,0,1-1.22.07A4,4,0,0,1,98,69l-2.37-1.21.8-.23,2.36,1.21a1.73,1.73,0,0,0,1.26.19m9.47-2.23-3.66-1.87.8-.23,3.66,1.87-.8.23M97,70.35a4,4,0,0,1-1.72.09,5.52,5.52,0,0,1-1.83-.58l0,0a2.22,2.22,0,0,1-.76-.55.41.41,0,0,1-.08-.51,1.09,1.09,0,0,1,.63-.36,4.17,4.17,0,0,1,1.64-.1,5.71,5.71,0,0,1,1.75.51l.2.1a2.42,2.42,0,0,1,.77.55.44.44,0,0,1,.08.51,1.09,1.09,0,0,1-.64.36m3.66-3.69c-.12-.22,0-.38.33-.47a1,1,0,0,1,.32-.06l.77.39-.35.08c-.37.11-.47.25-.31.44l2.5,1.28-.8.22-3.65-1.86.76-.22.43.2m8.15-2.34c-.12-.22,0-.37.33-.47a1.91,1.91,0,0,1,.33-.06l.76.4-.35.07c-.37.11-.47.26-.31.44l2.5,1.28-.8.23-3.65-1.87.76-.22.43.2m5.7.52c.21-.06.33-.13.36-.2s0-.14-.16-.21a1.21,1.21,0,0,0-.52-.12,4.09,4.09,0,0,0-.78.06,6.12,6.12,0,0,1-.91.08,3,3,0,0,1-1.45-.26c-.32-.17-.46-.34-.41-.52s.27-.33.67-.44a3.82,3.82,0,0,1,1.36-.14,3.47,3.47,0,0,1,1.24.32l-.81.23a1.53,1.53,0,0,0-.56-.15,1.58,1.58,0,0,0-.62,0c-.17.05-.27.11-.3.19s0,.14.17.22a1.19,1.19,0,0,0,.45.1,5.49,5.49,0,0,0,.84-.07,7.83,7.83,0,0,1,1-.08,4.22,4.22,0,0,1,.75.06,2.61,2.61,0,0,1,.63.22c.33.17.46.34.4.53s-.31.33-.74.45a3.94,3.94,0,0,1-.94.14,4,4,0,0,1-1-.08,2.79,2.79,0,0,1-.8-.25l.77-.23a1.7,1.7,0,0,0,.67.17,2,2,0,0,0,.68-.07m4.26-3.41c-.06-.21.12-.38.52-.49a3.33,3.33,0,0,1,1.52,0,6.16,6.16,0,0,1,1.75.6l.06,0c.56.28.89.55,1,.8s-.09.42-.51.54a3.21,3.21,0,0,1-1.33.07l1.74.89-.8.23-5.07-2.59.74-.21.4.17m8,.4a4.2,4.2,0,0,1-1.72.08,5.57,5.57,0,0,1-1.83-.57l0,0a2.48,2.48,0,0,1-.76-.55.41.41,0,0,1-.07-.51,1,1,0,0,1,.62-.36,4.22,4.22,0,0,1,1.65-.1,5.79,5.79,0,0,1,1.75.51l.2.1a2.22,2.22,0,0,1,.76.55.41.41,0,0,1,.08.5,1.06,1.06,0,0,1-.64.37m3.13-1.39c.21-.06.33-.12.36-.2s0-.14-.16-.21a1.37,1.37,0,0,0-.52-.12,6.87,6.87,0,0,0-.78.06,8,8,0,0,1-.91.09,3.15,3.15,0,0,1-1.46-.27c-.31-.16-.45-.34-.4-.52s.27-.33.67-.44A3.57,3.57,0,0,1,128,58.7a3.23,3.23,0,0,1,1.24.31l-.8.23a1.48,1.48,0,0,0-.56-.15,1.8,1.8,0,0,0-.62,0c-.17,0-.27.11-.3.19s0,.14.17.22a1.06,1.06,0,0,0,.45.1,5.49,5.49,0,0,0,.84-.07,7.83,7.83,0,0,1,1-.08,3.54,3.54,0,0,1,.75.07,2.34,2.34,0,0,1,.63.21c.33.17.46.35.4.53s-.31.33-.74.45a3.49,3.49,0,0,1-.94.14,4.57,4.57,0,0,1-1-.07,3.13,3.13,0,0,1-.8-.26l.77-.22a2.13,2.13,0,0,0,.67.17,2,2,0,0,0,.68-.08m-16,2.61-.6-.31.58-.17-.89-.46.8-.23.89.46.63-.18.61.31-.63.18,2,1a1.12,1.12,0,0,0,.39.13.85.85,0,0,0,.38,0,1.33,1.33,0,0,0,.24-.1l.64.33a2.34,2.34,0,0,1-.45.19,2.7,2.7,0,0,1-2-.27l-2.07-1.06-.59.17m15.34-4.4-.61-.31.59-.17-.89-.46.8-.23.89.46.63-.18.61.31-.63.18,2,1a1.49,1.49,0,0,0,.38.14,1.08,1.08,0,0,0,.39,0,1.33,1.33,0,0,0,.24-.1l.63.33a2,2,0,0,1-.44.19,2.7,2.7,0,0,1-2-.27l-2.07-1.06-.59.17m-25.24,7.23-.6-.31.54-.15-.25-.13a1.44,1.44,0,0,1-.56-.43.28.28,0,0,1,0-.38,1.38,1.38,0,0,1,.61-.29,4.61,4.61,0,0,1,.56-.12l.65-.07.56.38a4.64,4.64,0,0,0-1,.16c-.24.07-.36.15-.36.23s.11.19.33.3l.23.12.7-.2.61.31-.7.2,3.05,1.56-.8.23-3-1.56-.55.15m8.58-6.48a1.17,1.17,0,0,1-.46,0,1.35,1.35,0,0,1-.43-.12c-.13-.07-.2-.13-.2-.2s.07-.12.21-.16a1.16,1.16,0,0,1,.46,0,1.25,1.25,0,0,1,.44.13c.12.06.18.12.19.19s-.06.12-.21.16m11.63-3.86c.39-.11.51-.26.36-.44l-2.62-1.34.8-.23,3.65,1.87-.75.21-.38-.17c0,.21-.14.38-.57.5a3,3,0,0,1-1.23.07,4,4,0,0,1-1.3-.43l-2.37-1.21.8-.23,2.35,1.21a1.68,1.68,0,0,0,1.26.19m11.44-5.71L138,52.05l-.7.2-4.9-1.51.83-.24,3.38,1.12-1.86-1.56.82-.23M90,65.86a4.21,4.21,0,0,1-1.72.08,5.74,5.74,0,0,1-1.83-.57l0,0a2.22,2.22,0,0,1-.76-.55c-.15-.19-.18-.35-.08-.5a1,1,0,0,1,.63-.37,4,4,0,0,1,1.64-.09,5.43,5.43,0,0,1,1.75.5l.2.1a2.37,2.37,0,0,1,.76.56.39.39,0,0,1,.08.5,1.08,1.08,0,0,1-.63.37m-.15-2.6c-.06-.24.12-.42.54-.55a3.35,3.35,0,0,1,2.44.35l2.42,1.24-.8.22-2.37-1.21a2.05,2.05,0,0,0-.66-.22,1.62,1.62,0,0,0-.65,0c-.32.1-.41.24-.27.44l2.61,1.33-.8.23-3.66-1.87.75-.22.45.21m7.62.45a3.5,3.5,0,0,1-1.53,0,6,6,0,0,1-1.81-.61c-.56-.29-.89-.55-1-.8s.1-.44.53-.56a3.19,3.19,0,0,1,1.39-.05l-.33-.2.72-.21L99,63.13c.48.24.71.48.7.7s-.27.41-.76.55a3.61,3.61,0,0,1-.94.13,4,4,0,0,1-1-.06l-.12-.36a3.18,3.18,0,0,0,1.36,0c.27-.07.4-.17.41-.29s-.14-.25-.42-.4L98,63.24c0,.2-.14.36-.53.47M97.55,61c-.12-.21,0-.37.33-.47l.33-.06.77.4-.35.08c-.37.1-.47.25-.31.43l2.5,1.28-.8.23-3.65-1.87.76-.22.42.2m2.16-.1a.73.73,0,0,1-.37-.34.33.33,0,0,1,.12-.36,1.39,1.39,0,0,1,.6-.29,3.62,3.62,0,0,1,1.32-.12,3.35,3.35,0,0,1,1.29.35l1.65.84a4.78,4.78,0,0,0,.92.37l.06,0-.82.23a2.23,2.23,0,0,1-.43-.15c0,.22-.16.37-.53.48a3.28,3.28,0,0,1-1.19.09,3.07,3.07,0,0,1-1.12-.3c-.38-.2-.54-.39-.47-.58s.37-.36.9-.51l.49-.14-.24-.12a1.81,1.81,0,0,0-.61-.19,1.53,1.53,0,0,0-.64.05c-.18,0-.29.12-.3.2s0,.16.17.23l-.8.23m9.46-1.07c.21-.06.33-.13.36-.2s0-.14-.16-.21a1.08,1.08,0,0,0-.52-.12,4.09,4.09,0,0,0-.78.06,6.11,6.11,0,0,1-.9.08,3,3,0,0,1-1.47-.27c-.31-.16-.45-.33-.4-.51s.27-.33.67-.45a4.07,4.07,0,0,1,1.36-.13,3.17,3.17,0,0,1,1.23.32l-.8.23a1.53,1.53,0,0,0-.56-.15,1.52,1.52,0,0,0-.61,0c-.18,0-.28.11-.31.18s0,.15.17.22a1.07,1.07,0,0,0,.45.11,7.21,7.21,0,0,0,.84-.07,6.32,6.32,0,0,1,1-.08,3.45,3.45,0,0,1,.75.06,2.77,2.77,0,0,1,.63.22c.33.17.46.34.4.52s-.31.33-.74.46a3.94,3.94,0,0,1-.94.14,4.53,4.53,0,0,1-1-.08,2.69,2.69,0,0,1-.8-.26l.77-.22a1.7,1.7,0,0,0,.67.17,2,2,0,0,0,.68-.07M121,57a4.21,4.21,0,0,1-1.72.08,5.82,5.82,0,0,1-1.83-.57l0,0a2.33,2.33,0,0,1-.76-.55.41.41,0,0,1-.08-.5,1,1,0,0,1,.63-.37,4,4,0,0,1,1.64-.09,5.84,5.84,0,0,1,1.76.5l.2.1a2.37,2.37,0,0,1,.76.56.39.39,0,0,1,.07.5A1.08,1.08,0,0,1,121,57m9-4.72a.74.74,0,0,1-.37-.35.33.33,0,0,1,.12-.36,1.54,1.54,0,0,1,.59-.29,3.66,3.66,0,0,1,1.33-.12,3.54,3.54,0,0,1,1.29.36l1.65.84a4.14,4.14,0,0,0,.92.36l.05,0-.81.24-.43-.15c0,.21-.16.37-.53.48a3.08,3.08,0,0,1-1.19.08,3,3,0,0,1-1.12-.3c-.39-.19-.55-.39-.47-.57s.37-.36.89-.51l.49-.14-.24-.12a1.83,1.83,0,0,0-.6-.19,1.58,1.58,0,0,0-.65,0c-.18.05-.28.12-.3.2s0,.15.18.23l-.8.23m11.28-1.11a4.38,4.38,0,0,1-1.72.11,5.27,5.27,0,0,1-1.78-.54l-.11-.05a2.43,2.43,0,0,1-.77-.56.43.43,0,0,1-.09-.51.94.94,0,0,1,.59-.36,3.8,3.8,0,0,1,1.59-.08,5.63,5.63,0,0,1,1.75.58l.33.17-2.32.66a3.27,3.27,0,0,0,1,.29,2.26,2.26,0,0,0,.92-.06c.37-.1.52-.26.44-.48l.85.09a.34.34,0,0,1-.06.42,1.27,1.27,0,0,1-.62.32m5.32-1.52a4,4,0,0,1-1.68.08,5.69,5.69,0,0,1-1.81-.57l-.09,0c-.55-.28-.85-.55-.89-.8s.18-.46.68-.6a3.6,3.6,0,0,1,1.41-.1,4.09,4.09,0,0,1,1.42.39l-.75.21a2.38,2.38,0,0,0-.73-.2,1.77,1.77,0,0,0-.7,0c-.26.07-.36.18-.31.32s.27.31.66.51l.14.06a3.74,3.74,0,0,0,1.09.4,1.92,1.92,0,0,0,.9,0c.2-.05.3-.13.32-.23s-.07-.19-.24-.29l.76-.21a1,1,0,0,1,.43.38.34.34,0,0,1-.06.39,1.22,1.22,0,0,1-.55.3m-.42-2.53c-.12-.22,0-.37.33-.47a1.28,1.28,0,0,1,.33-.06l.77.39-.36.08c-.36.11-.47.25-.31.44l2.51,1.28-.8.23-3.66-1.87.76-.22.43.2m6.47.79A4.38,4.38,0,0,1,151,48a5.2,5.2,0,0,1-1.78-.54l-.11,0a2.43,2.43,0,0,1-.77-.56.43.43,0,0,1-.09-.51.94.94,0,0,1,.58-.36,3.85,3.85,0,0,1,1.6-.08,5.63,5.63,0,0,1,1.75.58l.33.17-2.32.66a3.27,3.27,0,0,0,1,.29,2.27,2.27,0,0,0,.92-.06c.37-.1.51-.26.44-.48l.85.09a.34.34,0,0,1-.06.42,1.27,1.27,0,0,1-.62.32m-.6-2a.69.69,0,0,1-.37-.34.33.33,0,0,1,.12-.36,1.39,1.39,0,0,1,.6-.29,3.62,3.62,0,0,1,1.32-.12,3.74,3.74,0,0,1,1.29.35l1.65.85a5.43,5.43,0,0,0,.92.36l.06,0-.82.23a2.93,2.93,0,0,1-.43-.14c0,.21-.16.37-.53.47a3.51,3.51,0,0,1-2.31-.21c-.38-.2-.54-.39-.47-.58s.37-.35.9-.5l.49-.15-.24-.12a2.07,2.07,0,0,0-.61-.19,1.72,1.72,0,0,0-.64,0c-.18,0-.29.12-.3.2s0,.16.17.23l-.8.23m10.29-.82a4.41,4.41,0,0,1-1.73.11,5.34,5.34,0,0,1-1.78-.54l-.1,0a2.43,2.43,0,0,1-.77-.56.43.43,0,0,1-.09-.51.94.94,0,0,1,.58-.36,3.86,3.86,0,0,1,1.6-.08,5.63,5.63,0,0,1,1.75.58l.33.17-2.32.67a3.55,3.55,0,0,0,1,.28,2.48,2.48,0,0,0,.92,0c.37-.11.51-.27.44-.49l.85.09a.34.34,0,0,1-.06.42,1.23,1.23,0,0,1-.62.32M102.63,59.75l-.61-.31.58-.17-.89-.45.81-.23.89.45.63-.18.6.31-.62.18,2,1a1.32,1.32,0,0,0,.38.13,1,1,0,0,0,.38,0,1.45,1.45,0,0,0,.25-.09l.63.32a1.85,1.85,0,0,1-.45.19,2.61,2.61,0,0,1-2-.27l-2.07-1.06-.58.17m52.41-15-.61-.31.59-.17-.89-.45.8-.23.89.45.63-.18.6.31-.62.18,2,1a1.32,1.32,0,0,0,.38.13.87.87,0,0,0,.38,0,1.06,1.06,0,0,0,.25-.09l.63.32a1.85,1.85,0,0,1-.45.19,2.58,2.58,0,0,1-2-.27l-2.07-1.06-.59.17m-44.42,14L107.07,57l.84-.24,3.39,1.8-.68.19m3.64-3.81,1.5,2,1.81.93-.83.24-1.81-.93-4.72-1.13.92-.26,3.44.87-1.23-1.5.92-.27M85.89,67a4,4,0,0,1-1.29.14A6.2,6.2,0,0,1,83.14,67a7.43,7.43,0,0,1-1.45-.54l-.45-.23a3.16,3.16,0,0,1-1-.7c-.2-.23-.24-.43-.13-.61a1.18,1.18,0,0,1,.75-.45,4.62,4.62,0,0,1,1.72-.14,5.85,5.85,0,0,1,1.81.48l-.82.24a4.13,4.13,0,0,0-1.07-.31,2.56,2.56,0,0,0-1,.08q-.54.17-.42.45c.07.2.37.43.89.7l.44.22a5.7,5.7,0,0,0,1.5.54,2.53,2.53,0,0,0,1.23,0c.33-.09.5-.2.51-.32s-.14-.29-.44-.48l.83-.24c.48.29.7.55.66.79s-.32.45-.87.61m43-12.39L123.7,52l.8-.23,1.94,1c-.06-.24.12-.41.52-.53a3.39,3.39,0,0,1,2.49.36l2.39,1.22L131,54l-2.36-1.21a2,2,0,0,0-.7-.23,1.64,1.64,0,0,0-.62.06c-.32.09-.42.23-.28.43l2.61,1.33-.8.23m34.42-12.51-1.88-1,.8-.23,5.2,2.65-.73.21-.42-.18c.06.22-.11.39-.51.5a3.51,3.51,0,0,1-1.53,0,6.54,6.54,0,0,1-1.79-.61c-.56-.29-.89-.56-1-.8s.09-.44.52-.56a3,3,0,0,1,1.32,0M98.25,39a1.28,1.28,0,0,1-.74-.09c-.2-.11-.21-.24,0-.3a1.28,1.28,0,0,1,.74.09c.2.11.21.24,0,.3m8.7-3.1a1.17,1.17,0,0,1-.73-.08c-.21-.11-.22-.24,0-.3a1.1,1.1,0,0,1,.73.09c.21.11.21.24,0,.29m-4.84,2.51h0l-.26,0a1.37,1.37,0,0,1-.28-.05.7.7,0,0,1-.23-.1l-.84-.54-1.39-.15a1.18,1.18,0,0,1-.27-.06.68.68,0,0,1-.21-.11s-.07-.08-.06-.12a.13.13,0,0,1,.09-.09l.81-.36L99,36.3a.09.09,0,0,1,0-.12.22.22,0,0,1,.13-.08h0l.23,0a.9.9,0,0,1,.28,0l1.34.33,1.09-.21a1,1,0,0,1,.26,0,1.15,1.15,0,0,1,.28.06.9.9,0,0,1,.22.1.17.17,0,0,1,.08.12l0,.56,1.16.45a.56.56,0,0,1,.19.11.14.14,0,0,1,0,.11s0,.07-.12.09l0,0-.2,0-1.32,0-.37.49a.32.32,0,0,1-.13.07m-9,3.56h0l-.25,0L92.5,42a1,1,0,0,1-.23-.1L91,41.05l-2.09-.22a1.27,1.27,0,0,1-.28-.06.62.62,0,0,1-.2-.11s-.07-.08-.06-.11,0-.08.09-.1l1.2-.54L89,39s0-.08,0-.11a.22.22,0,0,1,.13-.09h0a.9.9,0,0,1,.25,0,1.35,1.35,0,0,1,.28,0l2,.49L93.24,39a.73.73,0,0,1,.26,0,.92.92,0,0,1,.28,0,.82.82,0,0,1,.21.1.17.17,0,0,1,.08.12l0,.84,1.75.67a.5.5,0,0,1,.18.11.11.11,0,0,1,0,.12.19.19,0,0,1-.12.09h0a.59.59,0,0,1-.2,0l-2,0-.56.74a.32.32,0,0,1-.13.07m-2.19-4.43a1.12,1.12,0,0,1-.74-.09c-.21-.1-.22-.23,0-.29a1.11,1.11,0,0,1,.73.09c.21.1.21.23,0,.29m6.61.19a1.09,1.09,0,0,1-.37,0,1.24,1.24,0,0,1-.37-.11l-3-1.52c-.1,0-.15-.11-.16-.17s0-.1.15-.13a1.09,1.09,0,0,1,.37,0,1.34,1.34,0,0,1,.37.11l3,1.52c.09.06.15.12.15.17s-.05.1-.14.13m1.36-3.07a1.2,1.2,0,0,1-.74-.09c-.2-.1-.21-.24,0-.29a1.2,1.2,0,0,1,.74.08c.2.11.21.24,0,.3M84.07,38.24a.52.52,0,0,1-.18,0h-.23l-.21,0a.91.91,0,0,1-.17-.08l-.84-.55-1.39-.15a1.27,1.27,0,0,1-.28-.06.75.75,0,0,1-.2-.1s-.07-.09-.06-.12,0-.07.09-.1l.8-.36-.48-.58s0-.08,0-.11a.24.24,0,0,1,.14-.09.65.65,0,0,1,.25,0l.28,0,1.33.33L84,36a.8.8,0,0,1,.27,0,1.37,1.37,0,0,1,.28,0,.9.9,0,0,1,.22.1.17.17,0,0,1,.08.12l0,.56,1.16.45a.43.43,0,0,1,.18.11.11.11,0,0,1,0,.12s0,.06-.11.09h0a.66.66,0,0,1-.21,0l-1.32,0-.37.49a.23.23,0,0,1-.13.07m17.15-4.55h0a1,1,0,0,1-.25,0,1.35,1.35,0,0,1-.29,0,.7.7,0,0,1-.23-.1l-1.25-.81-2.09-.23a1.4,1.4,0,0,1-.28-.06.75.75,0,0,1-.2-.1s-.07-.08-.06-.12a.17.17,0,0,1,.09-.1l1.21-.53-.73-.87a.11.11,0,0,1,0-.12s.06-.07.13-.09h0a.86.86,0,0,1,.24,0,1.33,1.33,0,0,1,.28,0l2,.5,1.64-.32a.78.78,0,0,1,.27,0,1.37,1.37,0,0,1,.28.05.69.69,0,0,1,.21.1s.08.08.07.12l0,.84,1.75.67a.7.7,0,0,1,.18.11s.06.08,0,.12,0,.07-.11.09h0a.66.66,0,0,1-.21,0l-2,0-.57.73a.2.2,0,0,1-.13.07m-8.31-.59-.07,0h-.19l-.2,0-.19-.05a.53.53,0,0,1-.15-.08.2.2,0,0,1-.08-.08.11.11,0,0,1,0-.08l.68-1.39a.27.27,0,0,1,.08-.07l.07,0,.07,0h.19l.21,0,.18.05a.53.53,0,0,1,.15.08.15.15,0,0,1,.08.08s0,.06,0,.08L93.05,33a.12.12,0,0,1-.07.07l-.07,0m-4.4.07a1,1,0,0,1-.36,0,1.24,1.24,0,0,1-.37-.11l-1.12-.57c-.1,0-.16-.11-.16-.16s0-.11.15-.13a.88.88,0,0,1,.37,0,1.34,1.34,0,0,1,.37.1l1.11.57c.1.06.16.12.16.17s0,.1-.15.13m5.79-2.55a1.14,1.14,0,0,1-.74-.09c-.21-.1-.21-.24,0-.29a1.2,1.2,0,0,1,.74.08c.21.11.21.24,0,.3m-10.15,3.8-.08,0h-.18l-3.67-.14a1.29,1.29,0,0,1-.4-.08.36.36,0,0,1-.22-.16s0-.11.07-.14l.06,0a.76.76,0,0,1,.27,0l3.67.13.2,0,.19.05.15.07a.22.22,0,0,1,.08.09.11.11,0,0,1,0,.08.12.12,0,0,1-.07.07l-.07,0m-6.61-.19a1.1,1.1,0,0,1-.73-.09c-.21-.1-.22-.23,0-.29a1.13,1.13,0,0,1,.74.09c.21.1.21.23,0,.29m18.9-5.42a1.16,1.16,0,0,1-.73-.08c-.21-.11-.22-.24,0-.3a1.1,1.1,0,0,1,.73.09c.21.1.21.23,0,.29m-5.52,5.63c-1.73-1.3-4.37-3.73-2.66-5.34a.17.17,0,0,1,.1-.06h0l.14,0h.21l.21,0,.18.06a.35.35,0,0,1,.11.09.12.12,0,0,1,0,.09s0,.05,0,.07c-1.67,1.58,1.42,4.14,3,5.27a1.61,1.61,0,0,1,.37-.52,2.8,2.8,0,0,1,1.26-.67,9.06,9.06,0,0,1,3-.23l.2,0a.85.85,0,0,1,.19.06.37.37,0,0,1,.14.08.13.13,0,0,1,.07.08.08.08,0,0,1,0,.08s0,.05-.09.07h0l-.13,0H97a7.51,7.51,0,0,0-2.45.18,2.35,2.35,0,0,0-1,.55,1.4,1.4,0,0,0-.34.49,7.35,7.35,0,0,1,3.34.4.42.42,0,0,1,.24.16s0,.11-.06.15l-.07,0a.65.65,0,0,1-.25,0,1.28,1.28,0,0,1-.39-.07,4.65,4.65,0,0,0-2.85-.15.4.4,0,0,0-.12,0c-.18.11-1.41,1,.8,2.5.08.05.12.1.1.15s-.06.08-.14.11h-.07l-.19,0-.2,0-.19-.05a.52.52,0,0,1-.15-.07c-1.74-1.17-1.64-2-1.32-2.52a9,9,0,0,0-1.38.26c-.83.24-1.55.65-1.53,1.35,0,0,0,0,0,.07a.29.29,0,0,1-.11.06l-.17,0h-.2l-.2,0-.17-.07a.31.31,0,0,1-.11-.08.25.25,0,0,1,0-.08c0-.83.84-1.32,1.83-1.6a10,10,0,0,1,1.62-.31,8.62,8.62,0,0,0-3.82,0,3.68,3.68,0,0,0-.91.39l-.1,0H86l-.2,0-.16-.07a.38.38,0,0,1-.09-.09.07.07,0,0,1,0-.08.12.12,0,0,1,.07-.07,4.16,4.16,0,0,1,1.08-.47,8.67,8.67,0,0,1,2.92-.23,58,58,0,0,0-12.34-1.74,1.18,1.18,0,0,1-.39-.08.36.36,0,0,1-.22-.16c0-.06,0-.11.08-.15l.06,0a.74.74,0,0,1,.27,0,58.14,58.14,0,0,1,13.9,2.09m-7.79-1.72h0l-.26,0a1.35,1.35,0,0,1-.29,0,.7.7,0,0,1-.23-.1l-1.25-.82L79,31.56a1.15,1.15,0,0,1-.28-.06.75.75,0,0,1-.2-.11.11.11,0,0,1-.06-.11.11.11,0,0,1,.09-.1l1.2-.54L79,29.77s0-.08,0-.11a.19.19,0,0,1,.13-.09h0a.83.83,0,0,1,.24,0l.28,0,2,.49,1.63-.31a1.1,1.1,0,0,1,.26,0,1.36,1.36,0,0,1,.29.06.82.82,0,0,1,.21.1.17.17,0,0,1,.08.12l0,.83,1.74.68a.48.48,0,0,1,.19.11.12.12,0,0,1,0,.12s0,.06-.11.09h0l-.2,0-2,0-.56.74a.22.22,0,0,1-.12.07m-.65-4.67a1.19,1.19,0,0,1-.74-.08c-.21-.11-.21-.24,0-.3a1.14,1.14,0,0,1,.74.09c.2.1.21.24,0,.29M72.16,33.32h0a1,1,0,0,1-.26,0l-.28-.05a1,1,0,0,1-.23-.1l-.84-.54-1.38-.15a1.15,1.15,0,0,1-.28-.06.68.68,0,0,1-.21-.11s-.07-.08-.06-.12a.13.13,0,0,1,.09-.09l.81-.36L69,31.19a.11.11,0,0,1,0-.12.22.22,0,0,1,.13-.08.9.9,0,0,1,.25,0,1.35,1.35,0,0,1,.28,0l1.34.32,1.08-.21h.27a1.15,1.15,0,0,1,.28.06.64.64,0,0,1,.22.1.17.17,0,0,1,.08.12l0,.55,1.16.45a.56.56,0,0,1,.19.11.12.12,0,0,1,0,.12s0,.07-.11.09h0a.62.62,0,0,1-.21,0l-1.31,0-.38.49a.26.26,0,0,1-.13.07m17.42-5h0a.65.65,0,0,1-.25,0,1,1,0,0,1-.29-.05.63.63,0,0,1-.22-.09L88,27.61l-1.38-.14a1.15,1.15,0,0,1-.28-.07.53.53,0,0,1-.2-.1s-.08-.08-.07-.12a.17.17,0,0,1,.09-.1l.8-.36-.48-.58a.1.1,0,0,1,0-.11.22.22,0,0,1,.13-.09h0a.88.88,0,0,1,.24,0l.29,0,1.33.33,1.09-.21a1.11,1.11,0,0,1,.26,0l.29.05.21.1q.09.08.09.12l0,.56,1.16.45a.5.5,0,0,1,.18.11s.06.08,0,.12,0,.07-.11.09h0a1.2,1.2,0,0,1-.2,0H90.08l-.37.49a.32.32,0,0,1-.13.08M74.46,29.76a1.28,1.28,0,0,1-.74-.09c-.2-.11-.21-.24,0-.3a1.28,1.28,0,0,1,.74.09c.2.11.21.24,0,.3M104.93.12.64,30c-.87.25-.85.83,0,1.29L142.4,103.74a5.09,5.09,0,0,0,3.21.38L249.9,74.21c.88-.25.86-.83,0-1.29L108.14.49a5.08,5.08,0,0,0-3.21-.37" style="fill:#fff"/><path d="M79.14,29.57h0a.19.19,0,0,0-.13.09s0,.07,0,.11l.72.87-1.2.54a.11.11,0,0,0-.09.1.11.11,0,0,0,.06.11.75.75,0,0,0,.2.11,1.15,1.15,0,0,0,.28.06l2.09.22,1.25.82a.7.7,0,0,0,.23.1,1.35,1.35,0,0,0,.29,0l.26,0h0a.22.22,0,0,0,.12-.07l.56-.74,2,0,.2,0h0c.06,0,.1-.05.11-.09a.12.12,0,0,0,0-.12.48.48,0,0,0-.19-.11l-1.74-.68,0-.83a.17.17,0,0,0-.08-.12.82.82,0,0,0-.21-.1,1.36,1.36,0,0,0-.29-.06,1.1,1.1,0,0,0-.26,0l-1.63.31-2-.49-.28,0a.83.83,0,0,0-.24,0" style="fill:#ff2d55"/><path d="M97.24,30.54h0c-.07,0-.12.05-.13.09a.11.11,0,0,0,0,.12l.73.87-1.21.53a.17.17,0,0,0-.09.1s0,.08.06.12a.75.75,0,0,0,.2.1,1.4,1.4,0,0,0,.28.06l2.09.23,1.25.81a.7.7,0,0,0,.23.1,1.35,1.35,0,0,0,.29,0,1,1,0,0,0,.25,0h0a.2.2,0,0,0,.13-.07l.57-.73,2,0a.66.66,0,0,0,.21,0h0c.06,0,.1,0,.11-.09s0-.08,0-.12a.7.7,0,0,0-.18-.11l-1.75-.67,0-.84s0-.08-.07-.12a.69.69,0,0,0-.21-.1,1.37,1.37,0,0,0-.28-.05.78.78,0,0,0-.27,0l-1.64.32-2-.5a1.33,1.33,0,0,0-.28,0,.86.86,0,0,0-.24,0" style="fill:#ff9500"/><path d="M86.54,25.94h0a.22.22,0,0,0-.13.09.1.1,0,0,0,0,.11l.48.58-.8.36a.17.17,0,0,0-.09.1s0,.08.07.12a.53.53,0,0,0,.2.1,1.15,1.15,0,0,0,.28.07l1.38.14.84.55a.63.63,0,0,0,.22.09,1,1,0,0,0,.29.05.65.65,0,0,0,.25,0h0a.32.32,0,0,0,.13-.08l.37-.49H91.4a1.2,1.2,0,0,0,.2,0h0c.07,0,.1-.05.11-.09s0-.08,0-.12a.5.5,0,0,0-.18-.11l-1.16-.45,0-.56s0-.07-.09-.12l-.21-.1-.29-.05a1.11,1.11,0,0,0-.26,0l-1.09.21L87.07,26l-.29,0a.88.88,0,0,0-.24,0" style="fill:#007aff"/><path d="M69.12,31a.22.22,0,0,0-.13.08.11.11,0,0,0,0,.12l.49.58-.81.36a.13.13,0,0,0-.09.09s0,.08.06.12a.68.68,0,0,0,.21.11,1.15,1.15,0,0,0,.28.06l1.38.15.84.54a1,1,0,0,0,.23.1l.28.05a1,1,0,0,0,.26,0h0a.26.26,0,0,0,.13-.07l.38-.49,1.31,0a.62.62,0,0,0,.21,0h0c.06,0,.1-.05.11-.09a.12.12,0,0,0,0-.12.56.56,0,0,0-.19-.11l-1.16-.45,0-.55a.17.17,0,0,0-.08-.12.64.64,0,0,0-.22-.1,1.15,1.15,0,0,0-.28-.06h-.27L71,31.32,69.65,31a1.35,1.35,0,0,0-.28,0,.9.9,0,0,0-.25,0" style="fill:#ff9500"/><path d="M99.09,36.09h0a.22.22,0,0,0-.13.08.09.09,0,0,0,0,.12l.49.58-.81.36a.13.13,0,0,0-.09.09s0,.08.06.12a.68.68,0,0,0,.21.11,1.18,1.18,0,0,0,.27.06l1.39.15.84.54a.7.7,0,0,0,.23.1,1.37,1.37,0,0,0,.28.05l.26,0h0a.32.32,0,0,0,.13-.07l.37-.49,1.32,0,.2,0,0,0q.11,0,.12-.09a.14.14,0,0,0,0-.11.56.56,0,0,0-.19-.11l-1.16-.45,0-.56a.17.17,0,0,0-.08-.12.9.9,0,0,0-.22-.1,1.15,1.15,0,0,0-.28-.06,1,1,0,0,0-.26,0l-1.09.21-1.34-.33a.9.9,0,0,0-.28,0l-.23,0" style="fill:#007aff"/><path d="M81,35.91a.24.24,0,0,0-.14.09s0,.07,0,.11l.48.58-.8.36s-.09.06-.09.1,0,.08.06.12a.75.75,0,0,0,.2.1,1.27,1.27,0,0,0,.28.06l1.39.15.84.55a.91.91,0,0,0,.17.08l.21,0h.23a.52.52,0,0,0,.18,0,.23.23,0,0,0,.13-.07l.37-.49,1.32,0a.66.66,0,0,0,.21,0h0c.06,0,.1-.06.11-.09a.11.11,0,0,0,0-.12.43.43,0,0,0-.18-.11l-1.16-.45,0-.56a.17.17,0,0,0-.08-.12.9.9,0,0,0-.22-.1,1.37,1.37,0,0,0-.28,0A.8.8,0,0,0,84,36l-1.09.21-1.33-.33-.28,0a.65.65,0,0,0-.25,0" style="fill:#007aff"/><path d="M89.07,38.84h0a.22.22,0,0,0-.13.09s0,.07,0,.11l.73.87-1.2.54s-.09.06-.09.1,0,.07.06.11a.62.62,0,0,0,.2.11,1.27,1.27,0,0,0,.28.06l2.09.22,1.25.82a1,1,0,0,0,.23.1l.29.05L93,42h0a.32.32,0,0,0,.13-.07l.56-.74,2,0a.59.59,0,0,0,.2,0h0a.19.19,0,0,0,.12-.09.11.11,0,0,0,0-.12.5.5,0,0,0-.18-.11l-1.75-.67,0-.84a.17.17,0,0,0-.08-.12.82.82,0,0,0-.21-.1.92.92,0,0,0-.28,0,.73.73,0,0,0-.26,0l-1.65.31-2-.49a1.35,1.35,0,0,0-.28,0,.9.9,0,0,0-.25,0" style="fill:#ff2d55"/><path d="M81.73,27.67c-.2.06-.2.19,0,.3a1.19,1.19,0,0,0,.74.08c.2-.05.19-.19,0-.29a1.14,1.14,0,0,0-.74-.09" style="fill:#ff9500"/><path d="M93.55,30.24c-.2.05-.2.19,0,.29a1.14,1.14,0,0,0,.74.09c.2-.06.2-.19,0-.3a1.2,1.2,0,0,0-.74-.08" style="fill:#ff9500"/><path d="M76.79,33.85c-.2.06-.19.19,0,.29a1.1,1.1,0,0,0,.73.09c.2-.06.2-.19,0-.29a1.13,1.13,0,0,0-.74-.09" style="fill:#4cd964"/><path d="M90.12,37.18c-.21.06-.2.19,0,.29a1.12,1.12,0,0,0,.74.09c.19-.06.19-.19,0-.29a1.11,1.11,0,0,0-.73-.09" style="fill:#ff9500"/><path d="M106.21,35.54c-.21.06-.2.19,0,.3a1.17,1.17,0,0,0,.73.08c.2-.05.2-.18,0-.29a1.1,1.1,0,0,0-.73-.09" style="fill:#4cd964"/><path d="M88.39,29h0a.17.17,0,0,0-.1.06c-1.71,1.61.93,4,2.66,5.34A58.14,58.14,0,0,0,77,32.35a.74.74,0,0,0-.27,0l-.06,0c-.08,0-.11.09-.08.15a.36.36,0,0,0,.22.16,1.18,1.18,0,0,0,.39.08,58,58,0,0,1,12.34,1.74,8.67,8.67,0,0,0-2.92.23,4.16,4.16,0,0,0-1.08.47.12.12,0,0,0-.07.07.07.07,0,0,0,0,.08.38.38,0,0,0,.09.09l.16.07.2,0h.41l.1,0a3.68,3.68,0,0,1,.91-.39,8.62,8.62,0,0,1,3.82,0,10,10,0,0,0-1.62.31c-1,.28-1.85.77-1.83,1.6a.25.25,0,0,0,0,.08.31.31,0,0,0,.11.08l.17.07.2,0h.2l.17,0a.29.29,0,0,0,.11-.06s0,0,0-.07c0-.7.7-1.11,1.53-1.35a9,9,0,0,1,1.38-.26c-.32.49-.42,1.35,1.32,2.52a.52.52,0,0,0,.15.07l.19.05.2,0,.19,0h.07c.08,0,.14-.06.14-.11s0-.1-.1-.15c-2.21-1.49-1-2.39-.8-2.5a.4.4,0,0,1,.12,0,4.65,4.65,0,0,1,2.85.15,1.28,1.28,0,0,0,.39.07.65.65,0,0,0,.25,0l.07,0c.07,0,.09-.1.06-.15a.42.42,0,0,0-.24-.16,7.35,7.35,0,0,0-3.34-.4,1.4,1.4,0,0,1,.34-.49,2.35,2.35,0,0,1,1-.55A7.51,7.51,0,0,1,97,33.64h.19l.13,0h0s.08,0,.09-.07a.08.08,0,0,0,0-.08.13.13,0,0,0-.07-.08.37.37,0,0,0-.14-.08.85.85,0,0,0-.19-.06l-.2,0a9.06,9.06,0,0,0-3,.23,2.8,2.8,0,0,0-1.26.67,1.61,1.61,0,0,0-.37.52c-1.56-1.13-4.65-3.69-3-5.27,0,0,0,0,0-.07a.12.12,0,0,0,0-.09.35.35,0,0,0-.11-.09L89,29.05l-.21,0h-.21l-.14,0" style="fill:#939598"/><path d="M98.09,34.3c-.2.05-.19.19,0,.29a1.2,1.2,0,0,0,.74.09c.2-.06.19-.19,0-.3a1.2,1.2,0,0,0-.74-.08" style="fill:#ff9500"/><path d="M97.5,38.63c-.2.06-.19.19,0,.3a1.28,1.28,0,0,0,.74.09c.2-.06.19-.19,0-.3a1.28,1.28,0,0,0-.74-.09" style="fill:#4cd964"/><path d="M73.71,29.37c-.2.06-.19.19,0,.3a1.28,1.28,0,0,0,.74.09c.2-.06.19-.19,0-.3a1.28,1.28,0,0,0-.74-.09" style="fill:#4cd964"/><path d="M95.7,28.43c-.21.06-.2.19,0,.3a1.16,1.16,0,0,0,.73.08c.2-.06.2-.19,0-.29a1.1,1.1,0,0,0-.73-.09" style="fill:#4cd964"/><path d="M93.74,35.84c-.1,0-.15.08-.15.13s.06.12.16.17l3,1.52a1.24,1.24,0,0,0,.37.11,1.09,1.09,0,0,0,.37,0c.09,0,.14-.07.14-.13s-.06-.11-.15-.17l-3-1.52a1.34,1.34,0,0,0-.37-.11,1.09,1.09,0,0,0-.37,0" style="fill:#5ac8fa"/><path d="M92.86,31.33l-.07,0a.27.27,0,0,0-.08.07L92,32.81a.11.11,0,0,0,0,.08.2.2,0,0,0,.08.08.53.53,0,0,0,.15.08l.19.05.2,0h.19l.07,0,.07,0a.12.12,0,0,0,.07-.07l.69-1.39s0-.05,0-.08a.15.15,0,0,0-.08-.08.53.53,0,0,0-.15-.08l-.18-.05-.21,0h-.19l-.07,0" style="fill:#5ac8fa"/><path d="M86.65,32.22c-.1,0-.15.07-.15.13s.06.11.16.16l1.12.57a1.24,1.24,0,0,0,.37.11,1,1,0,0,0,.36,0c.1,0,.15-.07.15-.13s-.06-.11-.16-.17l-1.11-.57a1.34,1.34,0,0,0-.37-.1.88.88,0,0,0-.37,0" style="fill:#5ac8fa"/><path d="M79.73,33.9l-.06,0c-.08,0-.1.09-.07.14a.36.36,0,0,0,.22.16,1.29,1.29,0,0,0,.4.08l3.67.14h.18l.08,0,.07,0a.12.12,0,0,0,.07-.07.11.11,0,0,0,0-.08.22.22,0,0,0-.08-.09l-.15-.07L83.87,34l-.2,0L80,33.88a.76.76,0,0,0-.27,0" style="fill:#5ac8fa"/><path d="M91.28,69l-.86.24,1.76,1.48-3.23-1-.87.24,4.9,1.5.19.2c.13.11.17.19.14.26s-.14.13-.34.19l-.16,0,.63.32a3.59,3.59,0,0,0,.45-.07c.52-.15.58-.42.18-.79L91.28,69m7.3-2.1-.81.23,2.63,1.35c.15.18,0,.33-.36.44a1.73,1.73,0,0,1-1.26-.19l-2.36-1.21-.8.23L98,69a4,4,0,0,0,1.31.43,2.91,2.91,0,0,0,1.22-.07c.44-.13.63-.29.58-.51l.38.18.75-.22-3.65-1.87m8.07-2.31-.8.23,3.66,1.87.8-.23-3.66-1.87M96.32,70a2.09,2.09,0,0,1-.94,0,4.28,4.28,0,0,1-1.12-.39c-.43-.22-.66-.4-.72-.55s0-.27.3-.35a2.15,2.15,0,0,1,1,0,4,4,0,0,1,1.12.38,1.65,1.65,0,0,1,.72.55c.06.16,0,.27-.31.35m-3.14-1.6a1.09,1.09,0,0,0-.63.36.41.41,0,0,0,.08.51,2.22,2.22,0,0,0,.76.55l0,0a5.52,5.52,0,0,0,1.83.58A4,4,0,0,0,97,70.35a1.09,1.09,0,0,0,.64-.36.44.44,0,0,0-.08-.51,2.42,2.42,0,0,0-.77-.55l-.2-.1a5.71,5.71,0,0,0-1.75-.51,4.17,4.17,0,0,0-1.64.1M101,66.19c-.34.09-.45.25-.33.47l-.43-.2-.76.22,3.65,1.86.8-.22L101.4,67c-.16-.19-.06-.33.31-.44l.35-.08-.77-.39a1,1,0,0,0-.32.06m8.15-2.34c-.34.1-.45.25-.33.47l-.43-.2-.76.22,3.65,1.87.8-.23-2.5-1.28c-.16-.18-.06-.33.31-.44l.35-.07-.76-.4a1.91,1.91,0,0,0-.33.06m2.17-.62c-.4.11-.62.26-.67.44s.09.35.41.52a3,3,0,0,0,1.45.26,6.12,6.12,0,0,0,.91-.08,4.09,4.09,0,0,1,.78-.06,1.21,1.21,0,0,1,.52.12c.13.07.19.14.16.21s-.15.14-.36.2a2,2,0,0,1-.68.07,1.7,1.7,0,0,1-.67-.17l-.77.23a2.79,2.79,0,0,0,.8.25,4,4,0,0,0,1,.08,3.94,3.94,0,0,0,.94-.14c.43-.12.68-.27.74-.45s-.07-.36-.4-.53a2.61,2.61,0,0,0-.63-.22,4.22,4.22,0,0,0-.75-.06,7.83,7.83,0,0,0-1,.08,5.49,5.49,0,0,1-.84.07,1.19,1.19,0,0,1-.45-.1c-.14-.08-.2-.15-.17-.22s.13-.14.3-.19a1.58,1.58,0,0,1,.62,0,1.53,1.53,0,0,1,.56.15l.81-.23a3.47,3.47,0,0,0-1.24-.32,3.82,3.82,0,0,0-1.36.14m10.9-.63a2.2,2.2,0,0,1-1.14,0l-1.62-.83c-.13-.18,0-.32.29-.42a2.07,2.07,0,0,1,.93,0,3.78,3.78,0,0,1,1.08.38c.43.22.68.4.74.55s0,.26-.28.33m-2.92-1.66c-.4.11-.58.28-.52.49l-.4-.17-.74.21,5.07,2.59.8-.23-1.74-.89a3.21,3.21,0,0,0,1.33-.07q.63-.18.51-.54c-.09-.25-.42-.52-1-.8l-.06,0a6.16,6.16,0,0,0-1.75-.6,3.33,3.33,0,0,0-1.52,0m6.78.56a2.3,2.3,0,0,1-1,0,4.28,4.28,0,0,1-1.12-.39c-.42-.22-.66-.4-.72-.56s0-.26.3-.34a2.05,2.05,0,0,1,1,0,3.75,3.75,0,0,1,1.11.38,1.58,1.58,0,0,1,.72.55c.07.15,0,.27-.3.35m-3.15-1.6a1,1,0,0,0-.62.36.41.41,0,0,0,.07.51,2.48,2.48,0,0,0,.76.55l0,0a5.57,5.57,0,0,0,1.83.57,4.2,4.2,0,0,0,1.72-.08,1.06,1.06,0,0,0,.64-.37.41.41,0,0,0-.08-.5,2.22,2.22,0,0,0-.76-.55l-.2-.1a5.79,5.79,0,0,0-1.75-.51,4.22,4.22,0,0,0-1.65.1m3.73-1.07c-.4.11-.62.26-.67.44s.09.36.4.52a3.15,3.15,0,0,0,1.46.27,8,8,0,0,0,.91-.09,6.87,6.87,0,0,1,.78-.06A1.37,1.37,0,0,1,130,60c.13.07.18.14.16.21s-.15.14-.36.2a2,2,0,0,1-.68.08,2.13,2.13,0,0,1-.67-.17l-.77.22a3.13,3.13,0,0,0,.8.26,4.57,4.57,0,0,0,1,.07,3.49,3.49,0,0,0,.94-.14c.43-.12.68-.27.74-.45s-.07-.36-.4-.53a2.34,2.34,0,0,0-.63-.21,3.54,3.54,0,0,0-.75-.07,7.83,7.83,0,0,0-1,.08,5.49,5.49,0,0,1-.84.07,1.06,1.06,0,0,1-.45-.1c-.14-.08-.2-.15-.17-.22s.13-.14.3-.19a1.8,1.8,0,0,1,.62,0,1.48,1.48,0,0,1,.56.15l.8-.23A3.23,3.23,0,0,0,128,58.7a3.57,3.57,0,0,0-1.35.13m-12.95,3.05-.8.23.89.46-.58.17.6.31.59-.17,2.07,1.06a2.7,2.7,0,0,0,2,.27,2.34,2.34,0,0,0,.45-.19l-.64-.33a1.33,1.33,0,0,1-.24.1.85.85,0,0,1-.38,0,1.12,1.12,0,0,1-.39-.13l-2-1,.63-.18-.61-.31-.63.18-.89-.46M129,57.48l-.8.23.89.46-.59.17.61.31.59-.17,2.07,1.06a2.7,2.7,0,0,0,2,.27,2,2,0,0,0,.44-.19l-.63-.33a1.33,1.33,0,0,1-.24.1,1.08,1.08,0,0,1-.39,0,1.49,1.49,0,0,1-.38-.14l-2-1,.63-.18-.61-.31-.63.18-.89-.46m-25.36,6.71a1.38,1.38,0,0,0-.61.29.28.28,0,0,0,0,.38,1.44,1.44,0,0,0,.56.43l.25.13-.54.15.6.31.55-.15,3,1.56.8-.23-3.05-1.56.7-.2-.61-.31-.7.2-.23-.12q-.33-.16-.33-.3c0-.08.12-.16.36-.23a4.64,4.64,0,0,1,1-.16l-.56-.38-.65.07a4.61,4.61,0,0,0-.56.12M111.59,59c-.14,0-.21.09-.21.16s.07.13.2.2a1.35,1.35,0,0,0,.43.12,1.17,1.17,0,0,0,.46,0c.15,0,.21-.1.21-.16s-.07-.13-.19-.19a1.25,1.25,0,0,0-.44-.13,1.16,1.16,0,0,0-.46,0m11-5.42-.8.23,2.62,1.34c.15.18,0,.33-.36.44a1.68,1.68,0,0,1-1.26-.19l-2.35-1.21-.8.23,2.37,1.21a4,4,0,0,0,1.3.43,3,3,0,0,0,1.23-.07c.43-.12.62-.29.57-.5l.38.17.75-.21-3.65-1.87m12.9-3.7-.82.23,1.86,1.56L133.2,50.5l-.83.24,4.9,1.51.7-.2-2.43-2.22M89.35,65.52a2.14,2.14,0,0,1-.95,0,4.21,4.21,0,0,1-1.11-.39c-.42-.22-.67-.4-.72-.55s0-.27.3-.34a2.13,2.13,0,0,1,.95,0,4.43,4.43,0,0,1,1.11.38,1.71,1.71,0,0,1,.73.55c.06.16,0,.27-.31.35m-3.14-1.6a1,1,0,0,0-.63.37c-.1.15-.07.31.08.5a2.22,2.22,0,0,0,.76.55l0,0a5.74,5.74,0,0,0,1.83.57A4.21,4.21,0,0,0,90,65.86a1.08,1.08,0,0,0,.63-.37.39.39,0,0,0-.08-.5,2.37,2.37,0,0,0-.76-.56l-.2-.1a5.43,5.43,0,0,0-1.75-.5,4,4,0,0,0-1.64.09m4.19-1.21c-.42.13-.6.31-.54.55l-.45-.21-.75.22,3.66,1.87.8-.23-2.61-1.33c-.14-.2-.05-.34.27-.44a1.62,1.62,0,0,1,.65,0,2.05,2.05,0,0,1,.66.22l2.37,1.21.8-.22-2.42-1.24a3.35,3.35,0,0,0-2.44-.35m6.62.6a2,2,0,0,1-.92,0A3.74,3.74,0,0,1,95,62.94a1.7,1.7,0,0,1-.73-.54c-.06-.16,0-.27.3-.34a2.23,2.23,0,0,1,1.12,0l1.61.83c.13.19,0,.33-.29.42M93.7,61.77c-.43.12-.6.31-.53.56s.41.51,1,.8a6,6,0,0,0,1.81.61,3.5,3.5,0,0,0,1.53,0c.39-.11.57-.27.53-.47l.25.13c.28.15.43.28.42.4s-.14.22-.41.29a3.18,3.18,0,0,1-1.36,0l.12.36a4,4,0,0,0,1,.06,3.61,3.61,0,0,0,.94-.13c.49-.14.75-.32.76-.55s-.22-.46-.7-.7l-3.55-1.82-.72.21.33.2a3.19,3.19,0,0,0-1.39.05m4.18-1.2c-.34.1-.45.26-.33.47l-.42-.2-.76.22L100,62.93l.8-.23-2.5-1.28c-.16-.18-.06-.33.31-.43l.35-.08-.77-.4-.33.06m5.13,1a1.42,1.42,0,0,1-.55,0,1.55,1.55,0,0,1-.53-.15c-.2-.1-.27-.2-.23-.3s.22-.18.51-.27l.43-.12.69.35a.19.19,0,0,1,0,.25.58.58,0,0,1-.33.19m-3-1.65a1.39,1.39,0,0,0-.6.29.33.33,0,0,0-.12.36.73.73,0,0,0,.37.34l.8-.23c-.14-.07-.2-.15-.17-.23s.12-.15.3-.2a1.53,1.53,0,0,1,.64-.05,1.81,1.81,0,0,1,.61.19l.24.12-.49.14c-.53.15-.82.32-.9.51s.09.38.47.58a3.07,3.07,0,0,0,1.12.3,3.28,3.28,0,0,0,1.19-.09c.37-.11.55-.26.53-.48a2.23,2.23,0,0,0,.43.15l.82-.23-.06,0a4.78,4.78,0,0,1-.92-.37l-1.65-.84a3.35,3.35,0,0,0-1.29-.35,3.62,3.62,0,0,0-1.32.12m5.91-1.7c-.4.12-.62.27-.67.45s.09.35.4.51a3,3,0,0,0,1.47.27,6.11,6.11,0,0,0,.9-.08,4.09,4.09,0,0,1,.78-.06,1.08,1.08,0,0,1,.52.12c.13.07.18.14.16.21s-.15.14-.36.2a2,2,0,0,1-.68.07,1.7,1.7,0,0,1-.67-.17l-.77.22a2.69,2.69,0,0,0,.8.26,4.53,4.53,0,0,0,1,.08,3.94,3.94,0,0,0,.94-.14c.43-.13.68-.28.74-.46s-.07-.35-.4-.52a2.77,2.77,0,0,0-.63-.22,3.45,3.45,0,0,0-.75-.06,6.32,6.32,0,0,0-1,.08,7.21,7.21,0,0,1-.84.07,1.07,1.07,0,0,1-.45-.11c-.14-.07-.2-.14-.17-.22s.13-.13.31-.18a1.52,1.52,0,0,1,.61,0,1.53,1.53,0,0,1,.56.15l.8-.23a3.17,3.17,0,0,0-1.23-.32,4.07,4.07,0,0,0-1.36.13m14.42-1.63a2.14,2.14,0,0,1-1,0,4.28,4.28,0,0,1-1.12-.39c-.42-.21-.66-.4-.72-.55s0-.27.3-.34a2.18,2.18,0,0,1,1,0,4.23,4.23,0,0,1,1.1.38c.42.22.66.4.73.56s0,.26-.3.34M117.24,55a1,1,0,0,0-.63.37.41.41,0,0,0,.08.5,2.33,2.33,0,0,0,.76.55l0,0a5.82,5.82,0,0,0,1.83.57A4.21,4.21,0,0,0,121,57a1.08,1.08,0,0,0,.63-.37.39.39,0,0,0-.07-.5,2.37,2.37,0,0,0-.76-.56l-.2-.1a5.84,5.84,0,0,0-1.76-.5,4,4,0,0,0-1.64.09m16.12-2.12a1.38,1.38,0,0,1-.54,0,1.49,1.49,0,0,1-.53-.15c-.2-.1-.27-.19-.23-.29s.22-.19.51-.27l.43-.13.69.36a.18.18,0,0,1,0,.25.56.56,0,0,1-.33.19m-3-1.66a1.54,1.54,0,0,0-.59.29.33.33,0,0,0-.12.36.74.74,0,0,0,.37.35l.8-.23c-.15-.08-.21-.15-.18-.23s.12-.15.3-.2a1.58,1.58,0,0,1,.65,0,1.83,1.83,0,0,1,.6.19l.24.12L132,52c-.52.15-.82.32-.89.51s.08.38.47.57a3,3,0,0,0,1.12.3,3.08,3.08,0,0,0,1.19-.08c.37-.11.54-.27.53-.48l.43.15.81-.24-.05,0a4.14,4.14,0,0,1-.92-.36L133,51.48a3.54,3.54,0,0,0-1.29-.36,3.66,3.66,0,0,0-1.33.12m7.82-1c-.25-.15-.38-.29-.41-.41s.08-.21.3-.27a1.76,1.76,0,0,1,.73,0,2.85,2.85,0,0,1,.84.25l.06,0-1.52.43m-.76-1a.94.94,0,0,0-.59.36.43.43,0,0,0,.09.51,2.43,2.43,0,0,0,.77.56l.11.05a5.27,5.27,0,0,0,1.78.54,4.38,4.38,0,0,0,1.72-.11,1.27,1.27,0,0,0,.62-.32.34.34,0,0,0,.06-.42l-.85-.09c.08.22-.07.38-.44.48a2.26,2.26,0,0,1-.92.06,3.27,3.27,0,0,1-1-.29l2.32-.66-.33-.17a5.63,5.63,0,0,0-1.75-.58,3.8,3.8,0,0,0-1.59.08m5.41-1.55c-.5.14-.73.34-.68.6s.34.52.89.8l.09,0a5.69,5.69,0,0,0,1.81.57,4,4,0,0,0,1.68-.08,1.22,1.22,0,0,0,.55-.3.34.34,0,0,0,.06-.39,1,1,0,0,0-.43-.38l-.76.21c.17.1.25.19.24.29s-.12.18-.32.23a1.92,1.92,0,0,1-.9,0,3.74,3.74,0,0,1-1.09-.4l-.14-.06q-.58-.3-.66-.51c-.05-.14.05-.25.31-.32a1.77,1.77,0,0,1,.7,0,2.38,2.38,0,0,1,.73.2l.75-.21a4.09,4.09,0,0,0-1.42-.39,3.6,3.6,0,0,0-1.41.1m3.7-1.06c-.34.1-.45.25-.33.47l-.43-.2-.76.22L148.72,49l.8-.23L147,47.46c-.16-.19,0-.33.31-.44l.36-.08-.77-.39a1.28,1.28,0,0,0-.33.06m3,.37c-.25-.15-.38-.29-.41-.41s.08-.21.3-.27a1.6,1.6,0,0,1,.73,0,2.61,2.61,0,0,1,.84.26l.06,0L149.6,47m-.77-1a.94.94,0,0,0-.58.36.43.43,0,0,0,.09.51,2.43,2.43,0,0,0,.77.56l.11,0A5.2,5.2,0,0,0,151,48a4.38,4.38,0,0,0,1.72-.11,1.27,1.27,0,0,0,.62-.32.34.34,0,0,0,.06-.42l-.85-.09c.07.22-.07.38-.44.48a2.27,2.27,0,0,1-.92.06,3.27,3.27,0,0,1-1-.29l2.32-.66-.33-.17a5.63,5.63,0,0,0-1.75-.58,3.85,3.85,0,0,0-1.6.08m6.59.61a1.42,1.42,0,0,1-.55,0,1.55,1.55,0,0,1-.53-.15c-.19-.1-.27-.2-.23-.3s.22-.18.52-.27l.42-.12.69.35a.19.19,0,0,1,0,.25.53.53,0,0,1-.33.19m-2.95-1.65a1.39,1.39,0,0,0-.6.29.33.33,0,0,0-.12.36.69.69,0,0,0,.37.34l.8-.23c-.14-.07-.2-.15-.17-.23s.12-.15.3-.2a1.72,1.72,0,0,1,.64,0,2.07,2.07,0,0,1,.61.19l.24.12-.49.15c-.53.15-.82.32-.9.5s.09.38.47.58a3.51,3.51,0,0,0,2.31.21c.37-.1.55-.26.53-.47a2.93,2.93,0,0,0,.43.14l.82-.23-.06,0a5.43,5.43,0,0,1-.92-.36l-1.65-.85a3.74,3.74,0,0,0-1.29-.35,3.62,3.62,0,0,0-1.32.12m6.82-.71c-.25-.16-.38-.3-.4-.42s.07-.21.29-.27a1.76,1.76,0,0,1,.73,0,2.61,2.61,0,0,1,.84.26l.06,0-1.52.44m-.77-1a.94.94,0,0,0-.58.36.43.43,0,0,0,.09.51,2.43,2.43,0,0,0,.77.56l.1,0a5.34,5.34,0,0,0,1.78.54,4.41,4.41,0,0,0,1.73-.11,1.23,1.23,0,0,0,.62-.32.34.34,0,0,0,.06-.42l-.85-.09c.07.22-.07.38-.44.49a2.48,2.48,0,0,1-.92,0,3.55,3.55,0,0,1-1-.28l2.32-.67-.33-.17a5.63,5.63,0,0,0-1.75-.58,3.86,3.86,0,0,0-1.6.08m-56,15.41-.81.23.89.45-.58.17.61.31.58-.17,2.07,1.06a2.61,2.61,0,0,0,2,.27,1.85,1.85,0,0,0,.45-.19l-.63-.32a1.45,1.45,0,0,1-.25.09,1,1,0,0,1-.38,0,1.32,1.32,0,0,1-.38-.13l-2-1,.62-.18-.6-.31-.63.18-.89-.45m52.41-15-.8.23.89.45-.59.17.61.31.59-.17,2.07,1.06a2.58,2.58,0,0,0,2,.27,1.85,1.85,0,0,0,.45-.19l-.63-.32a1.06,1.06,0,0,1-.25.09.87.87,0,0,1-.38,0,1.32,1.32,0,0,1-.38-.13l-2-1,.62-.18-.6-.31-.63.18-.89-.45m-47,13.18-.84.24,3.55,1.75.68-.19-3.39-1.8m6.35-1.82-.92.27,1.23,1.5-3.44-.87-.92.26,4.72,1.13,1.81.93.83-.24L115.76,57l-1.5-2M80.87,64.44a1.18,1.18,0,0,0-.75.45c-.11.18-.07.38.13.61a3.16,3.16,0,0,0,1,.7l.45.23a7.43,7.43,0,0,0,1.45.54,6.2,6.2,0,0,0,1.46.21A4,4,0,0,0,85.89,67c.55-.16.84-.36.87-.61s-.18-.5-.66-.79l-.83.24c.3.19.45.35.44.48s-.18.23-.51.32a2.53,2.53,0,0,1-1.23,0,5.7,5.7,0,0,1-1.5-.54L82,65.94c-.52-.27-.82-.5-.89-.7s.06-.34.42-.45a2.56,2.56,0,0,1,1-.08,4.13,4.13,0,0,1,1.07.31l.82-.24a5.85,5.85,0,0,0-1.81-.48,4.62,4.62,0,0,0-1.72.14M124.5,51.77l-.8.23,5.19,2.65.8-.23-2.61-1.33c-.14-.2,0-.34.28-.43a1.64,1.64,0,0,1,.62-.06,2,2,0,0,1,.7.23L131,54l.8-.23-2.39-1.22a3.39,3.39,0,0,0-2.49-.36c-.4.12-.58.29-.52.53l-1.94-1m40.8-8a1.93,1.93,0,0,1-.9,0,4.11,4.11,0,0,1-1.08-.38,1.76,1.76,0,0,1-.74-.55c-.07-.15,0-.26.28-.33a2.15,2.15,0,0,1,1.15,0l1.56.79c.16.2.06.34-.27.44M162.23,41l-.8.23,1.88,1a3,3,0,0,0-1.32,0c-.43.12-.6.31-.52.56s.42.51,1,.8a6.54,6.54,0,0,0,1.79.61,3.51,3.51,0,0,0,1.53,0c.4-.11.57-.28.51-.5l.42.18.73-.21L162.23,41" style="fill:#183b56"/><polyline points="194.24 49.56 99.87 76.62 103.94 78.7 198.31 51.64 194.24 49.56" style="fill:#eef1f2"/><polyline points="144.85 69.24 106.79 80.16 110.86 82.24 148.93 71.32 144.85 69.24" style="fill:#eef1f2"/><path d="M172.18,84.61l-.39.11c-.61.18-.74.36-.37.55a1.53,1.53,0,0,0,1.08.1.58.58,0,0,0,.32-.19.2.2,0,0,0,0-.26l-.62-.31m10.51-3-.39.11c-.61.17-.74.36-.37.55a1.35,1.35,0,0,0,.54.14,1.6,1.6,0,0,0,.54,0,.65.65,0,0,0,.32-.19.2.2,0,0,0,0-.26l-.62-.31m20.6-6.84c-.33.09-.41.24-.24.44l1.3.67a2.21,2.21,0,0,0,1.19,0c.24-.06.33-.17.27-.3s-.27-.3-.66-.5a3.62,3.62,0,0,0-1-.36,1.85,1.85,0,0,0-.85,0M166,85.44c-.2.06-.29.15-.28.27s.14.24.38.39l1.47-.42,0,0a2.9,2.9,0,0,0-.81-.25,1.7,1.7,0,0,0-.72,0m12-3.42c-.2.06-.29.14-.28.26s.14.25.38.4l1.46-.42,0,0a3,3,0,0,0-.81-.26,1.87,1.87,0,0,0-.72,0m17.35-5c-.2.06-.29.15-.28.26s.14.25.38.4l1.47-.42,0,0A3,3,0,0,0,196,77a1.7,1.7,0,0,0-.72,0m11.11-3.18c-.2,0-.29.14-.28.26s.14.25.38.4L208,74.1l0,0a3,3,0,0,0-.81-.26,1.87,1.87,0,0,0-.72,0M160.63,86.68l2,1.85-.38.11-4.07-1.24.51-.15,3.06,1-1.59-1.39.51-.15m3.6,1.38-3-1.54.5-.15,3,1.54-.51.15m-8.06.21c-.06-.22.09-.37.45-.48a2.72,2.72,0,0,1,2,.28l2,1-.5.14-2-1a1.87,1.87,0,0,0-.63-.21,1.53,1.53,0,0,0-.6,0c-.16,0-.26.11-.29.19a.27.27,0,0,0,.06.26l2.15,1.1-.5.14-3-1.54.47-.13.39.19m12.58-1.46a3.64,3.64,0,0,1-1.38.07,4.54,4.54,0,0,1-1.45-.45l-.09,0a2.25,2.25,0,0,1-.64-.46.35.35,0,0,1-.08-.41.67.67,0,0,1,.45-.29,3,3,0,0,1,1.27-.06,4.79,4.79,0,0,1,1.43.47l.22.11-2,.57a3.22,3.22,0,0,0,1,.3,2.14,2.14,0,0,0,.89,0,.62.62,0,0,0,.34-.18.28.28,0,0,0,0-.25l.55,0c.14.27,0,.48-.52.62m1-2.06a.56.56,0,0,1-.28-.27.25.25,0,0,1,.09-.29A1.21,1.21,0,0,1,170,84a2.83,2.83,0,0,1,1-.1,3,3,0,0,1,1,.28l1.39.71a4.06,4.06,0,0,0,.76.31l.05,0-.53.15a2.78,2.78,0,0,1-.39-.14c0,.2-.13.34-.46.43a2.5,2.5,0,0,1-1,.08,2.76,2.76,0,0,1-.92-.25c-.31-.16-.44-.32-.38-.47s.3-.3.72-.42l.49-.14-.24-.12a1.62,1.62,0,0,0-.58-.17,1.49,1.49,0,0,0-.63.05c-.18,0-.28.12-.31.2s0,.16.16.22l-.51.15m11-1.37a3.39,3.39,0,0,1-1.37.07,4.22,4.22,0,0,1-1.45-.44l-.1-.05a1.86,1.86,0,0,1-.63-.46.35.35,0,0,1-.08-.41.71.71,0,0,1,.45-.29,3,3,0,0,1,1.27-.06,4.56,4.56,0,0,1,1.43.48l.21.11-2,.57a3.14,3.14,0,0,0,1,.3,2.33,2.33,0,0,0,.89,0,.62.62,0,0,0,.34-.19.25.25,0,0,0,0-.24l.55,0c.14.26,0,.47-.53.61m-.47-1.65a.51.51,0,0,1-.28-.26.26.26,0,0,1,.09-.29,1.21,1.21,0,0,1,.47-.24,2.83,2.83,0,0,1,1.05-.09,2.92,2.92,0,0,1,1,.28l1.38.71a4.88,4.88,0,0,0,.76.31l0,0-.53.15a2.76,2.76,0,0,1-.38-.14c0,.19-.14.34-.46.43a3,3,0,0,1-1.89-.17c-.31-.16-.44-.32-.38-.48s.3-.29.72-.41l.49-.14-.24-.12a1.87,1.87,0,0,0-.58-.18,1.67,1.67,0,0,0-.63.06c-.18,0-.28.11-.31.2s0,.15.16.22l-.51.14M185.11,80a.27.27,0,0,1,0-.29.81.81,0,0,1,.42-.23,2.74,2.74,0,0,1,2,.26l2,1-.5.14-2-1a2,2,0,0,0-.62-.2,1.47,1.47,0,0,0-.65.06c-.18,0-.28.12-.29.22s.08.19.25.29l2,1-.51.14-2-1a1.77,1.77,0,0,0-1.28-.16c-.33.1-.42.24-.25.42l2.2,1.12-.5.15-3-1.54.47-.14.35.17c-.05-.2.12-.34.48-.45a2.37,2.37,0,0,1,1.32,0m12.94-1.61a3.44,3.44,0,0,1-1.38.08,4.54,4.54,0,0,1-1.45-.45l-.09,0a2.07,2.07,0,0,1-.64-.45.36.36,0,0,1-.08-.42.7.7,0,0,1,.45-.28,3,3,0,0,1,1.28-.06,4.83,4.83,0,0,1,1.42.47l.21.11-2,.57a3.14,3.14,0,0,0,1,.3,2.32,2.32,0,0,0,.89,0A.62.62,0,0,0,198,78a.28.28,0,0,0,0-.25l.55,0c.14.27,0,.47-.52.61m1.34-2.49a.26.26,0,0,1,0-.28.81.81,0,0,1,.43-.23,2.74,2.74,0,0,1,2,.25l2,1-.51.14-2-1a1.73,1.73,0,0,0-.62-.2,1.56,1.56,0,0,0-.64,0c-.19.06-.29.13-.29.23s.07.19.24.29l2,1-.5.15-2-1a1.71,1.71,0,0,0-1.28-.16c-.33.1-.41.23-.24.42l2.2,1.12-.5.14-3-1.54.48-.13.34.17q-.06-.3.48-.45a2.5,2.5,0,0,1,1.33,0m9.76-.69a3.39,3.39,0,0,1-1.37.07,4.22,4.22,0,0,1-1.45-.44l-.1,0a1.86,1.86,0,0,1-.63-.46.35.35,0,0,1-.08-.41.71.71,0,0,1,.45-.29,3,3,0,0,1,1.27-.06,4.56,4.56,0,0,1,1.43.48l.21.11-2,.57a3.12,3.12,0,0,0,1,.29,2.16,2.16,0,0,0,.89,0,.68.68,0,0,0,.34-.19.25.25,0,0,0,0-.24l.56,0c.14.27,0,.48-.53.62m-.43-2c-.11-.18,0-.31.29-.4a1,1,0,0,1,.26,0l.48.25a1.31,1.31,0,0,0-.27.06c-.33.09-.4.23-.24.41l2.14,1.1-.49.14-3-1.54.49-.14.36.17M162.63,86.43l-.4-.2.53-.16L162,85.7l.5-.14.73.37.54-.16.4.21-.55.15,1.87,1a1.32,1.32,0,0,0,.35.12,1,1,0,0,0,.34,0,1,1,0,0,0,.2-.09l.42.22a1.26,1.26,0,0,1-.33.14,1.9,1.9,0,0,1-.72,0,2.64,2.64,0,0,1-.76-.26l-1.87-1-.53.15m-5.77,3.74-4.05-2.07.52-.15,4,2.07-.52.15m15.6-7.36-.44-.22,3-.88.44.23-1.27.36,3.62,1.85-.52.15-3.61-1.85-1.27.36m20.7-3.65-2-2.06.67-.19L195.88,79l-.53.15-1.58-.81-1.65-.88,2,2-.4.11-4.57-1.3,1.75.85,1.58.81-.52.15L187.89,78l.67-.19,4.6,1.31m-32.19,7a.8.8,0,0,1-.31,0,1.31,1.31,0,0,1-.28-.09.25.25,0,0,1-.14-.13s0-.08.14-.11a.79.79,0,0,1,.31,0A1.15,1.15,0,0,1,161,86a.22.22,0,0,1,.14.13s-.05.08-.14.1m43.73-9.73-4.27-2.18.5-.15,1.59.82c-.05-.19.1-.34.45-.44a2.92,2.92,0,0,1,1.26,0,5.12,5.12,0,0,1,1.44.49l0,0c.46.23.73.45.8.65s-.06.35-.41.45a2.77,2.77,0,0,1-1.26,0l.32.19-.46.13m15.62-12.93L127.54,90.13c-.44.13-.43.41,0,.64L143,98.68a2.52,2.52,0,0,0,1.61.19l92.79-26.61c.43-.12.42-.41,0-.64l-15.47-7.91a2.59,2.59,0,0,0-1.61-.19" style="fill:#7087ff"/><path d="M160.63,86.68l-.51.15,1.59,1.39-3.06-1-.51.15,4.07,1.24.38-.11-2-1.85m1.09-.31-.5.15,3,1.54.51-.15-3-1.54m-5.1,1.42c-.36.11-.51.26-.45.48l-.39-.19-.47.13,3,1.54.5-.14-2.15-1.1a.27.27,0,0,1-.06-.26c0-.08.13-.14.29-.19a1.53,1.53,0,0,1,.6,0,1.87,1.87,0,0,1,.63.21l2,1,.5-.14-2-1a2.72,2.72,0,0,0-2-.28m9.46-1.69c-.24-.15-.37-.28-.38-.39s.08-.21.28-.27a1.7,1.7,0,0,1,.72,0,2.9,2.9,0,0,1,.81.25l0,0-1.47.42m-.52-.87a.67.67,0,0,0-.45.29.35.35,0,0,0,.08.41,2.25,2.25,0,0,0,.64.46l.09,0a4.54,4.54,0,0,0,1.45.45,3.64,3.64,0,0,0,1.38-.07c.49-.14.66-.35.52-.62l-.55,0a.28.28,0,0,1,0,.25.62.62,0,0,1-.34.18,2.14,2.14,0,0,1-.89,0,3.22,3.22,0,0,1-1-.3l2-.57-.22-.11a4.79,4.79,0,0,0-1.43-.47,3,3,0,0,0-1.27.06m6.94.14a1.53,1.53,0,0,1-1.08-.1c-.37-.19-.24-.37.37-.55l.39-.11.62.31a.2.2,0,0,1,0,.26.58.58,0,0,1-.32.19M170,84a1.21,1.21,0,0,0-.47.23.25.25,0,0,0-.09.29.56.56,0,0,0,.28.27l.51-.15c-.14-.06-.19-.14-.16-.22s.13-.15.31-.2a1.49,1.49,0,0,1,.63-.05,1.62,1.62,0,0,1,.58.17l.24.12-.49.14q-.63.18-.72.42c-.06.15.07.31.38.47a2.76,2.76,0,0,0,.92.25,2.5,2.5,0,0,0,1-.08c.33-.09.48-.23.46-.43a2.78,2.78,0,0,0,.39.14l.53-.15-.05,0a4.06,4.06,0,0,1-.76-.31l-1.39-.71a3,3,0,0,0-1-.28,2.83,2.83,0,0,0-1,.1m8-1.28c-.24-.15-.37-.28-.38-.4s.08-.2.28-.26a1.87,1.87,0,0,1,.72,0,3,3,0,0,1,.81.26l0,0-1.46.42m-.52-.88a.71.71,0,0,0-.45.29.35.35,0,0,0,.08.41,1.86,1.86,0,0,0,.63.46l.1.05a4.22,4.22,0,0,0,1.45.44,3.39,3.39,0,0,0,1.37-.07c.49-.14.67-.35.53-.61l-.55,0a.25.25,0,0,1,0,.24.62.62,0,0,1-.34.19,2.33,2.33,0,0,1-.89,0,3.14,3.14,0,0,1-1-.3l2-.57-.21-.11a4.56,4.56,0,0,0-1.43-.48,3,3,0,0,0-1.27.06m5.5.56a1.6,1.6,0,0,1-.54,0,1.35,1.35,0,0,1-.54-.14c-.37-.19-.24-.38.37-.55l.39-.11.62.31a.2.2,0,0,1,0,.26.65.65,0,0,1-.32.19m-2.51-1.42a1.21,1.21,0,0,0-.47.24.26.26,0,0,0-.09.29.51.51,0,0,0,.28.26l.51-.14c-.14-.07-.19-.14-.16-.22s.13-.15.31-.2a1.67,1.67,0,0,1,.63-.06,1.87,1.87,0,0,1,.58.18l.24.12-.49.14c-.42.12-.66.26-.72.41s.07.32.38.48a3,3,0,0,0,1.89.17c.32-.09.47-.24.46-.43a2.76,2.76,0,0,0,.38.14l.53-.15,0,0a4.88,4.88,0,0,1-.76-.31l-1.38-.71a2.92,2.92,0,0,0-1-.28,2.83,2.83,0,0,0-1.05.09m5.06-1.45a.81.81,0,0,0-.42.23.27.27,0,0,0,0,.29,2.37,2.37,0,0,0-1.32,0c-.36.11-.53.25-.48.45l-.35-.17-.47.14,3,1.54.5-.15-2.2-1.12c-.17-.18-.08-.32.25-.42a1.77,1.77,0,0,1,1.28.16l2,1,.51-.14-2-1c-.17-.1-.26-.2-.25-.29s.11-.17.29-.22a1.47,1.47,0,0,1,.65-.06,2,2,0,0,1,.62.2l2,1,.5-.14-2-1a2.74,2.74,0,0,0-2-.26m9.82-1.79c-.24-.15-.37-.28-.38-.4s.08-.2.28-.26a1.7,1.7,0,0,1,.72,0,3,3,0,0,1,.81.25l0,0-1.47.42m-.52-.87a.7.7,0,0,0-.45.28.36.36,0,0,0,.08.42,2.07,2.07,0,0,0,.64.45l.09,0a4.54,4.54,0,0,0,1.45.45,3.44,3.44,0,0,0,1.38-.08c.49-.14.66-.34.52-.61l-.55,0a.28.28,0,0,1,0,.25.62.62,0,0,1-.34.18,2.32,2.32,0,0,1-.89,0,3.14,3.14,0,0,1-1-.3l2-.57-.21-.11a4.83,4.83,0,0,0-1.42-.47,3,3,0,0,0-1.28.06m5-1.43a.81.81,0,0,0-.43.23.26.26,0,0,0,0,.28,2.5,2.5,0,0,0-1.33,0q-.54.15-.48.45l-.34-.17-.48.13,3,1.54.5-.14-2.2-1.12c-.17-.19-.09-.32.24-.42a1.71,1.71,0,0,1,1.28.16l2,1,.5-.15-2-1c-.17-.1-.25-.2-.24-.29s.1-.17.29-.23a1.56,1.56,0,0,1,.64,0,1.73,1.73,0,0,1,.62.2l2,1,.51-.14-2-1a2.74,2.74,0,0,0-2-.25m6.65-.88c-.24-.15-.37-.29-.38-.4s.08-.21.28-.26a1.87,1.87,0,0,1,.72,0,3,3,0,0,1,.81.26l0,0-1.46.42m-.52-.88a.71.71,0,0,0-.45.29.35.35,0,0,0,.08.41,1.86,1.86,0,0,0,.63.46l.1,0a4.22,4.22,0,0,0,1.45.44,3.39,3.39,0,0,0,1.37-.07c.49-.14.67-.35.53-.62l-.56,0a.25.25,0,0,1,0,.24.68.68,0,0,1-.34.19,2.16,2.16,0,0,1-.89,0,3.12,3.12,0,0,1-1-.29l2-.57-.21-.11a4.56,4.56,0,0,0-1.43-.48,3,3,0,0,0-1.27.06m3-.87c-.3.09-.4.22-.29.4l-.36-.17-.49.14,3,1.54.49-.14-2.14-1.1c-.16-.18-.09-.32.24-.41a1.31,1.31,0,0,1,.27-.06l-.48-.25a1,1,0,0,0-.26,0M162.54,85.56l-.5.14.72.37-.53.16.4.2.53-.15,1.87,1a2.64,2.64,0,0,0,.76.26,1.9,1.9,0,0,0,.72,0,1.26,1.26,0,0,0,.33-.14l-.42-.22a1,1,0,0,1-.2.09,1,1,0,0,1-.34,0,1.32,1.32,0,0,1-.35-.12l-1.87-1,.55-.15-.4-.21-.54.16-.73-.37M153.33,88l-.52.15,4.05,2.07.52-.15-4-2.07m21.74-6.24-3,.88.44.22,1.27-.36,3.61,1.85.52-.15-3.62-1.85,1.27-.36-.44-.23m16.75-4.8-.67.19,2,2.06-4.6-1.31-.67.19L192,80.11l.52-.15-1.58-.81-1.75-.85,4.57,1.3.4-.11-2-2,1.65.88,1.58.81.53-.15-4.06-2.07m-31.44,9c-.1,0-.15.07-.14.11a.25.25,0,0,0,.14.13,1.31,1.31,0,0,0,.28.09.8.8,0,0,0,.31,0c.09,0,.14-.06.14-.1A.22.22,0,0,0,161,86a1.15,1.15,0,0,0-.28-.09.79.79,0,0,0-.31,0m45.16-10a2.21,2.21,0,0,1-1.19,0l-1.3-.67c-.17-.2-.09-.35.24-.44a1.85,1.85,0,0,1,.85,0,3.62,3.62,0,0,1,1,.36c.39.2.61.36.66.5s0,.24-.27.3m-4.61-1.78-.5.15,4.27,2.18.46-.13-.32-.19a2.77,2.77,0,0,0,1.26,0c.35-.1.49-.25.41-.45s-.34-.42-.8-.65l0,0a5.12,5.12,0,0,0-1.44-.49,2.92,2.92,0,0,0-1.26,0c-.35.1-.5.25-.45.44l-1.59-.82" style="fill:#fff"/></g></g></svg>