<svg id="Warstwa_1" data-name="Warstwa 1" xmlns="http://www.w3.org/2000/svg" xmlns:xlink="http://www.w3.org/1999/xlink" viewBox="0 0 250.33 104.52"><defs><linearGradient id="linear-gradient" x1="4.83" y1="51.64" x2="245.5" y2="51.64" gradientUnits="userSpaceOnUse"><stop offset="0" stop-color="#94c2ff"/><stop offset="1" stop-color="#6570d7"/></linearGradient><clipPath id="clip-path"><path d="M135.71,100.74,6.66,34a3.38,3.38,0,0,1,.64-6.25L105.38.13a3.31,3.31,0,0,1,2.47.25L243.67,70.64a3.38,3.38,0,0,1-.64,6.25l-90.75,25.54A22.65,22.65,0,0,1,135.71,100.74Z" style="fill:url(#linear-gradient)"/></clipPath><linearGradient id="linear-gradient-3" x1="0" y1="52.31" x2="250.33" y2="52.31" xlink:href="#linear-gradient"/></defs><g style="opacity:0.5;isolation:isolate"><path d="M135.71,100.74,6.66,34a3.38,3.38,0,0,1,.64-6.25L105.38.13a3.31,3.31,0,0,1,2.47.25L243.67,70.64a3.38,3.38,0,0,1-.64,6.25l-90.75,25.54A22.65,22.65,0,0,1,135.71,100.74Z" style="fill:url(#linear-gradient)"/><g style="clip-path:url(#clip-path)"><path d="M105.08.21.65,29.6c-.88.25-.86.82,0,1.29L142,104a5.09,5.09,0,0,0,3.21.39L249.68,75c.88-.25.86-.82,0-1.29L108.29.6a5.16,5.16,0,0,0-3.21-.39" style="fill:url(#linear-gradient-3)"/></g></g></svg>