<svg id="Warstwa_1" data-name="Warstwa 1" xmlns="http://www.w3.org/2000/svg" xmlns:xlink="http://www.w3.org/1999/xlink" viewBox="0 0 193.09 84.63"><defs><clipPath id="clip-path"><path d="M119.32,84.33,1,23.46a1.77,1.77,0,0,1,.32-3.27L72.14.07A1.71,1.71,0,0,1,73.43.2l118.7,61a1.77,1.77,0,0,1-.32,3.27l-70.48,20A2.75,2.75,0,0,1,119.32,84.33Z" style="fill:none"/></clipPath></defs><g style="isolation:isolate"><g style="clip-path:url(#clip-path)"><path d="M122.47,38.07l-.35.1c-.24.07-.38.14-.41.22s0,.16.18.24a1.43,1.43,0,0,0,.43.12,1.27,1.27,0,0,0,.44,0,.56.56,0,0,0,.27-.15.15.15,0,0,0,0-.2l-.55-.29M124,36.78q-.42.12-.21.36l1.21.62a1.83,1.83,0,0,0,1,0c.2,0,.28-.14.23-.25s-.22-.25-.53-.41l-.08,0a3.17,3.17,0,0,0-.88-.32,1.45,1.45,0,0,0-.72,0M76.32,50.31c-.18,0-.26.13-.25.22s.13.21.33.34l1.23-.35,0,0a2.44,2.44,0,0,0-.67-.21,1.42,1.42,0,0,0-.59,0m7.32-2.08c-.21.06-.29.15-.24.28s.24.27.58.45a3.21,3.21,0,0,0,.9.31,1.75,1.75,0,0,0,.76,0c.22-.07.3-.16.25-.28s-.25-.27-.58-.45a3.56,3.56,0,0,0-.9-.31,1.79,1.79,0,0,0-.77,0M91.54,46c-.17,0-.26.12-.24.22s.13.21.33.33l1.23-.35,0,0a2.4,2.4,0,0,0-.68-.21,1.44,1.44,0,0,0-.59,0m6.18-1.76c-.21.06-.29.16-.25.28s.25.27.59.45a3.26,3.26,0,0,0,.89.31,1.65,1.65,0,0,0,.77,0c.22-.06.3-.16.25-.28a1.43,1.43,0,0,0-.59-.45,3.37,3.37,0,0,0-.89-.31,1.79,1.79,0,0,0-.77,0m15.87-4.5c-.18.05-.26.12-.24.22s.13.2.32.33l1.23-.35-.05,0a2.66,2.66,0,0,0-.67-.2,1.43,1.43,0,0,0-.59,0m-11.71,2.8,1.08,1,1.12-.32-2.2-.69m16.9,35.39L107,71.85l60.79-17.27,11.81,6.08L118.78,77.92M98.08,66,94.8,64.31l57.27-16.26,3.28,1.68L98.08,66m-6.56-3.37-3.28-1.69,21.12-6,3.28,1.69-21.12,6m24-6.82-3.28-1.69,33-9.36,3.28,1.69-32.95,9.36M85,59.25l-3.28-1.68L139,41.3,142.23,43,85,59.25m-6-7.66a3.49,3.49,0,0,1-1.39.08,4.11,4.11,0,0,1-1.43-.44l-.08,0a1.89,1.89,0,0,1-.63-.45.35.35,0,0,1-.07-.41.78.78,0,0,1,.48-.29A3,3,0,0,1,77.07,50a4.51,4.51,0,0,1,1.41.47l.27.13-1.88.54a3,3,0,0,0,.82.23,1.91,1.91,0,0,0,.73,0c.3-.09.42-.22.36-.4l.69.08a.29.29,0,0,1,0,.34,1.1,1.1,0,0,1-.51.26m4.34-1.23a3.37,3.37,0,0,1-1.36.07A4.89,4.89,0,0,1,80.43,50l-.06,0c-.45-.23-.7-.45-.73-.65s.15-.37.55-.48a3,3,0,0,1,1.14-.08,3.21,3.21,0,0,1,1.14.32l-.61.17a2.07,2.07,0,0,0-.58-.17,1.76,1.76,0,0,0-.57,0c-.2.06-.29.15-.25.26a1.18,1.18,0,0,0,.54.41l.1.06a3.44,3.44,0,0,0,.89.32,1.56,1.56,0,0,0,.72,0c.16-.05.25-.11.26-.19s-.06-.16-.19-.23l.61-.17a.84.84,0,0,1,.35.31.28.28,0,0,1,0,.31,1,1,0,0,1-.44.24m2.92-.83a3.51,3.51,0,0,1-1.39.06,4.67,4.67,0,0,1-1.47-.46l0,0a2.07,2.07,0,0,1-.62-.45.33.33,0,0,1-.06-.41.87.87,0,0,1,.51-.29,3.39,3.39,0,0,1,1.33-.07,4.58,4.58,0,0,1,1.41.41l.16.08a1.88,1.88,0,0,1,.61.45.32.32,0,0,1,.06.4.81.81,0,0,1-.51.3M87.74,47c-.1-.22.05-.38.43-.49a2.31,2.31,0,0,1,1-.06,3.45,3.45,0,0,1,1,.34l1.93,1-.64.18-1.92-1a1.71,1.71,0,0,0-.53-.17,1.39,1.39,0,0,0-.53,0c-.14,0-.22.1-.23.17s0,.14.12.22l2,1-.65.19-1.94-1a1.35,1.35,0,0,0-1-.12c-.26.07-.33.18-.23.32l2.14,1.1L88,49,85.1,47.44l.61-.17.32.15c0-.18.12-.32.47-.42a2.27,2.27,0,0,1,1.24,0m6.4.25a3.32,3.32,0,0,1-1.39.08,4.25,4.25,0,0,1-1.43-.43l-.08,0a2.23,2.23,0,0,1-.63-.45.36.36,0,0,1-.07-.42.73.73,0,0,1,.48-.28,2.86,2.86,0,0,1,1.28-.07,4.88,4.88,0,0,1,1.41.47l.27.14-1.88.53a2.57,2.57,0,0,0,.82.23,1.92,1.92,0,0,0,.73,0q.45-.12.36-.39l.68.07a.3.3,0,0,1,0,.35,1.1,1.1,0,0,1-.51.25m6.11-1.73a3.18,3.18,0,0,1-1.39.06,4.67,4.67,0,0,1-1.47-.46l0,0a2,2,0,0,1-.61-.45.32.32,0,0,1-.06-.4.87.87,0,0,1,.51-.3,3.35,3.35,0,0,1,1.32-.07,4.5,4.5,0,0,1,1.41.41l.16.08a1.94,1.94,0,0,1,.62.45.32.32,0,0,1,.06.4.82.82,0,0,1-.51.3m8.19-2.32a3.39,3.39,0,0,1-1.36.06,4.62,4.62,0,0,1-1.46-.47l-.07,0q-.67-.35-.72-.66c0-.2.15-.36.55-.47a2.83,2.83,0,0,1,1.14-.08,3.2,3.2,0,0,1,1.14.31l-.6.17a1.83,1.83,0,0,0-.59-.16,1.28,1.28,0,0,0-.56,0c-.21.06-.3.14-.26.26s.22.25.54.41l.1.05a3.22,3.22,0,0,0,.89.32,1.44,1.44,0,0,0,.72,0c.16,0,.25-.1.26-.18s-.06-.16-.19-.24l.61-.17a.84.84,0,0,1,.35.31.29.29,0,0,1-.05.32,1,1,0,0,1-.44.24m1.34-2.47c-.09-.21.06-.37.43-.48a2.31,2.31,0,0,1,1-.06,3.28,3.28,0,0,1,1,.34l1.94,1-.65.18-1.91-1a1.8,1.8,0,0,0-.53-.17,1.21,1.21,0,0,0-.53,0c-.15,0-.23.1-.24.17a.25.25,0,0,0,.12.21l2,1-.65.19-1.94-1a1.37,1.37,0,0,0-1-.12c-.26.07-.33.18-.22.32l2.13,1.1-.64.18-3-1.51.61-.18.32.16c0-.18.12-.32.48-.42a2.33,2.33,0,0,1,1.23,0m6.41.26a3.51,3.51,0,0,1-1.39.08,4.3,4.3,0,0,1-1.44-.43l-.08,0a2.11,2.11,0,0,1-.62-.46.35.35,0,0,1-.08-.41.81.81,0,0,1,.48-.29,3.06,3.06,0,0,1,1.29-.06,4.59,4.59,0,0,1,1.41.47L116,40l-1.87.53a2.58,2.58,0,0,0,.81.23,2,2,0,0,0,.74,0c.29-.08.41-.21.35-.39l.69.07a.29.29,0,0,1,0,.34,1.06,1.06,0,0,1-.5.26m3.91-2.83a.55.55,0,0,1-.29-.27.26.26,0,0,1,.09-.3,1.32,1.32,0,0,1,.49-.23,3.09,3.09,0,0,1,1.06-.09,3,3,0,0,1,1,.28l1.33.69a3.88,3.88,0,0,0,.74.29l0,0-.66.18a2.08,2.08,0,0,1-.35-.12c0,.18-.13.3-.42.39a2.76,2.76,0,0,1-1,.07,2.58,2.58,0,0,1-.9-.25c-.31-.16-.44-.31-.38-.46s.3-.29.73-.41l.39-.11-.19-.1a1.4,1.4,0,0,0-.49-.15,1.14,1.14,0,0,0-.52,0c-.14,0-.23.1-.24.16s0,.13.14.19l-.65.18M129,37c.16,0,.26-.1.28-.16s0-.12-.12-.17a1.08,1.08,0,0,0-.42-.1,4.3,4.3,0,0,0-.63.05,7.13,7.13,0,0,1-.73.07,2.7,2.7,0,0,1-1.18-.22c-.25-.13-.36-.27-.32-.42s.22-.27.54-.36a3,3,0,0,1,1.09-.1,2.49,2.49,0,0,1,1,.26l-.65.18a1.43,1.43,0,0,0-.95-.08q-.21.06-.24.15c0,.06,0,.12.13.17a.88.88,0,0,0,.37.09,3.26,3.26,0,0,0,.67-.06,6.43,6.43,0,0,1,.8-.06,3.54,3.54,0,0,1,.6,0,1.92,1.92,0,0,1,.51.18q.4.21.33.42c0,.15-.25.27-.6.37a3,3,0,0,1-.76.11,3.46,3.46,0,0,1-.79-.06,2.48,2.48,0,0,1-.65-.21l.63-.18a1.66,1.66,0,0,0,.54.14A1.72,1.72,0,0,0,129,37M94.43,45.18l-.49-.25.47-.14-.71-.37.64-.18.72.37.51-.15.49.26-.51.14,1.64.85a1.22,1.22,0,0,0,.31.1.67.67,0,0,0,.31,0l.2-.08.51.26a1.44,1.44,0,0,1-.36.15,2.08,2.08,0,0,1-1.59-.22L94.9,45l-.47.14M73.24,50l3.07,2.3-.64.18L72,51.19l2.14,1.7-.64.18-4.86-1.78.67-.19,3.58,1.36-2.25-1.74.57-.16L75,51.89l-2.39-1.71.67-.19m30-5.35-2.5-2.46.6-.17,5.43,1.62-.7.2-1.24-.38-1.5.42.61.57-.7.2m16.06-4.57-4-2,.67-.2,3.42,1.76,1.75-.5.55.28-2.43.69m-38.69,11-4.19-2.15.65-.19,4.18,2.15-.64.19m44.61-12.68L121,36.24l.65-.18,1.52.78c0-.17.09-.3.41-.38a2.78,2.78,0,0,1,1.23,0,4.84,4.84,0,0,1,1.41.49h0c.46.24.72.46.79.65s-.06.34-.41.44a2.48,2.48,0,0,1-1.16,0l.28.18-.58.16M4.85,25.46,112.41,80.78c4.35,2.23,11.31,3.07,15.55,1.86l60.47-17.17c4.24-1.21,4.15-4-.19-6.23L124.29,26.35,48.46,47.89,4.85,25.46" style="fill:#fff"/><path d="M118,74.21l-1.64-.84,52.47-14.91,1.64.85L118,74.21m49.74-19.63L107,71.85l11.81,6.07,60.79-17.26-11.81-6.08" style="fill:#7381ff"/><path d="M76.4,50.87c-.2-.13-.31-.24-.33-.34s.07-.17.25-.22a1.42,1.42,0,0,1,.59,0,2.44,2.44,0,0,1,.67.21l0,0-1.23.35M75.79,50a.78.78,0,0,0-.48.29.35.35,0,0,0,.07.41,1.89,1.89,0,0,0,.63.45l.08,0a4.11,4.11,0,0,0,1.43.44,3.49,3.49,0,0,0,1.39-.08,1.1,1.1,0,0,0,.51-.26.29.29,0,0,0,0-.34l-.69-.08c.06.18-.06.31-.36.4a1.91,1.91,0,0,1-.73,0,3,3,0,0,1-.82-.23l1.88-.54-.27-.13A4.51,4.51,0,0,0,77.07,50a3,3,0,0,0-1.28.06m4.4-1.25c-.4.11-.59.27-.55.48s.28.42.73.65l.06,0a4.89,4.89,0,0,0,1.46.47,3.37,3.37,0,0,0,1.36-.07,1,1,0,0,0,.44-.24.28.28,0,0,0,0-.31.84.84,0,0,0-.35-.31l-.61.17c.13.07.2.15.19.23s-.1.14-.26.19a1.56,1.56,0,0,1-.72,0,3.44,3.44,0,0,1-.89-.32l-.1-.06a1.18,1.18,0,0,1-.54-.41c0-.11.05-.2.25-.26a1.76,1.76,0,0,1,.57,0,2.07,2.07,0,0,1,.58.17l.61-.17a3.21,3.21,0,0,0-1.14-.32,3,3,0,0,0-1.14.08m5.45.47a1.75,1.75,0,0,1-.76,0A3.21,3.21,0,0,1,84,49c-.34-.18-.54-.33-.58-.45s0-.22.24-.28a1.79,1.79,0,0,1,.77,0,3.56,3.56,0,0,1,.9.31c.33.18.53.32.58.45s0,.21-.25.28M83.11,48a.87.87,0,0,0-.51.29.33.33,0,0,0,.06.41,2.07,2.07,0,0,0,.62.45l0,0a4.67,4.67,0,0,0,1.47.46,3.51,3.51,0,0,0,1.39-.06.81.81,0,0,0,.51-.3.32.32,0,0,0-.06-.4,1.88,1.88,0,0,0-.61-.45l-.16-.08a4.58,4.58,0,0,0-1.41-.41,3.39,3.39,0,0,0-1.33.07m5.06-1.44c-.38.11-.53.27-.43.49a2.27,2.27,0,0,0-1.24,0c-.35.1-.51.24-.47.42l-.32-.15-.61.17L88,49l.65-.18-2.14-1.1c-.1-.14,0-.25.23-.32a1.35,1.35,0,0,1,1,.12l1.94,1,.65-.19-2-1c-.1-.08-.13-.15-.12-.22s.09-.13.23-.17a1.39,1.39,0,0,1,.53,0,1.71,1.71,0,0,1,.53.17l1.92,1,.64-.18-1.93-1a3.45,3.45,0,0,0-1-.34,2.31,2.31,0,0,0-1,.06m3.46,0c-.2-.12-.31-.24-.33-.33s.07-.17.24-.22a1.44,1.44,0,0,1,.59,0,2.4,2.4,0,0,1,.68.21l0,0-1.23.35M91,45.72a.73.73,0,0,0-.48.28.36.36,0,0,0,.07.42,2.23,2.23,0,0,0,.63.45l.08,0a4.25,4.25,0,0,0,1.43.43,3.32,3.32,0,0,0,1.39-.08,1.1,1.1,0,0,0,.51-.25.3.3,0,0,0,0-.35L94,46.59q.09.27-.36.39a1.92,1.92,0,0,1-.73,0,2.57,2.57,0,0,1-.82-.23L94,46.26l-.27-.14a4.88,4.88,0,0,0-1.41-.47,2.86,2.86,0,0,0-1.28.07m8.7-.46a1.65,1.65,0,0,1-.77,0,3.26,3.26,0,0,1-.89-.31c-.34-.18-.54-.33-.59-.45s0-.22.25-.28a1.79,1.79,0,0,1,.77,0,3.37,3.37,0,0,1,.89.31A1.43,1.43,0,0,1,100,45c0,.12,0,.22-.25.28M97.19,44a.87.87,0,0,0-.51.3.32.32,0,0,0,.06.4,2,2,0,0,0,.61.45l0,0a4.67,4.67,0,0,0,1.47.46,3.18,3.18,0,0,0,1.39-.06.82.82,0,0,0,.51-.3.32.32,0,0,0-.06-.4,1.94,1.94,0,0,0-.62-.45l-.16-.08a4.5,4.5,0,0,0-1.41-.41,3.35,3.35,0,0,0-1.32.07m8.19-2.32c-.4.11-.59.27-.55.47s.27.43.72.66l.07,0a4.62,4.62,0,0,0,1.46.47,3.39,3.39,0,0,0,1.36-.06,1,1,0,0,0,.44-.24.29.29,0,0,0,.05-.32.84.84,0,0,0-.35-.31l-.61.17c.13.08.2.16.19.24s-.1.14-.26.18a1.44,1.44,0,0,1-.72,0,3.22,3.22,0,0,1-.89-.32l-.1-.05c-.32-.16-.5-.3-.54-.41s0-.2.26-.26a1.28,1.28,0,0,1,.56,0,1.83,1.83,0,0,1,.59.16l.6-.17a3.2,3.2,0,0,0-1.14-.31,2.83,2.83,0,0,0-1.14.08m4.83-1.38c-.37.11-.52.27-.43.48a2.33,2.33,0,0,0-1.23,0c-.36.1-.51.24-.48.42l-.32-.16-.61.18,3,1.51.64-.18-2.13-1.1c-.11-.14,0-.25.22-.32a1.37,1.37,0,0,1,1,.12l1.94,1,.65-.19-2-1a.25.25,0,0,1-.12-.21c0-.07.09-.13.24-.17a1.21,1.21,0,0,1,.53,0,1.8,1.8,0,0,1,.53.17l1.91,1,.65-.18-1.94-1a3.28,3.28,0,0,0-1-.34,2.31,2.31,0,0,0-1,.06m3.46,0c-.19-.13-.3-.24-.32-.33s.06-.17.24-.22a1.43,1.43,0,0,1,.59,0,2.66,2.66,0,0,1,.67.2l.05,0-1.23.35m-.61-.83a.81.81,0,0,0-.48.29.35.35,0,0,0,.08.41,2.11,2.11,0,0,0,.62.46l.08,0a4.3,4.3,0,0,0,1.44.43,3.51,3.51,0,0,0,1.39-.08,1.06,1.06,0,0,0,.5-.26.29.29,0,0,0,0-.34l-.69-.07c.06.18-.06.31-.35.39a2,2,0,0,1-.74,0,2.58,2.58,0,0,1-.81-.23L116,40l-.26-.14a4.59,4.59,0,0,0-1.41-.47,3.06,3.06,0,0,0-1.29.06m9.7-.74a1.27,1.27,0,0,1-.44,0,1.43,1.43,0,0,1-.43-.12q-.24-.12-.18-.24c0-.08.17-.15.41-.22l.35-.1.55.29a.15.15,0,0,1,0,.2.56.56,0,0,1-.27.15m-2.37-1.34a1.32,1.32,0,0,0-.49.23.26.26,0,0,0-.09.3.55.55,0,0,0,.29.27l.65-.18c-.12-.06-.16-.12-.14-.19s.1-.12.24-.16a1.14,1.14,0,0,1,.52,0,1.4,1.4,0,0,1,.49.15l.19.1-.39.11c-.43.12-.67.25-.73.41s.07.3.38.46a2.58,2.58,0,0,0,.9.25,2.76,2.76,0,0,0,1-.07c.29-.09.43-.21.42-.39a2.08,2.08,0,0,0,.35.12l.66-.18,0,0a3.88,3.88,0,0,1-.74-.29l-1.33-.69a3,3,0,0,0-1-.28,3.09,3.09,0,0,0-1.06.09m6-1.71q-.48.14-.54.36c0,.15.07.29.32.42a2.7,2.7,0,0,0,1.18.22,7.13,7.13,0,0,0,.73-.07,4.3,4.3,0,0,1,.63-.05,1.08,1.08,0,0,1,.42.1c.1,0,.14.11.12.17s-.12.11-.28.16a1.72,1.72,0,0,1-.55.06,1.66,1.66,0,0,1-.54-.14l-.63.18a2.48,2.48,0,0,0,.65.21,3.46,3.46,0,0,0,.79.06,3,3,0,0,0,.76-.11c.35-.1.55-.22.6-.37s-.06-.28-.33-.42a1.92,1.92,0,0,0-.51-.18,3.54,3.54,0,0,0-.6,0,6.43,6.43,0,0,0-.8.06,3.26,3.26,0,0,1-.67.06.88.88,0,0,1-.37-.09c-.11-.05-.15-.11-.13-.17s.1-.11.24-.15a1.43,1.43,0,0,1,.95.08l.65-.18a2.49,2.49,0,0,0-1-.26,3,3,0,0,0-1.09.1M94.34,44.24l-.64.18.71.37-.47.14.49.25L94.9,45l1.67.86a2.08,2.08,0,0,0,1.59.22,1.44,1.44,0,0,0,.36-.15L98,45.71l-.2.08a.67.67,0,0,1-.31,0,1.22,1.22,0,0,1-.31-.1l-1.64-.85.51-.14-.49-.26-.51.15-.72-.37M73.24,50l-.67.19L75,51.89l-3.71-1.33-.57.16,2.25,1.74L69.35,51.1l-.67.19,4.86,1.78.64-.18L72,51.19l3.63,1.28.64-.18L73.24,50M103,43.54l-1.08-1,2.2.69-1.12.32M101.34,42l-.6.17,2.5,2.46.7-.2-.61-.57,1.5-.42,1.24.38.7-.2L101.34,42M116,37.84l-.67.2,4,2,2.43-.69-.55-.28-1.75.5L116,37.84M77.07,48.73l-.65.19,4.19,2.15.64-.19-4.18-2.15M126,37.79a1.83,1.83,0,0,1-1,0l-1.21-.62q-.21-.24.21-.36a1.45,1.45,0,0,1,.72,0,3.17,3.17,0,0,1,.88.32l.08,0c.31.16.49.3.53.41s0,.2-.23.25m-4.29-1.73-.65.18,4.18,2.15.58-.16-.28-.18a2.48,2.48,0,0,0,1.16,0c.35-.1.48-.24.41-.44s-.33-.41-.79-.65h0a4.84,4.84,0,0,0-1.41-.49,2.78,2.78,0,0,0-1.23,0c-.32.08-.46.21-.41.38l-1.52-.78" style="fill:#183b56"/><polyline points="138.95 41.3 81.68 57.57 84.96 59.25 142.23 42.99 138.95 41.3" style="fill:#eef1f2"/><polyline points="152.07 48.05 94.8 64.31 98.08 66 155.35 49.73 152.07 48.05" style="fill:#eef1f2"/><polyline points="109.36 54.94 88.24 60.94 91.52 62.63 112.64 56.63 109.36 54.94" style="fill:#eef1f2"/><polyline points="145.19 44.76 112.24 54.13 115.52 55.81 148.47 46.45 145.19 44.76" style="fill:#eef1f2"/><polyline points="168.85 58.46 116.38 73.37 118.02 74.21 170.49 59.3 168.85 58.46" style="fill:#8591ff"/><path d="M65.13,2.06,4.66,19.23c-4.24,1.21-4.16,4,.19,6.23L48.46,47.89l75.83-21.54L80.68,3.92C76.33,1.69,69.37.85,65.13,2.06" style="fill:#d6daff"/></g></g></svg>