<svg id="Warstwa_1" data-name="Warstwa 1" xmlns="http://www.w3.org/2000/svg" xmlns:xlink="http://www.w3.org/1999/xlink" viewBox="0 0 107.98 39.76"><defs><clipPath id="clip-path"><polygon points="39.23 39.76 0 19.71 68.75 0 107.98 20.05 39.23 39.76" style="fill:none"/></clipPath><clipPath id="clip-path-2"><polyline points="18.35 23.19 24.5 21.42 30.81 24.65 24.66 26.41 18.35 23.19" style="fill:none"/></clipPath></defs><g style="isolation:isolate"><g style="clip-path:url(#clip-path)"><path d="M48.74,13.9,48.5,14c-.38.11-.46.22-.23.34a.9.9,0,0,0,.33.09,1,1,0,0,0,.34,0,.43.43,0,0,0,.2-.12.12.12,0,0,0,0-.16l-.38-.19M37.8,16.46c-.16,0-.22.11-.18.19s.17.19.41.31a2,2,0,0,0,.63.22,1,1,0,0,0,.53,0c.2-.05.25-.14.16-.26l-.86-.44a1.35,1.35,0,0,0-.69,0M45,14.4c-.15,0-.21.11-.17.19s.17.19.41.32a2.27,2.27,0,0,0,.62.21,1.08,1.08,0,0,0,.54,0c.19,0,.24-.14.15-.26l-.85-.44a1.51,1.51,0,0,0-.7,0M36,17c-.13,0-.19.09-.18.17s.09.15.24.24l.91-.26h0a2.14,2.14,0,0,0-.51-.16A1.25,1.25,0,0,0,36,17m16.39-4.7c-.15.05-.21.11-.18.2s.17.2.4.32a2.21,2.21,0,0,0,.64.22,1.27,1.27,0,0,0,.56,0c.16,0,.22-.11.19-.2s-.17-.2-.4-.31a2,2,0,0,0-.64-.22,1.34,1.34,0,0,0-.57,0m-2.47.23-.6.17,1,.51L50.9,13q.26-.08.27-.18c0-.07-.07-.14-.22-.22a1.39,1.39,0,0,0-.5-.15,1.47,1.47,0,0,0-.52,0M77.28,24.61a3.16,3.16,0,0,1-2-.23l-4.56-2.33c-.56-.29-.57-.65,0-.8l17-4.88a3.2,3.2,0,0,1,2,.24l4.55,2.33c.56.28.57.64,0,.79l-17,4.88M40,24.21l-1.26-.65L74.42,13.32l1.27.64L40,24.21M27.67,25c.36.19.36.42,0,.51a1.92,1.92,0,0,1-1.28-.15L27.67,25m9.25-2.33L35.65,22l41.4-11.87,1.27.65L36.92,22.66m-15.5-.36a1.54,1.54,0,0,1,1,.12l.22.11a6.3,6.3,0,0,1,3.47.64l1.62.83,1.27.15.33.16-5,1.45-.33-.17,0-.51-1.62-.82c-1-.51-1.31-1.09-.63-1.46l-.21-.11c-.27-.14-.28-.31,0-.39M41,16.65c.24-.07.31-.16.2-.28l-1.36-.69.31-.09,1.87,1-.29.08-.19-.09c0,.11-.09.2-.32.26a1.38,1.38,0,0,1-.61,0,1.89,1.89,0,0,1-.67-.22L38.73,16l.31-.09,1.21.62a1.08,1.08,0,0,0,.76.12m2.26-.46-1.87-1,.31-.09,1.87,1-.31.09m-9.18,2.66a2.1,2.1,0,0,1-.84,0,2.82,2.82,0,0,1-.92-.29l0,0a1.22,1.22,0,0,1-.39-.28c-.08-.09-.1-.17-.05-.25a.55.55,0,0,1,.31-.18,1.77,1.77,0,0,1,.7-.05,2,2,0,0,1,.71.19l-.3.08a1.18,1.18,0,0,0-.43-.11,1.07,1.07,0,0,0-.41,0c-.16.05-.23.11-.2.2s.16.18.38.3l.06,0a2.12,2.12,0,0,0,.63.21,1.27,1.27,0,0,0,.55,0c.11,0,.17-.08.18-.14s0-.12-.12-.17l.29-.09a.41.41,0,0,1,.2.19.19.19,0,0,1,0,.2.56.56,0,0,1-.27.14m3.63-1a2,2,0,0,1-.85,0,2.76,2.76,0,0,1-.9-.27l-.06,0a1.35,1.35,0,0,1-.39-.28c-.08-.1-.1-.18-.06-.26a.46.46,0,0,1,.28-.18,1.91,1.91,0,0,1,.8,0,3.17,3.17,0,0,1,.88.3l.14.07-1.24.35a2.08,2.08,0,0,0,.6.18,1.28,1.28,0,0,0,.56,0,.4.4,0,0,0,.21-.11.18.18,0,0,0,0-.16l.34,0c.09.17,0,.29-.33.38m5-2.76q-.06-.2.27-.3a1.7,1.7,0,0,1,1.26.18l1.23.63-.31.09L43.91,15a1.2,1.2,0,0,0-.39-.13,1.18,1.18,0,0,0-.37,0Q43,15,43,15a.15.15,0,0,0,0,.16l1.33.68L44,16l-1.87-1,.29-.09.25.12m3.86.23a1.83,1.83,0,0,1-.78,0,3.22,3.22,0,0,1-.92-.31c-.3-.15-.46-.29-.5-.42s0-.22.26-.28a1.78,1.78,0,0,1,.77,0l-.2-.11.29-.08L47.3,15c.25.12.37.24.37.35s-.12.2-.36.27a2,2,0,0,1-.47.07,2.89,2.89,0,0,1-.52,0l0-.15a1.64,1.64,0,0,0,.74,0c.15,0,.22-.1.22-.17s-.08-.14-.24-.22L46.85,15c0,.11-.08.19-.29.26M47.2,14a.3.3,0,0,1-.17-.16.16.16,0,0,1,.06-.18.65.65,0,0,1,.29-.15,1.57,1.57,0,0,1,.65-.05,1.63,1.63,0,0,1,.63.17l.86.44a2.5,2.5,0,0,0,.48.19h0l-.32.1-.24-.09c0,.12-.09.21-.29.27a1.47,1.47,0,0,1-.6,0,1.59,1.59,0,0,1-.57-.15c-.19-.1-.27-.2-.24-.29s.19-.19.45-.26l.3-.09-.14-.07A1,1,0,0,0,48,13.6a.86.86,0,0,0-.39,0c-.11,0-.17.07-.19.12s0,.1.1.14L47.2,14m6.88-.86a2,2,0,0,1-.86,0,2.73,2.73,0,0,1-.93-.29h0a1.09,1.09,0,0,1-.39-.28.22.22,0,0,1-.05-.26.53.53,0,0,1,.31-.18,2.06,2.06,0,0,1,.87,0,3,3,0,0,1,.93.29h0a1.19,1.19,0,0,1,.39.29.21.21,0,0,1,0,.25.53.53,0,0,1-.32.19m1.58-.66q.18-.06.21-.12c0-.05,0-.09-.09-.13a.66.66,0,0,0-.29-.08l-.46,0a3.37,3.37,0,0,1-.5.05,2.17,2.17,0,0,1-.38,0,1.32,1.32,0,0,1-.3-.1c-.16-.08-.22-.17-.2-.26s.13-.16.32-.22a1.85,1.85,0,0,1,.67-.06,1.56,1.56,0,0,1,.61.16l-.31.09a1,1,0,0,0-.34-.08.92.92,0,0,0-.37,0c-.11,0-.17.07-.19.11s0,.09.11.13a.53.53,0,0,0,.26.06,1.91,1.91,0,0,0,.44,0,3.22,3.22,0,0,1,.5,0,1.28,1.28,0,0,1,.4,0,.94.94,0,0,1,.32.11c.17.08.24.17.21.26s-.15.16-.36.22a1.7,1.7,0,0,1-.46.07,2,2,0,0,1-.49,0,1.52,1.52,0,0,1-.41-.13l.32-.09a.93.93,0,0,0,.38.1,1.33,1.33,0,0,0,.4,0m-.56-1-.25-.12.33-.1-.45-.23L55,11l.46.23.33-.1.25.13-.34.1,1.17.59a.9.9,0,0,0,.21.08.52.52,0,0,0,.21,0l.13-.05.26.13-.21.09a1.29,1.29,0,0,1-.44,0,1.51,1.51,0,0,1-.48-.16l-1.16-.59-.33.09m-3.85,2.4-2.52-1.28.9-.26a2.39,2.39,0,0,1,.85-.08,2.36,2.36,0,0,1,.78.22c.25.13.36.25.35.36s-.17.2-.44.28l-.58.17,1,.5-.32.09M31.92,19.26c.17-.05.27-.11.29-.17s0-.13-.16-.19a1.08,1.08,0,0,0-.41-.11,4.22,4.22,0,0,0-.66,0,4.77,4.77,0,0,1-.91,0,1.72,1.72,0,0,1-.63-.17c-.2-.1-.28-.21-.26-.32s.16-.2.41-.27a1.92,1.92,0,0,1,.55-.08,2.78,2.78,0,0,1,.58.05,2.09,2.09,0,0,1,.5.17l-.33.09a1.32,1.32,0,0,0-.5-.14,1.37,1.37,0,0,0-.53,0c-.16,0-.24.1-.26.16s0,.12.16.19a1.12,1.12,0,0,0,.39.1,3.72,3.72,0,0,0,.63,0,4.09,4.09,0,0,1,.67,0,2.59,2.59,0,0,1,.51.05,1.65,1.65,0,0,1,.41.14c.21.11.3.22.26.32s-.18.2-.44.27a2.27,2.27,0,0,1-.57.09,3.08,3.08,0,0,1-.61,0,1.91,1.91,0,0,1-.51-.17l.33-.09a1.37,1.37,0,0,0,.52.14,1.78,1.78,0,0,0,.57-.06M41.24,15a.4.4,0,0,1-.19,0l-.17,0a.24.24,0,0,1-.09-.08s0-.05.09-.07a.4.4,0,0,1,.19,0l.18.05s.08,0,.08.08,0,0-.09.07m-6.16,3.51-2.65-1.36.31-.09,1,.52c0-.13.06-.23.28-.29a1.68,1.68,0,0,1,1.25.18l1.24.63-.31.09L35,17.58a1.33,1.33,0,0,0-.39-.12.77.77,0,0,0-.37,0c-.11,0-.17.07-.19.12a.15.15,0,0,0,0,.16l1.33.68-.31.09m3.1-2.23-1-.5.32-.09,2.65,1.36-.29.08-.21-.1c0,.12-.06.21-.29.27a1.81,1.81,0,0,1-.78,0,3.46,3.46,0,0,1-.89-.3h0c-.29-.15-.45-.29-.49-.42s0-.22.26-.28a1.74,1.74,0,0,1,.73,0m4.3.11-2.65-1.36.31-.09,2.65,1.36-.31.09M64.32,1.27,4.44,18.44C2,19.14,2,20.76,4.56,22l30.11,15.4a14.31,14.31,0,0,0,9,1.05l59.88-17.17c2.45-.7,2.4-2.31-.12-3.6L73.31,2.33a14.24,14.24,0,0,0-9-1.06" style="fill:#fff"/><path d="M80,21.28l-.17,0c-.27.08-.33.16-.16.25a.6.6,0,0,0,.23.06.52.52,0,0,0,.25,0,.24.24,0,0,0,.14-.08.09.09,0,0,0,0-.11L80,21.28m-2,.17c-.09,0-.13.07-.13.12s.07.11.17.17l.66-.18h0a1.13,1.13,0,0,0-.36-.11.68.68,0,0,0-.32,0m7.31-2.1c-.11,0-.15.08-.13.15s.12.14.29.22a1.42,1.42,0,0,0,.45.16,1.1,1.1,0,0,0,.41,0c.11,0,.15-.08.13-.15a.63.63,0,0,0-.28-.22,1.31,1.31,0,0,0-.46-.15.94.94,0,0,0-.41,0m2.1-.6c-.09,0-.13.07-.13.12s.06.11.17.18l.65-.19h0a1.24,1.24,0,0,0-.36-.11.79.79,0,0,0-.31,0m-8.19,3.3a1.3,1.3,0,0,1-.6,0,2,2,0,0,1-.65-.2l0,0a1,1,0,0,1-.28-.2.18.18,0,0,1,0-.19.35.35,0,0,1,.2-.13,1.53,1.53,0,0,1,.57,0,2,2,0,0,1,.63.21l.09.05-.88.25a1.32,1.32,0,0,0,.44.13,1,1,0,0,0,.39,0c.08,0,.13-.05.15-.09a.09.09,0,0,0,0-.1h.25q.09.18-.24.27m-.28-.7a.31.31,0,0,1-.13-.12.13.13,0,0,1,0-.13.46.46,0,0,1,.21-.1,1.22,1.22,0,0,1,.47-.05,1.37,1.37,0,0,1,.45.13l.62.31a1.47,1.47,0,0,0,.33.14h0l-.23.07a.68.68,0,0,1-.17-.07c0,.09-.07.15-.21.19a1.19,1.19,0,0,1-.43,0,1.17,1.17,0,0,1-.4-.11c-.14-.07-.2-.14-.17-.21s.13-.13.31-.19l.22-.06-.1-.05a.79.79,0,0,0-.26-.08.88.88,0,0,0-.28,0c-.08,0-.13.06-.14.09s0,.07.07.1l-.22.07m1.3-.55c0-.08,0-.14.13-.18l.12,0,.21.11-.12,0c-.14,0-.18.1-.1.18l1,.48-.23.07-1.33-.69.21-.06.16.08m.8-.22c0-.09,0-.16.19-.21a1.23,1.23,0,0,1,.9.13L83,21l-.22.06-.89-.45a.78.78,0,0,0-.27-.09.82.82,0,0,0-.27,0c-.07,0-.12.05-.13.09s0,.07,0,.11l.95.49-.22.06-1.34-.68.21-.06.18.08M86.51,20a1.52,1.52,0,0,1-.61,0,1.94,1.94,0,0,1-.67-.21h0a.81.81,0,0,1-.28-.2.16.16,0,0,1,0-.18.36.36,0,0,1,.22-.13,1.57,1.57,0,0,1,.62,0,1.94,1.94,0,0,1,.67.21h0a.68.68,0,0,1,.27.2c.06.07.07.13,0,.18a.41.41,0,0,1-.23.14m-.16-.92c0-.08,0-.14.13-.18l.11,0,.22.11-.12,0c-.15.05-.18.11-.11.19l1,.48-.22.07L86,19l.22-.06.16.08m2.28.31a1.52,1.52,0,0,1-.61,0,1.77,1.77,0,0,1-.64-.2l0,0a.75.75,0,0,1-.28-.2.16.16,0,0,1,0-.19.31.31,0,0,1,.2-.12,1.29,1.29,0,0,1,.56,0,2.09,2.09,0,0,1,.64.21l.09.05-.88.25a1.55,1.55,0,0,0,.43.14,1,1,0,0,0,.4,0,.3.3,0,0,0,.15-.08.14.14,0,0,0,0-.11l.25,0q.09.16-.24.27M77.42,22.55l-1.8-.92.23-.06,1.61.82.83-.24.19.1-1.06.3m7-2.27-.9-.92.3-.08,1.8.92-.23.06-.7-.35-.73-.4.88.91-.18,0-2-.57.78.37.7.36-.23.07-1.8-.92.3-.09,2,.59m3.28-3.91-17,4.88c-.54.15-.53.51,0,.8l4.56,2.33a3.16,3.16,0,0,0,2,.23l17-4.88c.54-.15.53-.51,0-.79l-4.55-2.33a3.2,3.2,0,0,0-2-.24" style="fill:#fc527e"/><path d="M78,21.74c-.1-.06-.16-.12-.17-.17s0-.09.13-.12a.68.68,0,0,1,.32,0,1.13,1.13,0,0,1,.36.11h0l-.66.18m-.23-.39a.35.35,0,0,0-.2.13.18.18,0,0,0,0,.19,1,1,0,0,0,.28.2l0,0a2,2,0,0,0,.65.2,1.3,1.3,0,0,0,.6,0q.33-.09.24-.27h-.25a.09.09,0,0,1,0,.1s-.07.06-.15.09a1,1,0,0,1-.39,0,1.32,1.32,0,0,1-.44-.13l.88-.25L79,21.54a2,2,0,0,0-.63-.21,1.53,1.53,0,0,0-.57,0m2.37.27a.52.52,0,0,1-.25,0,.6.6,0,0,1-.23-.06c-.17-.09-.11-.17.16-.25l.17,0,.28.15a.09.09,0,0,1,0,.11.24.24,0,0,1-.14.08M79.06,21a.46.46,0,0,0-.21.1.13.13,0,0,0,0,.13.31.31,0,0,0,.13.12l.22-.07c-.06,0-.08-.06-.07-.1s.06-.06.14-.09a.88.88,0,0,1,.28,0,.79.79,0,0,1,.26.08l.1.05-.22.06c-.18.06-.29.12-.31.19s0,.14.17.21a1.17,1.17,0,0,0,.4.11,1.19,1.19,0,0,0,.43,0c.14,0,.21-.1.21-.19a.68.68,0,0,0,.17.07l.23-.07h0a1.47,1.47,0,0,1-.33-.14L80,21.08a1.37,1.37,0,0,0-.45-.13,1.22,1.22,0,0,0-.47.05m1.31-.38c-.13,0-.17.1-.13.18l-.16-.08-.21.06,1.33.69.23-.07-1-.48c-.08-.08,0-.14.1-.18l.12,0-.21-.11-.12,0m.86-.25c-.16.05-.22.12-.19.21l-.18-.08-.21.06,1.34.68.22-.06-.95-.49s-.05-.08,0-.11.06-.07.13-.09a.82.82,0,0,1,.27,0,.78.78,0,0,1,.27.09l.89.45L83,21l-.88-.45a1.23,1.23,0,0,0-.9-.13m5.1-.5a1.1,1.1,0,0,1-.41,0,1.42,1.42,0,0,1-.45-.16c-.17-.08-.27-.16-.29-.22s0-.12.13-.15a.94.94,0,0,1,.41,0,1.31,1.31,0,0,1,.46.15.63.63,0,0,1,.28.22c0,.07,0,.12-.13.15m-1.21-.61a.36.36,0,0,0-.22.13.16.16,0,0,0,0,.18.81.81,0,0,0,.28.2h0a1.94,1.94,0,0,0,.67.21,1.52,1.52,0,0,0,.61,0,.41.41,0,0,0,.23-.14s0-.11,0-.18a.68.68,0,0,0-.27-.2h0a1.94,1.94,0,0,0-.67-.21,1.57,1.57,0,0,0-.62,0m1.36-.39c-.14,0-.18.1-.13.18L86.19,19,86,19l1.34.69.22-.07-1-.48c-.07-.08,0-.14.11-.19l.12,0-.22-.11-.11,0m1,.18c-.11-.07-.16-.13-.17-.18s0-.09.13-.12a.79.79,0,0,1,.31,0,1.24,1.24,0,0,1,.36.11h0l-.65.19m-.23-.39a.31.31,0,0,0-.2.12.16.16,0,0,0,0,.19.75.75,0,0,0,.28.2l0,0a1.77,1.77,0,0,0,.64.2,1.52,1.52,0,0,0,.61,0q.33-.11.24-.27l-.25,0a.14.14,0,0,1,0,.11.3.3,0,0,1-.15.08,1,1,0,0,1-.4,0,1.55,1.55,0,0,1-.43-.14l.88-.25-.09-.05a2.09,2.09,0,0,0-.64-.21,1.29,1.29,0,0,0-.56,0M75.85,21.57l-.23.06,1.8.92,1.06-.3-.19-.1-.83.24-1.61-.82m8-2.29-.3.08.9.92-2-.59-.3.09,1.8.92.23-.07-.7-.36-.78-.37,2,.57.18,0L84,19.51l.73.4.7.35.23-.06-1.8-.92" style="fill:#fff"/><path d="M40.16,15.59l-.31.09,1.36.69c.11.12,0,.21-.2.28a1.08,1.08,0,0,1-.76-.12L39,15.91l-.31.09,1.22.62a1.89,1.89,0,0,0,.67.22,1.38,1.38,0,0,0,.61,0c.23-.06.34-.15.32-.26l.19.09.29-.08-1.87-1m1.55-.45-.31.09,1.87,1,.31-.09-1.87-1m-9.56,2.72a.55.55,0,0,0-.31.18c-.05.08,0,.16.05.25a1.22,1.22,0,0,0,.39.28l0,0a2.82,2.82,0,0,0,.92.29,2.1,2.1,0,0,0,.84,0,.56.56,0,0,0,.27-.14.19.19,0,0,0,0-.2.41.41,0,0,0-.2-.19l-.29.09c.09.05.14.11.12.17s-.07.1-.18.14a1.27,1.27,0,0,1-.55,0,2.12,2.12,0,0,1-.63-.21l-.06,0c-.22-.12-.35-.22-.38-.3s0-.15.2-.2a1.07,1.07,0,0,1,.41,0,1.18,1.18,0,0,1,.43.11l.3-.08a2,2,0,0,0-.71-.19,1.77,1.77,0,0,0-.7.05m3.92-.49q-.23-.14-.24-.24c0-.08.05-.13.18-.17a1.25,1.25,0,0,1,.44,0,2.14,2.14,0,0,1,.51.16h0l-.91.26m-.33-.54a.46.46,0,0,0-.28.18c0,.08,0,.16.06.26a1.35,1.35,0,0,0,.39.28l.06,0a2.76,2.76,0,0,0,.9.27,2,2,0,0,0,.85,0c.31-.09.42-.21.33-.38l-.34,0a.18.18,0,0,1,0,.16.4.4,0,0,1-.21.11,1.28,1.28,0,0,1-.56,0,2.08,2.08,0,0,1-.6-.18l1.24-.35-.14-.07a3.17,3.17,0,0,0-.88-.3,1.91,1.91,0,0,0-.8,0M43,14.75q-.33.11-.27.3l-.25-.12-.29.09L44,16l.31-.09L43,15.2A.15.15,0,0,1,43,15s.08-.09.18-.12a1.18,1.18,0,0,1,.37,0,1.2,1.2,0,0,1,.39.13l1.24.63.31-.09-1.23-.63A1.7,1.7,0,0,0,43,14.75m3.4.36a1.08,1.08,0,0,1-.54,0,2.27,2.27,0,0,1-.62-.21c-.24-.13-.38-.23-.41-.32s0-.15.17-.19a1.51,1.51,0,0,1,.7,0l.85.44c.09.12,0,.21-.15.26m-1.75-.83c-.21.06-.3.16-.26.28s.2.27.5.42a3.22,3.22,0,0,0,.92.31,1.83,1.83,0,0,0,.78,0c.21-.07.31-.15.29-.26l.16.08c.16.08.24.16.24.22s-.07.13-.22.17a1.64,1.64,0,0,1-.74,0l0,.15a2.89,2.89,0,0,0,.52,0,2,2,0,0,0,.47-.07c.24-.07.35-.16.36-.27s-.12-.23-.37-.35l-1.82-.93-.29.08.2.11a1.78,1.78,0,0,0-.77,0m4.32.09a1,1,0,0,1-.34,0,.9.9,0,0,1-.33-.09c-.23-.12-.15-.23.23-.34l.24-.07.38.19a.12.12,0,0,1,0,.16.43.43,0,0,1-.2.12m-1.56-.88a.65.65,0,0,0-.29.15.16.16,0,0,0-.06.18.3.3,0,0,0,.17.16l.32-.09c-.08,0-.12-.08-.1-.14s.08-.09.19-.12a.86.86,0,0,1,.39,0,1,1,0,0,1,.37.11l.14.07-.3.09c-.26.07-.41.16-.45.26s.05.19.24.29a1.59,1.59,0,0,0,.57.15,1.47,1.47,0,0,0,.6,0c.2-.06.3-.15.29-.27l.24.09.32-.1h0a2.5,2.5,0,0,1-.48-.19l-.86-.44a1.63,1.63,0,0,0-.63-.17,1.57,1.57,0,0,0-.65.05M53.82,13a1.27,1.27,0,0,1-.56,0,2.21,2.21,0,0,1-.64-.22c-.23-.12-.37-.22-.4-.32s0-.15.18-.2a1.34,1.34,0,0,1,.57,0,2,2,0,0,1,.64.22c.23.11.37.22.4.31s0,.16-.19.2m-1.68-.85a.53.53,0,0,0-.31.18.22.22,0,0,0,.05.26,1.09,1.09,0,0,0,.39.28h0a2.73,2.73,0,0,0,.93.29,2,2,0,0,0,.86,0,.53.53,0,0,0,.32-.19.21.21,0,0,0,0-.25,1.19,1.19,0,0,0-.39-.29h0a3,3,0,0,0-.93-.29,2.06,2.06,0,0,0-.87,0M54,11.6c-.19.06-.3.13-.32.22s0,.18.2.26a1.32,1.32,0,0,0,.3.1,2.17,2.17,0,0,0,.38,0,3.37,3.37,0,0,0,.5-.05l.46,0a.66.66,0,0,1,.29.08c.08,0,.11.08.09.13s-.09.08-.21.12a1.33,1.33,0,0,1-.4,0,.93.93,0,0,1-.38-.1l-.32.09a1.52,1.52,0,0,0,.41.13,2,2,0,0,0,.49,0,1.7,1.7,0,0,0,.46-.07c.21-.06.33-.13.36-.22s0-.18-.21-.26a.94.94,0,0,0-.32-.11,1.28,1.28,0,0,0-.4,0,3.22,3.22,0,0,0-.5,0,1.91,1.91,0,0,1-.44,0,.53.53,0,0,1-.26-.06c-.08,0-.12-.08-.11-.13s.08-.08.19-.11a.92.92,0,0,1,.37,0,1,1,0,0,1,.34.08l.31-.09a1.56,1.56,0,0,0-.61-.16,1.85,1.85,0,0,0-.67.06M55,11l-.31.09.45.23-.33.1.25.12.33-.09,1.16.59a1.51,1.51,0,0,0,.48.16,1.29,1.29,0,0,0,.44,0l.21-.09-.26-.13-.13.05a.52.52,0,0,1-.21,0,.9.9,0,0,1-.21-.08l-1.17-.59.34-.1-.25-.13-.33.1L55,11m-4.72,2.21-1-.51.6-.17a1.47,1.47,0,0,1,.52,0,1.39,1.39,0,0,1,.5.15c.15.08.23.15.22.22s-.1.13-.27.18l-.58.17m-.69-.81-.9.26,2.52,1.28.32-.09-1-.5.58-.17c.27-.08.42-.17.44-.28s-.1-.23-.35-.36a2.36,2.36,0,0,0-.78-.22,2.39,2.39,0,0,0-.85.08m-20,5.72c-.25.07-.38.16-.41.27s.06.22.26.32a1.72,1.72,0,0,0,.63.17,4.77,4.77,0,0,0,.91,0,4.22,4.22,0,0,1,.66,0,1.08,1.08,0,0,1,.41.11c.13.06.18.13.16.19s-.12.12-.29.17a1.78,1.78,0,0,1-.57.06,1.37,1.37,0,0,1-.52-.14l-.33.09a1.91,1.91,0,0,0,.51.17,3.08,3.08,0,0,0,.61,0,2.27,2.27,0,0,0,.57-.09c.26-.07.41-.16.44-.27s-.05-.21-.26-.32a1.65,1.65,0,0,0-.41-.14,2.59,2.59,0,0,0-.51-.05,4.09,4.09,0,0,0-.67,0,3.72,3.72,0,0,1-.63,0,1.12,1.12,0,0,1-.39-.1c-.12-.07-.18-.13-.16-.19s.1-.12.26-.16a1.37,1.37,0,0,1,.53,0,1.32,1.32,0,0,1,.5.14l.33-.09a2.09,2.09,0,0,0-.5-.17,2.78,2.78,0,0,0-.58-.05,1.92,1.92,0,0,0-.55.08m11.29-3.24c-.06,0-.09,0-.09.07a.24.24,0,0,0,.09.08l.17,0a.4.4,0,0,0,.19,0c.06,0,.09,0,.09-.07s0-.05-.08-.08l-.18-.05a.4.4,0,0,0-.19,0m-8.14,2.25-.31.09,2.65,1.36.31-.09-1.33-.68a.15.15,0,0,1,0-.16c0-.05.08-.09.19-.12a.77.77,0,0,1,.37,0,1.33,1.33,0,0,1,.39.12l1.24.64.31-.09-1.24-.63A1.68,1.68,0,0,0,34,17.32c-.22.06-.32.16-.28.29l-1-.52m6.45.08a1,1,0,0,1-.53,0A2,2,0,0,1,38,17c-.24-.12-.37-.22-.41-.31s0-.15.18-.19a1.35,1.35,0,0,1,.69,0l.86.44c.09.12,0,.21-.16.26m-1.67-1.45-.32.09,1,.5a1.74,1.74,0,0,0-.73,0c-.22.06-.3.16-.26.28s.2.27.49.42h0a3.46,3.46,0,0,0,.89.3,1.81,1.81,0,0,0,.78,0c.23-.06.32-.15.29-.27l.21.1.29-.08-2.65-1.36M40.14,15l-.31.09,2.65,1.36.31-.09L40.14,15" style="fill:#5a7184"/><polyline points="77.05 10.14 35.65 22.01 36.92 22.66 78.32 10.79 77.05 10.14" style="fill:#eef1f2"/><polyline points="74.42 13.32 38.69 23.56 39.95 24.21 75.69 13.96 74.42 13.32" style="fill:#eef1f2"/><g style="clip-path:url(#clip-path-2)"><path d="M27.67,25l-1.27.36a1.92,1.92,0,0,0,1.28.15c.35-.09.35-.32,0-.51" style="fill:gold"/><path d="M21.42,22.3c-.26.08-.25.25,0,.39l.21.11c-.68.37-.36.95.63,1.46l1.62.82,0,.51.33.17,5-1.45L29,24.15,27.69,24l-1.62-.83a6.3,6.3,0,0,0-3.47-.64l-.22-.11a1.54,1.54,0,0,0-1-.12" style="fill:gold"/></g></g></g></svg>