<svg id="Warstwa_1" data-name="Warstwa 1" xmlns="http://www.w3.org/2000/svg" xmlns:xlink="http://www.w3.org/1999/xlink" viewBox="0 0 98.92 37.05"><defs><linearGradient id="linear-gradient" x1="88.33" y1="43.64" x2="-10.54" y2="43.64" gradientTransform="translate(9.08 -23.74) rotate(-1.96)" gradientUnits="userSpaceOnUse"><stop offset="0" stop-color="#94c2ff"/><stop offset="1" stop-color="#6570d7"/></linearGradient><clipPath id="clip-path"><path d="M31.18,35.75.7,20.06a1.28,1.28,0,0,1,.23-2.37L63.15.05a1.27,1.27,0,0,1,.94.09L98.22,17.72A1.28,1.28,0,0,1,98,20.09L39.72,36.61A11.67,11.67,0,0,1,31.18,35.75Z" style="fill:url(#linear-gradient)"/></clipPath><linearGradient id="linear-gradient-3" x1="88" y1="43.98" x2="-10.21" y2="43.98" xlink:href="#linear-gradient"/></defs><g style="opacity:0.5"><path d="M31.18,35.75.7,20.06a1.28,1.28,0,0,1,.23-2.37L63.15.05a1.27,1.27,0,0,1,.94.09L98.22,17.72A1.28,1.28,0,0,1,98,20.09L39.72,36.61A11.67,11.67,0,0,1,31.18,35.75Z" style="fill:url(#linear-gradient)"/><g style="clip-path:url(#clip-path)"><path d="M59.39,1.11,2.05,17.37c-2.34.66-2.29,2.21.11,3.44L30.93,35.63a13.64,13.64,0,0,0,8.6,1L96.86,20.41c2.35-.67,2.3-2.21-.1-3.44L68,2.15a13.65,13.65,0,0,0-8.6-1" style="fill:url(#linear-gradient-3)"/></g></g></svg>